<?xml version="1.0" encoding="utf-8"?>
<!-- Generator: Adobe Illustrator 26.0.2, SVG Export Plug-In . SVG Version: 6.00 Build 0)  -->
<svg version="1.1" id="Capa_1" xmlns="http://www.w3.org/2000/svg" xmlns:xlink="http://www.w3.org/1999/xlink" x="0px" y="0px"
	 viewBox="0 0 200 200" style="enable-background:new 0 0 200 200;" xml:space="preserve">
<style type="text/css">
	.st0{fill:#1D1D1B;}
	.st1{clip-path:url(#SVGID_00000060739177227754849700000005732844443960447134_);}
	.st2{opacity:0.5;enable-background:new    ;}
	.st3{clip-path:url(#SVGID_00000183214834831025377000000006212140926530995093_);}
	.st4{fill:url(#path5348_00000126310373143920394170000005047321417041307529_);}
	.st5{fill:#676767;}
	.st6{fill:#3C3C3C;}
	.st7{fill:#F6F6F6;}
	.st8{fill:#444444;}
</style>
<radialGradient id="path5348_00000055679029276921348980000004879885870324590468_" cx="-1602.1766" cy="-666.3501" r="1.112" gradientTransform="matrix(110.6633 118.4893 -108.8758 101.6317 106264.2031 254146.5781)" gradientUnits="userSpaceOnUse">
	<stop  offset="0" style="stop-color:#D7D7D7"/>
	<stop  offset="1" style="stop-color:#808080"/>
</radialGradient>
<path id="path5348" style="fill:url(#path5348_00000055679029276921348980000004879885870324590468_);" d="M180.2,107.2h-8.4
	c-2-0.1-4,0.4-5.7,1.5v-1.5h-12.4c-2,0-4.3,0.5-5.4,1.5v-1.5h-22.2v1.5c-1.8-1.3-4.7-1.5-6.1-1.5h-14.6v1.5
	c-1.4-1.3-4.5-1.5-6.4-1.5H82.6l-3.8,4.1l-3.5-4.1H50.9v26.5h24l3.9-4.1l3.6,4.1l14.8,0v-6.2h1.5c2.1,0.1,4.3-0.2,6.3-0.9v7.2h12.2
	v-6.9h0.6c0.7,0,0.8,0.1,0.8,0.8v6.2h37.1c2.2,0.1,4.4-0.5,6.2-1.7v1.7h11.8c2.3,0.1,4.6-0.3,6.7-1.2V181H18.7v-80h7.8l1.7-4.2h3.9
	l1.8,4.2h15.3v-3.2l1.4,3.2h7.9l1.4-3.3v3.3h37.9l0-6.9h0.7c0.5,0,0.7,0.1,0.7,0.9v6h19.6l0-1.6c2.3,1.1,4.8,1.7,7.3,1.6h8.2
	l1.8-4.2h3.9l1.8,4.2h15.9v-4l2.4,4h12.7V74.6h-12.6v3.1l-1.8-3.1h-12.9v3.1l-1.6-3.1h-17.5c-2.6-0.1-5.2,0.4-7.6,1.5v-1.5h-12v1.5
	c-1.5-1.1-3.3-1.6-5.1-1.5H57.5l-3,6.8l-3-6.8H37.6v3.1l-1.6-3.1H24.2l-5.5,12.6V19h161.5V107.2 M168.7,97.3h-6.5l-8.6-14.2l0,14.2
	h-9.2l-1.7-4.3h-9.4l-1.7,4.3h-5.3c-2.2,0-5-0.5-6.6-2.1c-1.6-1.6-2.4-3.8-2.4-7.2c0-2.8,0.5-5.4,2.4-7.4c1.5-1.5,3.8-2.2,6.9-2.2
	h4.3v4.1l-4.2,0c-1.7,0-2.6,0.2-3.5,1.1c-1,1.2-1.4,2.8-1.3,4.3c-0.1,1.6,0.3,3.2,1.3,4.5c0.9,0.7,2,1.1,3.1,1h2l6.4-14.9h6.8
	l7.7,18v-18h6.9l8,13.2l0-13.2h4.7L168.7,97.3z M110.3,97.3h4.6v-19h-4.6L110.3,97.3z M105.4,79.2c-1.5-0.8-3.2-0.9-5.5-0.9H89.4v19
	H94v-6.9h4.9c1.7,0,2.6,0.1,3.3,0.8c0.8,0.9,0.7,2.6,0.7,3.7v2.4h4.6v-3.8c0.1-1.2-0.1-2.4-0.8-3.4c-0.6-0.7-1.4-1.3-2.2-1.6
	c2-0.9,3.3-2.9,3.2-5C107.8,81.7,106.9,80,105.4,79.2 M86.3,93.3l-10.6,0v-3.8l10.4,0v-3.9H75.7v-3.4h10.6v-4H71.1v19h15.2
	L86.3,93.3z M67.7,78.3h-7.6l-5.5,12.9l-5.9-12.9h-7.4l0,18l-7.7-18h-6.8l-8.1,19h4.9l1.7-4.3h9.4l1.7,4.3h9.2V82.4l6.6,14.9h4
	l6.6-14.9v14.9h4.7L67.7,78.3z M141,89.1l-3.1-7.6l-3.1,7.6H141z M101.7,86.1c-0.7,0.3-1.5,0.5-2.2,0.4H94v-4.2h5.6
	c0.7-0.1,1.5,0.1,2.2,0.3c0.6,0.3,1,1,0.9,1.7C102.7,85,102.4,85.7,101.7,86.1 M27.1,89.1l3.1-7.6l3.1,7.6H27.1 M181.2,124
	c0,4-2.5,6-7.1,6h-8.8v-4.1h8.7c0.6,0.1,1.3-0.1,1.8-0.5c0.3-0.3,0.5-0.8,0.5-1.2c0-0.5-0.2-0.9-0.6-1.3c-0.5-0.3-1-0.5-1.6-0.4
	c-4.2-0.1-9.6,0.1-9.6-5.9c0-2.7,1.7-5.7,6.5-5.7h9v4.1H172c-0.6-0.1-1.2,0-1.8,0.3c-0.5,0.3-0.7,0.8-0.7,1.4c0,0.6,0.4,1.2,1,1.4
	c0.6,0.2,1.2,0.2,1.7,0.2l2.4,0.1c2.5,0.1,4.2,0.5,5.2,1.5C180.9,121,181.4,122.5,181.2,124 M162.1,120c-1-1-2.7-1.5-5.2-1.5
	l-2.4-0.1c-0.6,0-1.2-0.1-1.7-0.2c-0.6-0.2-1-0.8-1-1.4c0-0.5,0.2-1.1,0.7-1.4c0.6-0.3,1.2-0.4,1.8-0.3h8.3V111h-9.1
	c-4.8,0-6.5,2.9-6.5,5.7c0,6,5.3,5.8,9.6,5.9c0.6,0,1.1,0.1,1.6,0.4c0.4,0.3,0.6,0.8,0.6,1.3c0,0.5-0.2,0.9-0.5,1.2
	c-0.5,0.4-1.2,0.5-1.8,0.5h-8.8v4.1h8.8c4.6,0,7.1-1.9,7.1-6C163.6,122.5,163.1,121,162.1,120 M144.8,126l-10.6,0v-3.8h10.4v-3.9
	l-10.4,0v-3.4h10.6v-4h-15.2v19h15.2L144.8,126z M124.8,111.9c-1.5-0.8-3.2-0.9-5.5-0.9h-10.5v19h4.5v-6.9l4.9,0
	c1.7,0,2.6,0.1,3.3,0.8c0.8,0.9,0.7,2.6,0.7,3.7v2.4h4.6v-3.8c0.1-1.2-0.1-2.4-0.8-3.4c-0.6-0.7-1.3-1.3-2.2-1.6
	c2-0.9,3.3-2.9,3.2-5C127.3,114.4,126.3,112.7,124.8,111.9 M99.1,111H84.6l-5.8,6.2l-5.6-6.2H54.9v19h18l5.8-6.3l5.6,6.3h8.8v-6.4
	h5.6c4,0,7.9-1.1,7.9-6.4S102.7,111,99.1,111 M121.2,118.8c-0.7,0.3-1.5,0.4-2.2,0.4l-5.5,0v-4.2h5.6c0.7-0.1,1.5,0.1,2.2,0.3
	c0.6,0.4,1,1,0.9,1.7C122.1,117.7,121.8,118.4,121.2,118.8 M99,119.7h-5.9v-4.8h5.9c1.6,0,2.7,0.7,2.7,2.3S100.8,119.7,99,119.7
	 M81.7,120.5l7-7.5v15.2L81.7,120.5z M70.6,126H59.5v-3.8h9.9v-3.9l-9.9,0v-3.4h11.4l5,5.5L70.6,126"/>
</svg>
