<?xml version="1.0" encoding="utf-8"?>
<!-- Generator: Adobe Illustrator 26.0.3, SVG Export Plug-In . SVG Version: 6.00 Build 0)  -->
<svg version="1.1" id="Capa_1" xmlns="http://www.w3.org/2000/svg" xmlns:xlink="http://www.w3.org/1999/xlink" x="0px" y="0px"
	 viewBox="0 0 200 200" style="enable-background:new 0 0 200 200;" xml:space="preserve">
<style type="text/css">
	.st0{fill:#1D1D1B;}
	.st1{clip-path:url(#SVGID_00000181772455448618258650000003598594948289111689_);}
	.st2{opacity:0.5;enable-background:new    ;}
	.st3{clip-path:url(#SVGID_00000042708288800580379710000006188946496220454045_);}
	.st4{fill:url(#path5348_00000106849646344997802830000003527465998924781747_);}
	.st5{fill:#676767;}
	.st6{fill:#3C3C3C;}
	.st7{fill:#F6F6F6;}
	.st8{fill:#444444;}
	.st9{clip-path:url(#SVGID_00000147220957536660944990000016325712141778669201_);}
	.st10{clip-path:url(#SVGID_00000013166605895687651380000000456500586128259224_);}
	.st11{clip-path:url(#SVGID_00000116232256122858007130000015058169241911126711_);}
	.st12{clip-path:url(#SVGID_00000064342664040263236790000010019176305825217179_);}
	.st13{fill:#808080;}
	.st14{clip-path:url(#SVGID_00000178206806272525227250000006547370766175541648_);fill:none;}
	.st15{clip-path:url(#SVGID_00000178206806272525227250000006547370766175541648_);}
	.st16{clip-path:url(#SVGID_00000096059681050197792320000007721532275855789492_);}
	.st17{fill:#FFFFFF;}
	.st18{fill:#FF5A76;}
	.st19{fill:#454B60;}
	.st20{fill:#CAD2DB;}
	.st21{fill:#5C8EFF;}
	.st22{fill:#DADEEA;}
	.st23{fill:#E7ECF2;}
	.st24{clip-path:url(#SVGID_00000131355019345405673430000001223724864368986025_);}
	.st25{clip-path:url(#SVGID_00000047746209705432250200000017540430154201121677_);}
	.st26{clip-path:url(#SVGID_00000116198443144962950780000013794220794715969170_);}
	.st27{fill:#A8AFC1;}
	.st28{clip-path:url(#SVGID_00000008836426349480198650000014906778467981982614_);}
	.st29{fill:url(#Rectángulo_35_00000049904880072082409030000016695806625157598887_);}
	.st30{clip-path:url(#SVGID_00000146460120886536155960000014223407921814780593_);}
	.st31{fill-rule:evenodd;clip-rule:evenodd;fill:#454B60;}
	.st32{fill:#020302;}
	.st33{clip-path:url(#SVGID_00000023993808746916279140000010929504394806462626_);}
	.st34{clip-path:url(#SVGID_00000129892744598135835070000002138702487480910991_);}
	.st35{clip-path:url(#SVGID_00000160188960183768622420000004240959391172073867_);}
	.st36{opacity:0.5;}
	.st37{clip-path:url(#SVGID_00000076578451866856197780000012620659701034799278_);}
	.st38{clip-path:url(#SVGID_00000180328716833465949730000017917523252993960841_);}
	.st39{clip-path:url(#SVGID_00000079480122807253992160000004071727333240132013_);}
	.st40{clip-path:url(#SVGID_00000112617254767678131920000015788415134374967989_);}
	.st41{clip-path:url(#SVGID_00000143580634243010009860000013262579921440710565_);}
	.st42{clip-path:url(#SVGID_00000045591581430785145620000014576317982676793008_);}
	.st43{fill:#B2B2B2;}
	.st44{fill:#353535;}
</style>
<g>
	<path class="st43" d="M164.2,164.3c0,2.4-1.3,3.2-2.5,3.2c-1.7,0-2.4-1.3-2.4-3.3c0-2.2,1.2-3.2,2.4-3.2
		C163.3,161.1,164.2,162.2,164.2,164.3z"/>
	<path class="st43" d="M119.4,163.3c-0.2-0.5-0.3-1-0.4-1.4h0c-0.1,0.5-0.2,0.9-0.4,1.4l-0.8,2.4h2.4L119.4,163.3z M119.4,163.3
		c-0.2-0.5-0.3-1-0.4-1.4h0c-0.1,0.5-0.2,0.9-0.4,1.4l-0.8,2.4h2.4L119.4,163.3z M82.1,163.3c-0.2-0.5-0.3-1-0.4-1.4h0
		c-0.1,0.5-0.2,0.9-0.4,1.4l-0.8,2.4h2.4L82.1,163.3z M91,161c-0.4,0-0.7,0-1,0v6.4c0.2,0,0.5,0.1,0.9,0.1c1.7,0,2.9-1,2.9-3.3
		C93.8,162.3,93.2,161,91,161z M119.4,163.3c-0.2-0.5-0.3-1-0.4-1.4h0c-0.1,0.5-0.2,0.9-0.4,1.4l-0.8,2.4h2.4L119.4,163.3z
		 M119.4,163.3c-0.2-0.5-0.3-1-0.4-1.4h0c-0.1,0.5-0.2,0.9-0.4,1.4l-0.8,2.4h2.4L119.4,163.3z M91,161c-0.4,0-0.7,0-1,0v6.4
		c0.2,0,0.5,0.1,0.9,0.1c1.7,0,2.9-1,2.9-3.3C93.8,162.3,93.2,161,91,161z M82.1,163.3c-0.2-0.5-0.3-1-0.4-1.4h0
		c-0.1,0.5-0.2,0.9-0.4,1.4l-0.8,2.4h2.4L82.1,163.3z M82.1,163.3c-0.2-0.5-0.3-1-0.4-1.4h0c-0.1,0.5-0.2,0.9-0.4,1.4l-0.8,2.4h2.4
		L82.1,163.3z M91,161c-0.4,0-0.7,0-1,0v6.4c0.2,0,0.5,0.1,0.9,0.1c1.7,0,2.9-1,2.9-3.3C93.8,162.3,93.2,161,91,161z M119.4,163.3
		c-0.2-0.5-0.3-1-0.4-1.4h0c-0.1,0.5-0.2,0.9-0.4,1.4l-0.8,2.4h2.4L119.4,163.3z M119.4,163.3c-0.2-0.5-0.3-1-0.4-1.4h0
		c-0.1,0.5-0.2,0.9-0.4,1.4l-0.8,2.4h2.4L119.4,163.3z M91,161c-0.4,0-0.7,0-1,0v6.4c0.2,0,0.5,0.1,0.9,0.1c1.7,0,2.9-1,2.9-3.3
		C93.8,162.3,93.2,161,91,161z M82.1,163.3c-0.2-0.5-0.3-1-0.4-1.4h0c-0.1,0.5-0.2,0.9-0.4,1.4l-0.8,2.4h2.4L82.1,163.3z
		 M44.5,163.3c-0.2-0.5-0.3-1-0.4-1.4h0c-0.1,0.5-0.2,0.9-0.4,1.4l-0.8,2.4h2.4L44.5,163.3z M82.1,163.3c-0.2-0.5-0.3-1-0.4-1.4h0
		c-0.1,0.5-0.2,0.9-0.4,1.4l-0.8,2.4h2.4L82.1,163.3z M91,161c-0.4,0-0.7,0-1,0v6.4c0.2,0,0.5,0.1,0.9,0.1c1.7,0,2.9-1,2.9-3.3
		C93.8,162.3,93.2,161,91,161z M119.4,163.3c-0.2-0.5-0.3-1-0.4-1.4h0c-0.1,0.5-0.2,0.9-0.4,1.4l-0.8,2.4h2.4L119.4,163.3z
		 M119.4,163.3c-0.2-0.5-0.3-1-0.4-1.4h0c-0.1,0.5-0.2,0.9-0.4,1.4l-0.8,2.4h2.4L119.4,163.3z M91,161c-0.4,0-0.7,0-1,0v6.4
		c0.2,0,0.5,0.1,0.9,0.1c1.7,0,2.9-1,2.9-3.3C93.8,162.3,93.2,161,91,161z M82.1,163.3c-0.2-0.5-0.3-1-0.4-1.4h0
		c-0.1,0.5-0.2,0.9-0.4,1.4l-0.8,2.4h2.4L82.1,163.3z M44.5,163.3c-0.2-0.5-0.3-1-0.4-1.4h0c-0.1,0.5-0.2,0.9-0.4,1.4l-0.8,2.4h2.4
		L44.5,163.3z M14.3,153.6V175h171.4v-21.3H14.3z M38.9,169.5h-5.6v-10.5h2.4v8.3h3.2V169.5z M46.6,169.5l-0.7-1.9h-3.6l-0.6,1.9
		h-2.4l3.5-10.5h2.7l3.7,10.5H46.6z M63.3,169.5l-0.7-4.3c-0.1-0.8-0.2-1.6-0.3-2.4h0c-0.2,0.8-0.3,1.6-0.6,2.5l-1.3,4.3H58
		l-1.2-3.9c-0.3-0.9-0.5-1.9-0.7-2.8h0c-0.1,1-0.2,1.8-0.3,2.7l-0.5,4.1h-2.4l1.7-10.5h2.8l1.5,4.6c0.2,0.7,0.4,1.4,0.6,2.3h0
		c0.2-0.8,0.3-1.5,0.6-2.3l1.5-4.6h2.7l1.7,10.5H63.3z M69.4,169.5H67v-10.5h2.4V169.5z M75.2,169.5h-2.4v-8.4h-2.5v-2.1h7.4v2.1
		h-2.5V169.5z M84.2,169.5l-0.6-1.9h-3.6l-0.6,1.9h-2.4l3.5-10.5h2.7l3.7,10.5H84.2z M90.7,169.6c-1.1,0-2.1-0.1-3.1-0.1v-10.4
		c0.8-0.1,2.2-0.1,3.6-0.1c3.2,0,5.2,1.4,5.2,5.1C96.4,167.7,94.1,169.6,90.7,169.6z M111.1,169.5l-0.7-4.3
		c-0.1-0.8-0.2-1.6-0.3-2.4h0c-0.2,0.8-0.3,1.6-0.6,2.5l-1.3,4.3h-2.3l-1.2-3.9c-0.3-0.9-0.5-1.9-0.7-2.8h0c-0.1,1-0.2,1.8-0.3,2.7
		l-0.5,4.1h-2.4l1.7-10.5h2.8l1.5,4.6c0.2,0.7,0.4,1.4,0.6,2.3h0c0.2-0.8,0.3-1.5,0.6-2.3l1.5-4.6h2.7l1.7,10.5H111.1z M121.4,169.5
		l-0.7-1.9h-3.6l-0.6,1.9h-2.4l3.5-10.5h2.7l3.7,10.5H121.4z M127.3,169.7c-1,0-1.8-0.1-2.5-0.3l0.2-2.3c0.7,0.3,1.4,0.5,2.3,0.5
		c0.8,0,1.4-0.3,1.4-1.1c0-1.8-4.2-0.9-4.2-4.4c0-2,1.5-3.3,4.1-3.3c0.6,0,1.3,0.1,1.9,0.2l-0.2,2.1c-0.6-0.2-1.2-0.3-1.8-0.3
		c-1,0-1.4,0.4-1.4,1c0,1.6,4.3,1,4.3,4.3C131.4,168.2,129.7,169.7,127.3,169.7z M144.7,165.4c0,3-1.6,4.3-4.4,4.3
		c-3.3,0-4.1-1.8-4.1-3.9v-6.8h2.4v6.6c0,1.2,0.4,2,1.9,2c1.4,0,1.9-0.6,1.9-2.1v-6.5h2.4V165.4z M155.4,169.5h-3.1l-2.5-4.5
		c-0.4-0.8-0.8-1.6-1.1-2.3c0.1,0.8,0.1,1.8,0.1,2.8v4h-2.3v-10.5h3.1l2.3,4.1c0.5,0.9,0.9,1.8,1.3,2.6c-0.1-0.9-0.1-2.3-0.1-3.3
		v-3.4h2.3V169.5z M161.5,169.7c-3.2,0-4.8-2-4.8-5.3c0-3.4,2.3-5.6,5.2-5.6c2.8,0,4.8,1.6,4.8,5.3
		C166.7,167.6,164.4,169.7,161.5,169.7z M119,161.8L119,161.8c-0.1,0.5-0.2,0.9-0.4,1.4l-0.8,2.4h2.4l-0.8-2.4
		C119.2,162.8,119.1,162.3,119,161.8z M91,161c-0.4,0-0.7,0-1,0v6.4c0.2,0,0.5,0.1,0.9,0.1c1.7,0,2.9-1,2.9-3.3
		C93.8,162.3,93.2,161,91,161z M81.7,161.8L81.7,161.8c-0.1,0.5-0.2,0.9-0.4,1.4l-0.8,2.4h2.4l-0.8-2.4
		C82,162.8,81.8,162.3,81.7,161.8z M44.1,161.8L44.1,161.8c-0.1,0.5-0.2,0.9-0.4,1.4l-0.8,2.4h2.4l-0.8-2.4
		C44.3,162.8,44.2,162.3,44.1,161.8z M82.1,163.3c-0.2-0.5-0.3-1-0.4-1.4h0c-0.1,0.5-0.2,0.9-0.4,1.4l-0.8,2.4h2.4L82.1,163.3z
		 M91,161c-0.4,0-0.7,0-1,0v6.4c0.2,0,0.5,0.1,0.9,0.1c1.7,0,2.9-1,2.9-3.3C93.8,162.3,93.2,161,91,161z M119.4,163.3
		c-0.2-0.5-0.3-1-0.4-1.4h0c-0.1,0.5-0.2,0.9-0.4,1.4l-0.8,2.4h2.4L119.4,163.3z M119.4,163.3c-0.2-0.5-0.3-1-0.4-1.4h0
		c-0.1,0.5-0.2,0.9-0.4,1.4l-0.8,2.4h2.4L119.4,163.3z M91,161c-0.4,0-0.7,0-1,0v6.4c0.2,0,0.5,0.1,0.9,0.1c1.7,0,2.9-1,2.9-3.3
		C93.8,162.3,93.2,161,91,161z M82.1,163.3c-0.2-0.5-0.3-1-0.4-1.4h0c-0.1,0.5-0.2,0.9-0.4,1.4l-0.8,2.4h2.4L82.1,163.3z
		 M82.1,163.3c-0.2-0.5-0.3-1-0.4-1.4h0c-0.1,0.5-0.2,0.9-0.4,1.4l-0.8,2.4h2.4L82.1,163.3z M91,161c-0.4,0-0.7,0-1,0v6.4
		c0.2,0,0.5,0.1,0.9,0.1c1.7,0,2.9-1,2.9-3.3C93.8,162.3,93.2,161,91,161z M119.4,163.3c-0.2-0.5-0.3-1-0.4-1.4h0
		c-0.1,0.5-0.2,0.9-0.4,1.4l-0.8,2.4h2.4L119.4,163.3z M119.4,163.3c-0.2-0.5-0.3-1-0.4-1.4h0c-0.1,0.5-0.2,0.9-0.4,1.4l-0.8,2.4
		h2.4L119.4,163.3z M91,161c-0.4,0-0.7,0-1,0v6.4c0.2,0,0.5,0.1,0.9,0.1c1.7,0,2.9-1,2.9-3.3C93.8,162.3,93.2,161,91,161z
		 M82.1,163.3c-0.2-0.5-0.3-1-0.4-1.4h0c-0.1,0.5-0.2,0.9-0.4,1.4l-0.8,2.4h2.4L82.1,163.3z M91,161c-0.4,0-0.7,0-1,0v6.4
		c0.2,0,0.5,0.1,0.9,0.1c1.7,0,2.9-1,2.9-3.3C93.8,162.3,93.2,161,91,161z M119.4,163.3c-0.2-0.5-0.3-1-0.4-1.4h0
		c-0.1,0.5-0.2,0.9-0.4,1.4l-0.8,2.4h2.4L119.4,163.3z M119.4,163.3c-0.2-0.5-0.3-1-0.4-1.4h0c-0.1,0.5-0.2,0.9-0.4,1.4l-0.8,2.4
		h2.4L119.4,163.3z M91,161c-0.4,0-0.7,0-1,0v6.4c0.2,0,0.5,0.1,0.9,0.1c1.7,0,2.9-1,2.9-3.3C93.8,162.3,93.2,161,91,161z
		 M119.4,163.3c-0.2-0.5-0.3-1-0.4-1.4h0c-0.1,0.5-0.2,0.9-0.4,1.4l-0.8,2.4h2.4L119.4,163.3z M119.4,163.3c-0.2-0.5-0.3-1-0.4-1.4
		h0c-0.1,0.5-0.2,0.9-0.4,1.4l-0.8,2.4h2.4L119.4,163.3z"/>
	<path class="st43" d="M125.3,43.4l-18.7-0.9L100,25l-6.6,17.5l-18.7,0.9l14.6,11.7l-4.9,18L100,63l15.7,10.2l-4.9-18L125.3,43.4z"
		/>
	<path class="st44" d="M51.8,121v14.1l-7.7,7.7H14.3V132h2.9v-26.5h-2.9V94.7h29.8l7.7,7.7v12.3l-3.2,3.2L51.8,121z M38.6,107
		l-1.6-1.6h-6.6v7H37l1.6-1.6V107z M38.6,124.8l-1.6-1.6h-6.6v8.7H37l1.6-1.5V124.8z"/>
	<path class="st44" d="M56,102.4l7.7-7.7h21.2l7.7,7.7v32.8l-7.7,7.7H63.7l-7.7-7.7V102.4z M79.4,107l-1.5-1.6h-7.1l-1.6,1.6v23.4
		l1.6,1.5h7.1l1.5-1.5V107z"/>
	<path class="st44" d="M133.4,113.2h-13.2V107l-1.5-1.6h-7.1l-1.6,1.6v23.4l1.6,1.5h7.1l1.5-1.5v-5.8h13.2v10.5l-7.7,7.7h-21.2
		l-7.7-7.7v-32.8l7.7-7.7h21.2l7.7,7.7V113.2z"/>
	<path class="st44" d="M174.6,94.7v10.8h-2.4l10.6,26.5h2.9v10.9h-18.5V132h1.6l-0.7-2.2h-12.8l-0.7,2.2h1.6v10.9h-18.4V132h2.9
		l10.6-26.5H149V94.7H174.6z M158.6,120.6h6.1l-3.1-7.6L158.6,120.6z"/>
</g>
</svg>
