<?xml version="1.0" encoding="utf-8"?>
<!-- Generator: Adobe Illustrator 26.0.3, SVG Export Plug-In . SVG Version: 6.00 Build 0)  -->
<svg version="1.1" id="Capa_1" xmlns="http://www.w3.org/2000/svg" xmlns:xlink="http://www.w3.org/1999/xlink" x="0px" y="0px"
	 viewBox="0 0 200 200" style="enable-background:new 0 0 200 200;" xml:space="preserve">
<style type="text/css">
	.st0{fill:#1D1D1B;}
	.st1{clip-path:url(#SVGID_00000158020423794510034120000015460185875118756253_);}
	.st2{opacity:0.5;enable-background:new    ;}
	.st3{clip-path:url(#SVGID_00000173873186504037626860000011473251078172888765_);}
	.st4{fill:url(#path5348_00000134964328995592190970000011627464506762548374_);}
	.st5{fill:#676767;}
	.st6{fill:#3C3C3C;}
	.st7{fill:#F6F6F6;}
	.st8{fill:#444444;}
	.st9{clip-path:url(#SVGID_00000049204168265527708720000018106643699156918191_);}
	.st10{clip-path:url(#SVGID_00000023999771561184704030000017220863808450160804_);}
	.st11{clip-path:url(#SVGID_00000029766009321962496120000004835996116816659584_);}
	.st12{clip-path:url(#SVGID_00000048486906545693212670000004796399368346877603_);}
	.st13{fill:#808080;}
	.st14{clip-path:url(#SVGID_00000116214064613035865110000000085498492836662155_);fill:none;}
	.st15{clip-path:url(#SVGID_00000116214064613035865110000000085498492836662155_);}
	.st16{clip-path:url(#SVGID_00000124854852897847171110000013438797455017591205_);}
	.st17{fill:#FFFFFF;}
	.st18{fill:#FF5A76;}
	.st19{fill:#454B60;}
	.st20{fill:#CAD2DB;}
	.st21{fill:#5C8EFF;}
	.st22{fill:#DADEEA;}
	.st23{fill:#E7ECF2;}
	.st24{clip-path:url(#SVGID_00000039829355946792487060000005331204892704573330_);}
	.st25{clip-path:url(#SVGID_00000155113507350759186960000002309086926121308588_);}
	.st26{clip-path:url(#SVGID_00000031897040261700688990000000445971354301301376_);}
	.st27{fill:#A8AFC1;}
	.st28{clip-path:url(#SVGID_00000150808610093689115690000012707347423273002645_);}
	.st29{fill:url(#Rectángulo_35_00000132775867021897140270000008748737207438060471_);}
	.st30{clip-path:url(#SVGID_00000046318487381963044660000005390544147641215104_);}
	.st31{fill-rule:evenodd;clip-rule:evenodd;fill:#454B60;}
	.st32{fill:#020302;}
	.st33{clip-path:url(#SVGID_00000029764253091911448120000011717356829028453517_);}
	.st34{clip-path:url(#SVGID_00000054950238800749827190000012714157207845890689_);}
	.st35{clip-path:url(#SVGID_00000039096884876784682280000007664515287391264168_);}
	.st36{opacity:0.5;}
	.st37{clip-path:url(#SVGID_00000006675387628574495380000011377211724186596487_);}
	.st38{clip-path:url(#SVGID_00000088851776097884810410000012416624784283828635_);}
	.st39{clip-path:url(#SVGID_00000093141643350448211350000016489944017534139576_);}
	.st40{clip-path:url(#SVGID_00000000918518091991260280000003113651793612161462_);}
	.st41{clip-path:url(#SVGID_00000138539957641825028100000007586555080520283311_);}
	.st42{clip-path:url(#SVGID_00000168829181931944929340000005204782492250411147_);}
</style>
<g>
	<path class="st8" d="M111.4,85H88.6v-8.2c0-6.5,4.2-11.3,11.5-11.3s11.4,4.8,11.4,11.3V85z M107.3,77c0-3.7-2.3-6.9-7.3-6.9
		s-7.3,3.1-7.3,6.8v3.6h14.6V77z"/>
	<path class="st8" d="M111.4,20.7L95.2,31h16.2v4.5H88.6v-5.5l15.1-9.5H88.6V16h22.9V20.7z"/>
	<path class="st8" d="M88.1,51.1c0-6.2,4.5-11.8,11.9-11.8c7.4,0,11.9,5.5,11.9,11.8c0,6.2-4.5,11.7-11.9,11.7
		C92.6,62.8,88.1,57.3,88.1,51.1z M107.6,51.1c0-3.5-2.5-7.2-7.6-7.2s-7.6,3.6-7.6,7.2c0,3.5,2.5,7.1,7.6,7.1S107.6,54.6,107.6,51.1
		z"/>
	<g>
		<path class="st8" d="M111.4,143.6H102v10h9.5v4.5H88.6v-4.5h9.2v-10h-9.2v-4.5h22.9V143.6z"/>
		<path class="st8" d="M100,184c-7.3,0-11.9-5.5-11.9-11.6c0-6.3,3.9-9.6,7.6-10.5l1.3,4.2c-2.2,0.5-4.6,2.3-4.6,6.3
			c0,3.4,2.5,7,7.6,7c4.9,0,7.6-3.4,7.6-7.1c0-3.9-2.5-5.8-4.7-6.4l1.3-4.2c3.5,0.9,7.8,4.2,7.8,10.6C111.9,178.7,107.3,184,100,184
			z"/>
	</g>
	<path class="st8" d="M106.2,119.8v9.3l5.2,1.9v4.7L88.6,127v-5.2l22.9-8.7v4.8L106.2,119.8z M102.1,127.6v-6.3l-8.6,3.2
		L102.1,127.6z"/>
	<path class="st8" d="M111.4,94.9l-16.2,10.4h16.2v4.5H88.6v-5.5l15.1-9.5H88.6v-4.5h22.9V94.9z"/>
</g>
</svg>
