<?xml version="1.0" encoding="utf-8"?>
<!-- Generator: Adobe Illustrator 26.0.2, SVG Export Plug-In . SVG Version: 6.00 Build 0)  -->
<svg version="1.1" id="Capa_1" xmlns="http://www.w3.org/2000/svg" xmlns:xlink="http://www.w3.org/1999/xlink" x="0px" y="0px"
	 viewBox="0 0 200 200" style="enable-background:new 0 0 200 200;" xml:space="preserve">
<style type="text/css">
	.st0{fill:#1D1D1B;}
	.st1{clip-path:url(#SVGID_00000057144779430784778660000006631652987534219137_);}
	.st2{opacity:0.5;enable-background:new    ;}
	.st3{clip-path:url(#SVGID_00000085226320562194831650000000593133067493387679_);}
	.st4{fill:url(#path5348_00000103944553426565641160000002223080495021680526_);}
	.st5{fill:#676767;}
	.st6{fill:#3C3C3C;}
	.st7{fill:#F6F6F6;}
	.st8{fill:#444444;}
</style>
<g id="Grupo_16">
	<path id="Trazado_122" d="M23.9,81.1H9.8c-0.8,0-1.4,0.6-1.4,1.4v35.1c0,0.8,0.6,1.4,1.4,1.4h14.1c0,0,19.2-0.6,19.2-19.1
		C43.2,100,43.2,81.1,23.9,81.1 M42,100c0,0.6,0,1.2-0.1,1.7l-5.9,5.9c0.8-1.2,1.4-2.6,1.7-4.1l4.2-4.2C42,99.7,42,100,42,100
		 M35.4,93.7c1,1.9,1.5,4.1,1.6,6.3c0,5-2.1,8.6-6.2,10.7c-2,1-4.2,1.6-6.4,1.8h-8.7l3.4-3.4H25c0,0,7.8-0.3,7.8-9
		c0-1.5-0.4-2.9-0.9-4.3l2.9-3.1C35,93,35.2,93.4,35.4,93.7 M19.6,92.3h5.4c2.5-0.1,4.8,1.4,5.8,3.7c0.5,1.3,0.9,2.6,0.9,4
		c0,3.2-1.1,5.4-3.3,6.7c-1,0.6-2.2,1-3.4,1.1h-5.4V92.3z M18.5,101.4l-3.4,3.4v-2.2l3.4-3.4V101.4z M18.5,102.6v2.4l-3.4,3.4V106
		L18.5,102.6z M15.1,109.5l3.4-3.4v2.3l-3.4,3.4V109.5z M41.9,98.2l-3.9,3.9c0.1-0.7,0.1-1.4,0.1-2.1c0,0,0-0.1,0-0.2l3.4-3.4
		C41.7,97.1,41.8,97.7,41.9,98.2 M38.1,98.7c-0.1-0.7-0.2-1.3-0.4-1.9l3.1-3.1c0.2,0.6,0.4,1.2,0.5,1.8L38.1,98.7z M37.5,95.8
		c-0.2-0.6-0.4-1.1-0.6-1.7l3-3c0.3,0.5,0.5,1,0.7,1.6L37.5,95.8z M36.5,93.3c-0.3-0.5-0.5-1-0.9-1.5l2.9-2.9
		c0.3,0.5,0.6,0.9,0.9,1.4L36.5,93.3z M15.1,87.8l1.6,1.6L15.1,91V87.8z M15.1,92.2l2.2-2.2l1.2,1.2l-3.3,3.3L15.1,92.2z M15.1,95.7
		l3.4-3.4v2.3l-3.4,3.4V95.7z M15.1,99.1l3.4-3.4v2.3l-3.4,3.4V99.1z M37.8,110.5l2.7-2.7c-0.5,1.2-1.2,2.3-2,3.3L37.8,110.5z
		 M41.2,106l-3.9,3.9l-1.1-1.1l5.7-5.7C41.7,104,41.5,105,41.2,106L41.2,106z M9.6,82.5c0-0.2,0.1-0.3,0.3-0.3h14.1
		c6.2,0,10.9,2,14.1,6l-2.9,2.9c-2-2.5-5.2-4.6-10.6-4.6h-9.9c-0.3,0-0.6,0.3-0.6,0.6c0,0,0,0,0,0v26.2l-4.4,4.4
		c-0.1-0.1-0.1-0.1-0.1-0.2L9.6,82.5z"/>
	<path id="Trazado_123" d="M66,81.8c-0.2-0.5-0.7-0.9-1.3-0.9H57c-0.6,0-1.1,0.3-1.3,0.9l-14.8,35.3c-0.3,0.7,0,1.5,0.8,1.8
		c0.2,0.1,0.4,0.1,0.6,0.1h9.2c0.7,0,1.3-0.4,1.6-1.1l2.6-6.6h0l0,0h10.3l2.5,6.5c0.3,0.7,0.9,1.1,1.6,1.1h9.4
		c0.8,0,1.4-0.6,1.4-1.4c0-0.2,0-0.4-0.1-0.5L66,81.8z M79.6,117.7C79.6,117.7,79.6,117.8,79.6,117.7l-1.6-0.9l1-0.8l0.6,1.4
		C79.7,117.5,79.7,117.6,79.6,117.7 M52.1,117.2l-0.4-0.3l0.8-0.6L52.1,117.2z M57.4,92.8l1.8-1.3l0.7,1.8l-3.7,2.7L57.4,92.8z
		 M58,91.3l0.6-1.4l0.3,0.8L58,91.3z M60.7,96.5l1.7,4.4H59L60.7,96.5z M55.5,97.5l4.6-3.4l0.2,0.4l-0.9,2.3l-5.1,3.8L55.5,97.5z
		 M53.7,102.2l5.2-3.8l-1.2,3.1l-5.2,3.8L53.7,102.2z M52.7,108.4l-2.1,1.5l1-2.6L52.7,108.4z M50,111.5l3.3-2.4l1.3,1.3l-5.7,4.3
		l-0.1-0.1L50,111.5z M53,114.8l-2,1.5l-1.4-1.2l4.7-3.5L53,114.8z M63.6,87.5l2.6-2.2l0.9,2.1l-2.7,2L63.6,87.5z M67.5,88.3
		l0.6,1.5l-2.7,2.1l-0.7-1.6L67.5,88.3z M68.4,90.6l0.8,1.8l-2.8,2.1l-0.7-1.7L68.4,90.6z M69.5,93.2l0.7,1.6L67.4,97l-0.7-1.6
		L69.5,93.2z M70.5,95.7l0.7,1.7l-2.8,2.1l-0.7-1.7L70.5,95.7z M69.1,100L69.1,100l2.5-1.8l0.7,1.8l-2.9,2.1l-0.7-1.8L69.1,100z
		 M69.8,102.9l2.9-2.1l0.7,1.7l-2.9,2.2L69.8,102.9L69.8,102.9z M70.8,105.5l2.9-2.2l0.7,1.7l-3,2.2L70.8,105.5z M74.8,105.8
		l0.7,1.7l-3,2.2l-0.7-1.7L74.8,105.8z M75.8,108.3l0.7,1.8l-3,2.2l-0.7-1.8L75.8,108.3z M75.5,115.2l2.4-1.8l0.8,1.9l-1.5,1.1
		L75.5,115.2z M74.7,114.7l-0.3-0.2l-0.6-1.4l3-2.3l0.7,1.7L74.7,114.7z M65.9,84.6l-1.8,1.5l1.2-3L65.9,84.6z M42,117.5l14.8-35.3
		c0-0.1,0.1-0.2,0.3-0.2h7.7l0,0l-2,5.2c0,0.1,0,0.1,0,0.2l7.5,18.9H52.5l5.8-4.3h5.8l-5.2-13.4c-0.1-0.2-0.2-0.3-0.4-0.3
		c-0.2,0-0.3,0.1-0.4,0.3L48,114.1l-6,3.7c0,0,0,0,0-0.1C41.9,117.7,41.9,117.6,42,117.5 M67,111l-0.2-0.4l3.7-3.6l2.8,7.1l-3.9,3.2
		L67,111z"/>
	<path id="Trazado_124" d="M190.2,81.1h-10.7c-0.3,0-0.6,0.2-0.7,0.4l-6,10.3l-6.1-10.1c-0.2-0.3-0.6-0.5-1-0.5h-10.9
		c-0.8,0-1.4,0.6-1.4,1.4c0,0.3,0.1,0.5,0.2,0.8l13.1,19.9c0.1,0.1,0.1,0.2,0.1,0.3v14.2c0,0.8,0.6,1.4,1.4,1.4h8.6
		c0.8,0,1.4-0.6,1.4-1.4v-14.5c0-0.1,0-0.2,0.1-0.3l13-19.5c0.4-0.7,0.3-1.5-0.4-2C190.7,81.1,190.4,81.1,190.2,81.1 M185.1,90.6
		l-11.9,11.9v-0.7l2.8-4.3L189.5,84L185.1,90.6z M172.4,97l-1.3,1.3l-1-1.5l2.4-2.4L172.4,97L172.4,97z M172.4,98.2v2.1l-0.9-1.3
		L172.4,98.2z M176,116.6l1.1-1.1v2.3L176,116.6z M177.1,114.3l-1.7,1.7l-1.3-1.3l3.1-3.1L177.1,114.3z M177.1,110.4l-3.7,3.7
		l-0.3-0.3v-2.2l3.9-3.9V110.4z M177.1,106.5l-3.9,3.9v-2.7l3.9-3.9V106.5z M178.2,94.1l4.9-7.6c2.5-1.2,4.2-2.1,5.4-2.7L178.2,94.1
		z M179.7,82.2h10.1c-1.4,0.8-4.9,2.5-7.2,3.6c-0.1,0-0.1,0.1-0.2,0.2l-9.2,14.3v-7l0.6-0.9L179.7,82.2z M172.4,93.2l-2.9,2.8
		l-1-1.5l2.9-2.9l0.4,0.7L172.4,93.2z M163.8,87.7l3.3-3.3l1.1,1.8l-3.2,3.2L163.8,87.7z M168.6,86.9l1,1.6l-3.1,3.1l-1-1.5
		L168.6,86.9z M170,89.3l1,1.6l-3,3l-1-1.5L170,89.3z M166.6,83.7l-3.3,3.3l-0.9-1.3l3.4-3.4L166.6,83.7z M154.8,82.2h9.9l-3.1,3.1
		c-0.1,0.1-0.2,0.4,0,0.5l10.8,16v11.8l-4.4,4.2v-14.4c0-0.3-0.1-0.7-0.3-0.9l-13.1-19.9c-0.1-0.1,0-0.3,0.1-0.4
		C154.7,82.2,154.7,82.2,154.8,82.2 M177.4,102.1c-0.1,0.1-0.1,0.2-0.2,0.4l-4,4v-2.9l9.5-9.5L177.4,102.1z"/>
	<path id="Trazado_125" d="M137.1,81.1H123c-0.8,0-1.4,0.6-1.4,1.4v35.1c0,0.8,0.6,1.4,1.4,1.4h14.1c0,0,19.2-0.6,19.2-19.1
		C156.3,100,156.3,81.1,137.1,81.1 M155.2,100c0,0.6,0,1.2-0.1,1.7l-5.9,5.9c0.8-1.2,1.4-2.6,1.7-4.1l4.2-4.2
		C155.2,99.7,155.2,100,155.2,100 M148.6,93.7c1,1.9,1.5,4.1,1.6,6.3c0,5-2.1,8.6-6.2,10.7c-2,1-4.2,1.6-6.4,1.8h-8.7l3.4-3.4h5.9
		c0,0,7.8-0.3,7.8-9c0-1.5-0.4-2.9-0.9-4.3l2.9-3.1C148.2,93,148.4,93.4,148.6,93.7 M132.8,92.3h5.4c2.5-0.1,4.8,1.4,5.8,3.7
		c0.5,1.3,0.9,2.6,0.9,4c0,3.2-1.1,5.4-3.3,6.7c-1,0.6-2.2,1-3.4,1.1h-5.4V92.3z M131.6,101.4l-3.4,3.4v-2.2l3.4-3.4V101.4z
		 M131.6,102.6v2.4l-3.4,3.4V106L131.6,102.6z M128.3,109.5l3.4-3.4v2.3l-3.4,3.4V109.5z M155,98.2l-3.9,3.9
		c0.1-0.7,0.1-1.4,0.1-2.1c0,0,0-0.1,0-0.2l3.4-3.4C154.9,97.1,155,97.7,155,98.2 M151.2,98.7c-0.1-0.7-0.2-1.3-0.4-1.9l3.1-3.1
		c0.2,0.6,0.4,1.2,0.5,1.8L151.2,98.7z M150.6,95.8c-0.2-0.6-0.4-1.1-0.6-1.7l3-3c0.3,0.5,0.5,1,0.7,1.6L150.6,95.8z M149.6,93.3
		c-0.3-0.5-0.5-1-0.9-1.5l2.9-2.9c0.3,0.5,0.6,0.9,0.9,1.4L149.6,93.3z M128.3,87.8l1.6,1.6l-1.6,1.6V87.8z M128.3,92.2l2.2-2.2
		l1.2,1.2l-3.3,3.3L128.3,92.2z M128.3,95.7l3.4-3.4v2.3l-3.4,3.4V95.7z M128.3,99.1l3.4-3.4v2.3l-3.4,3.4V99.1z M151,110.5l2.7-2.7
		c-0.5,1.2-1.2,2.3-2,3.3L151,110.5z M154.3,106l-3.9,3.9l-1.1-1.1l5.7-5.7C154.9,104,154.6,105,154.3,106L154.3,106z M122.7,82.5
		c0-0.2,0.1-0.3,0.3-0.3l0,0h14.1c6.2,0,10.9,2,14.1,6l-2.9,2.9c-2-2.5-5.2-4.6-10.6-4.6h-9.9c-0.3,0-0.6,0.3-0.6,0.6c0,0,0,0,0,0
		v26.2l-4.4,4.4c-0.1-0.1-0.1-0.1-0.1-0.2L122.7,82.5z"/>
	<path id="Trazado_126" d="M115.8,81.1h-9.3c-0.6,0-1.1,0.5-1.1,1.1v16.3l-0.6-0.9l0,0l0,0L94.3,81.6c-0.2-0.3-0.6-0.5-0.9-0.5H83.2
		c-0.6,0-1.1,0.5-1.1,1.1v35.7c0,0.6,0.5,1.1,1.1,1.1h8.9c0.6,0,1.1-0.5,1.1-1.1c0,0,0,0,0,0v-17.2l11.9,18.1
		c0.1,0.2,0.3,0.3,0.5,0.3h10.2c0.6,0,1.1-0.5,1.1-1.1V82.2C116.9,81.6,116.4,81.1,115.8,81.1C115.8,81.1,115.8,81.1,115.8,81.1
		 M106.5,102.2l-2.8,2.8l-1-1.5l2.8-2.8L106.5,102.2z M107,103l1,1.5l-2.8,2.9l-1-1.5L107,103z M108.4,105.3l0.7,1.8l-2.4,2.4
		l-1-1.5L108.4,105.3z M109.4,108l0.7,1.8l-2,2l-1-1.5L109.4,108z M111.5,98.5l4.3-4.3v2.5l-4.3,4.3V98.5z M110.4,110.7l0.2,0.6v2.3
		l-0.8,0.8l-1.2-1.8L110.4,110.7z M113.4,115.4l2.4-2.4v4.9C115.2,117.3,114.3,116.3,113.4,115.4 M115.8,111.8l-3,3l-1.3-1.3
		l4.3-4.3V111.8z M115.8,108l-4.3,4.3v-2.6l4.3-4.3V108z M115.8,104.2l-4.3,4.3V106l4.3-4.3V104.2z M115.8,100.5l-4.3,4.3v-2.6
		l4.3-4.3V100.5z M115.8,93L115.8,93l-4.3,4.3v-2.9l4.3-4.3L115.8,93z M115.8,88.9l-4.3,4.3V91l4.3-4.3V88.9z M111.5,89.8v-2.8
		c0.4-0.5,2.6-2.6,4.3-4.3v2.7L111.5,89.8z M106.5,82.2h8.6c-4.5,4.4-4.5,4.5-4.5,4.7v21.9l-1.7-4.5c0,0,0-0.1,0-0.1l-2.4-3.6
		L106.5,82.2L106.5,82.2z M104.5,99.1l0.6,0.9l-2.8,2.8l-1-1.5l2.8-2.8L104.5,99.1z M92.1,87.7l-0.2-1.2l2.6-2.6l1,1.5l-2.9,2.9
		L92.1,87.7z M88.2,90.2l3-3l0.4,2.1l-3.4,3.4V90.2z M88.2,89v-2.1h2.1L88.2,89z M92.8,94.8L92.8,94.8l-4.6,4.6v-2.3l4.2-4.1
		L92.8,94.8z M88.6,114l3.6-3.6v2.4l-2.4,2.4L88.6,114z M92.1,105.6l-4,4v-2.2l4-4V105.6z M88.2,110.8l4-4v2.4l-4,4V110.8z
		 M92.1,100.7v1.5l-4,4V104l4-3.9V100.7z M88.2,96v-2.1l3.6-3.6l0.4,1.8L88.2,96z M90.3,115.7l1.8-1.8v3.6L90.3,115.7z M88.2,102.8
		v-2.2l4.6-4.6v2.3L88.2,102.8z M95.9,86.1l0.9,1.3l-2.9,2.8L93,89L95.9,86.1z M97.3,88.2l0.8,1.3l-2.9,2.9L94.3,91L97.3,88.2z
		 M98.6,90.2l0.9,1.3l-2.9,2.9l-0.9-1.3L98.6,90.2z M100,92.3l0.9,1.3l-2.9,2.9l-0.9-1.3L100,92.3z M101.3,94.3l0.9,1.3l-2.9,2.9
		l-0.9-1.3L101.3,94.3z M102.6,96.3l0.9,1.4l-2.8,2.9l-0.9-1.4L102.6,96.3z M85.2,82.2h8.2l0.7,1L91.2,86h-3.4
		c-0.2,0-0.4,0.2-0.4,0.4l0,0v26.9l-4.1,4.1V82.2L85.2,82.2z M94.2,100.1l-0.6-0.9v-4.4c0,0,0-0.1,0-0.1l-1-4.8l4.7,7.1l0,0l0.2,0.2
		l11.7,17.7l-3.1,3h-0.2L94.2,100.1z"/>
</g>
</svg>
