<?xml version="1.0" encoding="utf-8"?>
<!-- Generator: Adobe Illustrator 26.0.1, SVG Export Plug-In . SVG Version: 6.00 Build 0)  -->
<svg version="1.1" id="Capa_1" xmlns="http://www.w3.org/2000/svg" xmlns:xlink="http://www.w3.org/1999/xlink" x="0px" y="0px"
	 viewBox="0 0 19.07 19.07" style="enable-background:new 0 0 19.07 19.07;" xml:space="preserve">
<style type="text/css">
	.st0{fill:#231E21;}
	.st1{fill:#010202;}
</style>
<g id="Grupo_14">
	<g id="Grupo_9">
		<g id="Grupo_8">
			<path id="Trazado_11" class="st1" d="M13.84,0H5.23C2.34,0,0,2.34,0,5.23v8.61c0,2.89,2.34,5.23,5.23,5.23h8.61
				c2.89,0,5.23-2.34,5.23-5.23V5.23C19.07,2.34,16.73,0,13.84,0z M17.94,13.84c0,2.26-1.84,4.1-4.1,4.1H5.23
				c-2.26,0-4.1-1.84-4.1-4.1V5.23c0-2.26,1.84-4.1,4.1-4.1h8.61c2.26,0,4.1,1.84,4.1,4.1L17.94,13.84z"/>
		</g>
	</g>
	<g id="Grupo_11">
		<g id="Grupo_10">
			<path id="Trazado_12" class="st1" d="M9.54,4.31C6.65,4.3,4.3,6.65,4.3,9.54c0,2.89,2.34,5.23,5.23,5.23
				c2.89,0,5.23-2.34,5.23-5.23c0,0,0,0,0,0C14.76,6.65,12.42,4.31,9.54,4.31z M9.54,13.64c-2.26,0-4.1-1.84-4.1-4.1
				s1.84-4.1,4.1-4.1c2.26,0,4.1,1.84,4.1,4.1l0,0C13.63,11.8,11.8,13.64,9.54,13.64z"/>
		</g>
	</g>
	<g id="Grupo_13">
		<g id="Grupo_12">
			<path id="Trazado_13" class="st1" d="M15.08,2.4c-0.88,0-1.59,0.71-1.59,1.59s0.71,1.59,1.59,1.59s1.59-0.71,1.59-1.59
				c0,0,0,0,0,0C16.67,3.12,15.96,2.4,15.08,2.4z M15.08,4.46c-0.26,0-0.46-0.21-0.47-0.46c0-0.26,0.21-0.46,0.46-0.47
				c0.26,0,0.46,0.21,0.47,0.46c0,0,0,0,0,0C15.54,4.25,15.33,4.45,15.08,4.46L15.08,4.46z"/>
		</g>
	</g>
</g>
</svg>
