<?xml version="1.0" encoding="utf-8"?>
<!-- Generator: Adobe Illustrator 26.0.2, SVG Export Plug-In . SVG Version: 6.00 Build 0)  -->
<svg version="1.1" id="Capa_1" xmlns="http://www.w3.org/2000/svg" xmlns:xlink="http://www.w3.org/1999/xlink" x="0px" y="0px"
	 viewBox="0 0 200 200" style="enable-background:new 0 0 200 200;" xml:space="preserve">
<style type="text/css">
	.st0{fill:#1D1D1B;}
	.st1{clip-path:url(#SVGID_00000112621535651780131880000005485584971605823673_);}
	.st2{opacity:0.5;enable-background:new    ;}
	.st3{clip-path:url(#SVGID_00000088095860128669648550000008042393042893000579_);}
	.st4{fill:url(#path5348_00000094581694421202462200000006420639478385905058_);}
	.st5{fill:#676767;}
	.st6{fill:#3C3C3C;}
	.st7{fill:#F6F6F6;}
	.st8{fill:#444444;}
</style>
<g id="Grupo_15">
	<g id="Grupo_14">
		<path id="Trazado_99" class="st8" d="M179.3,76.1c-1.8-0.5-3.7,0.6-4.2,2.4c0,0,0,0.1,0,0.1c-0.9,2.6-1.6,5.3-2.5,8
			c-1,3.7-2.3,7.3-4,10.8c-0.3,0.7-1,1.4-1.6,1.2c-0.7-0.2-0.7-1.1-0.6-1.9c0.2-1,0.2-2.1,0.4-3.1c1-4.2,2.1-8.3,3.1-12.5
			c0.3-1.2,0.8-2.4-0.4-3.3c-1.4-1-2.7-0.3-3.9,0.4c-0.9,0.6-1.6,1.5-1.8,2.5c-0.8,3.2-2.2,6.3-2.3,9.6c-0.1,2.7-0.6,5.5,0.5,8.3
			c0.6,1.5-0.7,2.4-1.6,3.4c-0.8,0.9-1.8,0.5-2.8,0c-2.5-1.4-4-3.6-5.5-5.9c-0.7-1-0.5-1.2,0.6-1.8c3.9-1.8,7.2-4.2,8.1-8.7
			c0.4-2.1,0.4-4.2-1.2-5.8c-1.1-1.1-4.1-0.7-6,0.6c-1,0.7-1.8,1.5-2.8,2.3c-0.2-0.7-0.2-1.5,0.2-2.2c0.6-2,1.2-4.1,1.8-6.1
			c0.4-1.3,0.7-2.8,1.7-3.8c1.6-1.5,0.5-2.3-0.8-2.9c-1.6-0.8-3-0.4-4.1,0.9c-1.1,1.2-2,2.7-2.5,4.3c-1.6,5.8-2.8,11.7-3.7,17.6
			c-0.6,4.8-3.1,8.3-6.8,11.2c-1.1,0.9-2.5,1.1-3.8,0.5c-1.2-0.6-1.5-1.9-1.5-3.3c0-2.5,1.3-4.7,1.9-7.1c0.7-2.7,2.6-4.6,4.5-6.4
			c0.2-0.2,0.5-0.5,0.8-0.4c0.5,0.2,0.4,0.7,0.3,1c-0.2,0.9-0.6,1.8-0.7,2.7c-0.1,0.8-0.1,1.7,1.2,1.4c1.7-0.4,3.2-3.6,2.7-5.7
			c-0.5-2-2.5-3.2-4.5-2.7c-0.9,0.2-1.8,0.5-2.6,0.9c-5.4,2.3-7.4,7-8.4,12.3c-0.6,3-1.1,6-3.3,8.4c-0.3,0.4-0.6,0.8-1.1,0.7
			c-0.6-0.2-0.5-0.7-0.5-1.2c0-0.5,0-1.1,0-1.6c1-5,2-10,3.9-14.8c0.6-1.5,0-2.1-1.1-2.6c-0.8-0.4-1.8-0.4-2.6,0
			c-3.5,1.6-4.6,4.9-5.3,8.2c-0.9,3.8-2.1,7.5-3.8,11.1c-0.4,0.8-0.9,1.5-1.5,2.1c-1,0.9-1.4,0.4-1.6-0.6c-0.1-0.5-0.1-0.9,0-1.4
			c1.7-5,2-10.3,4.1-15.1c0.5-1.1,0.1-1.6-0.7-2.1c-1.6-1-3.7-0.3-5.2,1.6c-2.4,3.1-2.7,6.9-2.8,10.6c-0.1,3.7-1.6,6.5-3.6,9.2
			c-0.3,0.6-1,0.9-1.7,0.8c-0.7-0.1-0.8-0.8-1-1.3c-0.8-2.2,0-4.3,0.3-6.5c0.7-5.4,2.7-10.5,4.2-15.7c0.2-0.1,0.3-0.3,0.4-0.2
			c0.2,0.2,0.1,0.4,0,0.6c0,0.9,0.2,1.7,1.3,1.8c-0.7-3.4-0.7-3.5,3-3.4c5.5,0.1,10.9-1.6,15.3-4.8c2.2-1.5,3.1-4.6,1.9-6.5
			c-0.4-0.6-0.8-1.1-1.6-1c-0.9,0.1-0.7,0.8-0.8,1.4c-0.3,1.2-1.1,2.2-2.3,2.6c-1.5,0.6-2.9,1.4-4.4,1.9c-3.1,1-6.1,2.3-9.5,2.1
			c-1.3-0.1-1.7-0.5-1.1-1.7c0.6-0.8,0.4-1.9-0.3-2.5c-0.8-0.7-1.6-1.2-2.9-0.8c-2.2,0.7-3.2,2.5-3.8,4.3c-0.6,1.7-1.6,2.1-3,1.8
			c-2.4-0.6-4.9-0.4-7.4-0.3c-2.6,0-5,1.4-6.3,3.6c-0.3,0.5-0.6,1.1,0,1.6c0.5,0.5,1,0.1,1.4-0.2c1-0.8,2.2-1.3,3.5-1.4
			c2.9-0.1,5.9,0,8.8,0c1,0,1.3,0.5,1,1.4c-1.1,3.1-1.4,6.4-2,9.6c-0.8,4.9-2.5,9.7-0.5,14.8c0.5,1.3-0.8,2.3-2.1,2.7
			c-1.2,0.4-1.9-0.1-2.4-1.3c-0.8-2.3-0.9-4.9-0.4-7.3c0.6-3.4,1.5-6.9,2.4-10.2c0.6-2.2-0.1-3.5-1.9-4.2c-2.7-1-4.1-0.6-5.3,1.5
			c-1.2,2.3-2.3,4.7-3.1,7.1c-0.8,2.2-1.6,4.4-2.6,7c-0.1-0.3-0.2-0.7-0.2-1c0.7-3.9,1.8-7.7,3.5-11.3c0.5-0.9,0.9-1.9,0-2.7
			c-1.3-1-3.9-0.7-4.9,0.7c-1.3,1.8-2.2,3.8-2.7,5.9c-0.8,4-0.9,8.3-4.4,11.4c-1.9,1.7-3.5,3.9-6.2,4.4c-1.5,0.3-2.8,0.1-3.5-1.5
			c-0.7-1.8-0.3-5.3,0.8-5.8c0.4-0.1,0.8-0.2,1.2-0.2c5.2-0.3,9.6-5.5,9-10.7c0-1.4-1.2-2.5-2.6-2.5c0,0,0,0,0,0
			c-2.4-0.2-4.9,0.6-6.6,2.3c-4.8,4.5-8.1,9.8-7.3,16.8c0.3,2.5,3.1,5.8,5.2,5.6c3.8-0.4,7.6-1.2,10.4-4.1c1.7-1.7,3-2.7,5.4-1.3
			c1.1,0.7,2.7,0.7,3.5-1.1c1.2-2.6,2.3-5.2,3.2-7.9c0.6-1.5,1.3-3,2-4.5c0.2,0.1,0.3,0.1,0.5,0.2c-0.4,2.1-0.8,4.2-1.4,6.3
			c-0.7,3.2-0.3,6.6,1.1,9.5c1.2,2.7,3.4,3.5,6.3,2.6c2.1-0.6,3.8-1.7,4.7-3.7c0.3-0.9,1.1-1.4,2-1.2c2.3,0.3,4.6-0.7,6-2.6
			c0.9-1.2,1.4-0.7,2.1,0.2c0.2,0.8,0.9,1,1.6,1.2h0c0,0,0,0,0,0c3.4,0.6,5.3-1.4,6.9-3.9c1.4-2.1,1.4-2.1,2.5,0
			c1.4,2.5,3.1,3,5.6,1.6c1.1-0.7,2.1-1.6,2.9-2.7c0.8-0.8,1.3-0.9,2,0c0.8,0.9,1.8,1.6,3,1.9c2.8,0.9,5-0.6,7.5-1.3
			c0.3-0.1,0.7-0.2,1-0.3c0.4-0.2,0.8-0.5,1-0.9c0.2-0.2,0.3-0.5,0.4-0.8c0.1-0.9,0.6-1.8,1.5-2.2c0,0.6,0.1,1.3,0.2,1.9
			c0.4,1.3,2,1.9,3.7,1.4c1.2-0.3,1.4-1.1,1.1-2.3c-0.3-1.4-0.3-2.9,0.2-4.2c1.3,1.9,2.7,3.7,4.2,5.4c3.9,4,9.5,4,12.3-0.9
			c0.4-0.6,0.8-1.3,1.7-0.9c1.9,0.8,3.1-0.3,4.4-1.5c0.7-0.7,0.9-1.7,1.9-2.3c0.2,1.3,0.1,2.7-0.3,4c-1,3.2-1.2,6.6-2.4,9.8
			c-0.8,2.2-2.1,4-4.4,4.8c-1.1,0.4-2.3,0.1-2.7-1c-0.4-1.1-0.3-2.5,1-3.2c1-0.5,2.1,0,3.2-0.1c1.2-0.1,1.7-0.3,1.7-1.4
			c0-1.2,0-2.5-1.6-2.8c-3.1-0.7-6,1.3-6.8,4.7c-0.6,2.8,1.4,6.1,4.2,6.8c1.6,0.4,3.3,0,4.6-1c3.8-2.7,5.4-6.7,6.8-10.9
			c0.8-0.5,0.6-1.3,0.8-2c1.7-3.7,2.6-7.7,2.7-11.7c0.2-5,1.6-9.6,2.5-14.4C181.4,77.4,181,76.5,179.3,76.1z M63.6,99.9
			c1.8-0.7,1.4-3,3-3.8c0.6-0.3,0.9-1.6,1.9-0.9c0.9,0.7,0.1,1.5-0.3,2.1c-0.9,1.7-1.9,3.3-3.8,3.9c-0.5,0-0.9,0-1-0.4
			C63.3,100.5,63.4,100,63.6,99.9z M151.1,92.3c-0.8,0.3-1.9,1.5-2.6,0.6c-0.5-0.6,0.1-1.9,0.5-2.8c1-2.3,2.5-4.2,4.4-5.8
			c0.7-0.7,1.7-0.9,2.6-0.5c0.8,0.3,0.6,1.1,0.6,2.1C156,88.9,153.9,91.3,151.1,92.3L151.1,92.3z"/>
		<path id="Trazado_100" class="st8" d="M17.9,103.2c-0.1-5.4,2.2-9.5,4.7-13.6c1.6-2.6,3.6-5,5.8-7c2.5-2.3,6-3.4,9.4-2.8
			c2.6,0.4,4.8,3.6,4.9,7c0.1,4-0.9,7.9-1.7,11.7c-0.2,0.7-0.8,1.7,0.5,1.9c1.2,0.2,2.3,1.9,3.6,0.4c4.6-5.1,7.4-11.4,8.1-18.2
			c0.2-2.5,0.3-5.2,3.3-6.2c1.2-0.4,2.3-0.6,3.4,0.2s0.9,2,0.8,3.1c-0.6,6.9-4.1,12.7-7.3,18.5c-1,1.9-2.7,3.3-4.3,4.7
			c-1.7,1.5-2.1,3-0.8,4.7c1.8,2.4,3.5,5,5.8,7c3.3,2.9,5.7,6.6,9.4,9.1c3.7,2.5,7.5,2.9,11.6,2c1.4-0.2,2.4-1.3,2.5-2.7
			c0.1-1.1,0.6-2.2,2-1.9c1.4,0.3,1.2,1.4,0.9,2.5c-1,4.5-4.1,8.1-8.3,8.3c-3.4,0.2-6.7-0.9-9.8-2.3c-5.1-2.4-9.4-6.2-12.5-10.9
			c-1.7-2.5-3.7-4.8-4.6-7.8c-0.6-2-3.2-3.3-4.9-3.1c-1.5,0.2-2.8,1.4-2.9,2.9c-0.5,3.7-1.1,7.5-2.8,10.9c-0.8,1.6-1.2,3.5-3,4.6
			c-2.2,1.3-4.8-0.4-5.1-3.2c-0.3-2.5,0.9-4.4,1.9-6.5c2.9-5.9,4.3-12.2,5.7-18.6c0.7-3.2,1.4-6.3,2.2-9.5c0.2-0.8,0.2-1.6,0.3-2.4
			c0.3-3.9-2-4.1-4.8-2.7c-2.6,1.3-4.1,3.7-5.1,6.2c-1.9,4.5-3.4,9.2-3.2,14.2c0.1,2.4,0.6,2.9,3.1,3.4c0.4,0,0.8,0.3,0.8,0.7
			c0.1,0.6-0.3,1-0.7,1.3c-2.3,1.6-5.4,1.2-7.2-0.9C18.3,106.8,17.9,105.6,17.9,103.2z"/>
		<path id="Trazado_101" class="st8" d="M106.1,108.4l1.6,1.2c-0.6,0.4-1.4,0.3-1.9,1c-0.8,1.1-1.3,0.1-1.6-0.3
			c-0.7-0.9,0.5-0.6,0.7-0.9C105.3,109.1,105.7,108.7,106.1,108.4z"/>
		<path id="Trazado_102" class="st8" d="M155.1,94.2c0,1.1-0.1,2.1-1,2.9C152.8,94.9,152.9,94.7,155.1,94.2z"/>
		<path id="Trazado_103" class="st8" d="M180.8,90.8c0.2-1.9,0.6-3.7,1.3-5.4C182.2,86.4,181.6,89.5,180.8,90.8z"/>
		<path id="Trazado_104" class="st8" d="M141,104c0.1,0.3,0.9,0.5,0.4,0.9c-0.8,0.6-1.7,1.3-2.8,1c0,0-0.1-0.1-0.1-0.2
			c0-0.1,0.1-0.1,0.1-0.2C139.3,104.9,139.6,103.7,141,104z"/>
		<path id="Trazado_105" class="st8" d="M133.8,97.6c0,0.7,0,1.3,0.1,1.8c0.1,0.5,0.6,1.1-0.3,1.2c-0.5,0.1-0.8-0.7-0.8-1.2
			C132.8,98.7,133.1,98,133.8,97.6z"/>
		<path id="Trazado_106" class="st8" d="M72.8,91c-1.6-1.4-1.6-1.6-0.4-3.1c0.4,0.5-0.1,1,0.1,1.5C72.6,89.7,72.6,90.2,72.8,91z"/>
		<path id="Trazado_107" class="st8" d="M114.9,109.7c-1.3,0.9-3,1.2-4.5,1C111.8,110.1,113.3,109.8,114.9,109.7z"/>
		<path id="Trazado_108" class="st8" d="M46.9,96c-0.1,1.1-0.8,1.8-1.7,3C45.5,97.4,46.3,96.8,46.9,96z"/>
		<path id="Trazado_109" class="st8" d="M141,104c-1.1,0-1.5,1.2-2.4,1.6l-0.4-0.4l2.4-2L141,104z"/>
		<path id="Trazado_110" class="st8" d="M175.1,107.2c0.1-0.7,0.4-1.4,0.8-2C176.1,106.1,177.2,107.3,175.1,107.2z"/>
		<path id="Trazado_111" class="st8" d="M74.7,124c-1.1,0.9-2.1,0.6-3.4,0.8C72.4,123.8,73.4,124,74.7,124z"/>
		<path id="Trazado_112" class="st8" d="M153.9,77.3c-0.2-1.3-0.3-2.1,0.5-2.8C154.9,75.4,154.4,76.1,153.9,77.3z"/>
		<path id="Trazado_113" class="st8" d="M52.2,81.5c0.4,1-0.1,1.8-0.4,2.5C51.5,83.2,51.6,82.2,52.2,81.5z"/>
		<path id="Trazado_114" class="st8" d="M25.3,104c0.5-0.4,0.9-0.6,1.3-0.4c0.1,0,0.1,0.4,0,0.5C26.2,104.6,25.9,104.4,25.3,104z"/>
		<path id="Trazado_115" class="st8" d="M86,78.4c0.8-0.3,1.6-0.3,2.4,0H86z"/>
		<path id="Trazado_116" class="st8" d="M143.4,106.2c0.2,0.7,0,1.2-0.9,1.9L143.4,106.2z"/>
		<path id="Trazado_117" class="st8" d="M63.2,110.8c-0.1,0-0.4-0.1-0.4-0.2c0-0.3,0.2-0.5,0.5-0.5c0.3-0.1,0.6,0,0.6,0.3
			C63.8,110.8,63.5,110.8,63.2,110.8z"/>
		<path id="Trazado_118" class="st8" d="M103.3,84.5c0.2-0.4,0.3-0.8,0.9-1.1c0.1,0.5,0,1.1-0.5,1.5L103.3,84.5z"/>
		<path id="Trazado_119" class="st8" d="M74.7,132.4c-0.1,0.1-0.2,0.3-0.4,0.3c-0.2,0.1-0.5,0-0.6-0.3c0,0,0,0,0-0.1
			c0-0.1-0.3-0.4,0.1-0.4C74.2,132,74.5,131.9,74.7,132.4z"/>
		<path id="Trazado_120" class="st8" d="M113.7,76.7c0.4-0.3,1-0.3,1.4,0C114.6,77,114.1,77,113.7,76.7z"/>
		<path id="Trazado_121" class="st8" d="M52.6,78.7c-0.3-0.4-0.3-1,0-1.4C52.9,77.7,52.9,78.1,52.6,78.7z"/>
	</g>
</g>
</svg>
