<?xml version="1.0" encoding="utf-8"?>
<!-- Generator: Adobe Illustrator 26.0.2, SVG Export Plug-In . SVG Version: 6.00 Build 0)  -->
<svg version="1.1" id="Capa_1" xmlns="http://www.w3.org/2000/svg" xmlns:xlink="http://www.w3.org/1999/xlink" x="0px" y="0px"
	 viewBox="0 0 338.9 63.4" style="enable-background:new 0 0 338.9 63.4;" xml:space="preserve">
<style type="text/css">
	.st0{fill:#1D1D1B;}
</style>
<g>
	<path class="st0" d="M224.9,55.5c0.1-0.1,0.1-0.2,0.1-0.3l0-22.9c0-0.2-0.2-0.4-0.4-0.4l-11.7,0c-0.1,0-0.2,0-0.3,0.1
		c-0.1,0.1-0.1,0.2-0.1,0.3l-3,6.2c0,0.2-0.1,0.5,0.1,0.5l8.1,0v12.3l-0.4,0.2c-1.9,0.9-3.8,1.7-5.6,2.4c-2,0.7-4.1,1.1-6.2,1.1
		c-3,0-5.8-0.6-8.5-1.8c-2.7-1.2-5-2.9-7-5c-2-2.1-3.6-4.6-4.8-7.4c-1.2-2.8-1.8-5.8-1.8-9.1c0-2,0.3-3.9,0.8-5.8
		c0.5-1.9,1.3-3.7,2.2-5.5c1-1.7,2.1-3.3,3.5-4.8c1.4-1.4,2.9-2.7,4.6-3.8c1.7-1.1,3.5-1.9,5.5-2.5c2-0.6,4.1-0.9,6.3-0.9
		c2.4,0,4.8,0.4,6.9,1.2c2.2,0.8,4.3,1.9,6.1,3.3c0.5,0.4,1.3,1,1.3,1c0.2,0.1,0.4,0.1,0.6-0.1l2.8-6.1c0.1-0.2,0.1-0.4-0.1-0.6
		c-0.1-0.1-0.9-1-2.3-1.9c-0.7-0.5-1.5-1-2.4-1.4c-0.9-0.4-1.6-0.8-2.2-1.1c-1.8-0.8-3.6-1.3-5.5-1.7c-1.8-0.4-3.8-0.6-5.7-0.6
		c-2.7,0-5.4,0.4-7.9,1.1c-2.5,0.7-4.9,1.8-7.1,3.1c-2.2,1.3-4.2,3-6,4.9c-1.8,1.9-3.4,4-4.6,6.3c-1.3,2.3-2.3,4.8-3,7.4
		c-0.7,2.6-1.1,5.4-1.1,8.2c0,2.9,0.4,5.6,1.1,8.3c0.7,2.6,1.7,5.1,3,7.4c1.3,2.3,2.9,4.4,4.6,6.3c1.8,1.9,3.8,3.5,6,4.9
		c2.2,1.4,4.6,2.4,7.1,3.1c2.5,0.7,5.2,1.1,7.9,1.1c3.4,0,6.7-0.5,9.6-1.5c2.9-1,5.7-2.5,8.2-4.4C223.7,56.5,224.9,55.5,224.9,55.5"
		/>
	<path class="st0" d="M97.6,55.1l2.6,5.8c0.1,0.1,0.2,0.2,0.3,0.2h7.9c0.1,0,0.2-0.1,0.3-0.2c0.1-0.1,0.1-0.3,0-0.4L80.5,2.2
		C80.4,2,80,2,79.8,2.2L51.5,60.5c-0.1,0.1-0.1,0.3,0,0.4c0.1,0.1,0.2,0.2,0.3,0.2h7.7c0.1,0,0.3-0.1,0.3-0.2l20.3-41.8L97.6,55.1z"
		/>
	<path class="st0" d="M165.3,27.2c2.4-5.8,1-11,0.1-13.2c-0.8-2.3-2.1-4.2-3.6-5.9c-1.5-1.7-3.6-3.1-5.6-4.1c-2-1-5.2-2.1-9.2-2.1
		h-29.9c-0.1,0-0.2,0.1-0.3,0.2c-0.1,0.1-0.1,0.3,0,0.4L131,31.7l-12.7-0.1c-0.2,0-0.4,0.2-0.4,0.4l0,28.9c0,0.1,0,0.2,0.1,0.3
		c0.1,0.1,0.2,0.1,0.3,0.1h6.6c0.2,0-0.2-0.2,0.4-0.4V39h9.4l10.6,22.3c0.1,0.1,0.2,0.2,0.3,0.2h7.6c0.1,0,0.2-0.1,0.3-0.2
		c0.1-0.1,0.1-0.3,0-0.4L142.8,39l4.4,0.2C150.2,39.2,161,37.6,165.3,27.2 M156.3,28.2c-1,0.9-2.7,3.5-7.5,3.5c-4,0-9.5-0.1-9.5-0.1
		L128.4,9.4l1.2,0c3.4,0,7.5,0.1,8.8,0.1h11.1c1.3,0,2.9,0.6,4.1,1.3c1.2,0.6,2.2,1.5,3.1,2.6c0.9,1.1,1.6,2.3,2.1,3.6
		c0.5,1.4,0.8,2.8,0.8,4.2C159.4,22.6,158.2,26.5,156.3,28.2"/>
	<path class="st0" d="M57.8,2.1c-0.1-0.1-0.2-0.2-0.3-0.2h-7.7c-0.1,0-0.3,0.1-0.3,0.2L28.9,44.5l-17.5-36L8.5,2.1
		C8.5,2,8.4,1.9,8.2,1.9H0.4C0.2,1.9,0.1,2,0.1,2.1C0,2.2,0,2.3,0,2.5l28.5,58.8c0.1,0.3,0.5,0.3,0.6,0L57.8,2.5
		C57.9,2.4,57.9,2.2,57.8,2.1"/>
	<path class="st0" d="M260,2.2c-0.1-0.3-0.5-0.3-0.6,0L231,60.5c-0.1,0.1-0.1,0.3,0,0.4c0.1,0.1,0.2,0.2,0.3,0.2h7.7
		c0.1,0,0.3-0.1,0.3-0.2l20.3-41.8l17.5,36l2.6,5.8c0.1,0.1,0.2,0.2,0.3,0.2h7.9c0.1,0,0.2-0.1,0.3-0.2c0.1-0.1,0.1-0.3,0-0.4
		L260,2.2z"/>
	<path class="st0" d="M325.5,28.7l-0.5-0.1l-13.4-3.4l0,0c-7-1.8-8.3-5.5-8.1-8.3c0.3-4.2,3-7.1,7.8-8.5l0.4-0.1
		c0.8-0.3,1.6-0.5,2.4-0.7c1.8-0.4,3.7-0.5,5.7-0.3c2.2,0.2,4.2,0.7,6.2,1.6c1.9,0.9,3.7,2.1,5.3,3.5c0.4,0.4,1,0.8,1,0.8
		c0.1,0.1,0.3,0.1,0.4-0.1l2.8-5.5c0.1-0.1,0.1-0.3,0-0.4c-0.1-0.1-0.4-0.6-1.6-1.5c-0.6-0.5-1.3-1-2.1-1.5
		c-0.8-0.5-1.4-0.9-1.9-1.1c-1.5-0.8-3.1-1.5-4.7-2c-1.3-0.4-2.8-0.7-4.3-0.9l-1.9-0.2l0.1-0.1c-14.8-0.9-22.3,7.8-22.9,16.2
		c-0.4,4.6,1.2,8.6,4.6,11.7c1.9,1.7,4.4,3.1,7.4,4.1l0.8,0.3l0,0l13.9,4.1l0,0c7.2,1.9,8.5,5.8,8.3,8.8c-0.3,4.4-3.1,7.6-8,9
		l-0.4,0.1c-0.8,0.3-1.6,0.5-2.5,0.7c-1.9,0.4-3.8,0.5-5.8,0.3c-2.2-0.2-4.4-0.8-6.3-1.7c-2-1-3.8-2.2-5.4-3.8
		c-0.4-0.4-1.4-1.3-1.4-1.3c-0.1-0.1-0.2-0.1-0.2-0.1c-0.1,0-0.2,0.1-0.2,0.1l-2.8,5.8c-0.1,0.2-0.1,0.4,0,0.6
		c0.1,0.1,0.9,1.1,2.1,2.1c0.6,0.5,1.4,1.1,2.1,1.6c0.8,0.5,1.4,0.9,2,1.2c1.6,0.9,3.2,1.6,4.9,2.1c1.4,0.4,2.9,0.8,4.4,1l1.9,0.2
		l-0.1,0.1c15.3,1,23-8.3,23.7-17.4c0.4-4.9-1.3-9.2-4.7-12.5C331.9,31.4,329,29.8,325.5,28.7"/>
</g>
</svg>
