<?xml version="1.0" encoding="utf-8"?>
<!-- Generator: Adobe Illustrator 26.0.2, SVG Export Plug-In . SVG Version: 6.00 Build 0)  -->
<svg version="1.1" id="Capa_1" xmlns="http://www.w3.org/2000/svg" xmlns:xlink="http://www.w3.org/1999/xlink" x="0px" y="0px"
	 viewBox="0 0 200 200" style="enable-background:new 0 0 200 200;" xml:space="preserve">
<style type="text/css">
	.st0{fill:#1D1D1B;}
	.st1{clip-path:url(#SVGID_00000170250598668082456780000002997636604098491015_);}
	.st2{opacity:0.5;enable-background:new    ;}
	.st3{clip-path:url(#SVGID_00000174587562322143977640000005951180338714041763_);}
	.st4{fill:url(#path5348_00000149352084193170228290000001784632312123717033_);}
	.st5{fill:#676767;}
	.st6{fill:#3C3C3C;}
	.st7{fill:#F6F6F6;}
	.st8{fill:#444444;}
</style>
<g id="Grupo_11">
	<path id="Trazado_7" d="M180.1,68.8v0.9c0.8,0,1.6,0.2,2.4,0.6c0.6,0.3,1,1.2,1.2,2.6c0.3,2.1,0.4,4.3,0.3,6.4v10.2l-15.4-20.7h-7
		v0.9c0.9-0.1,1.8,0.1,2.5,0.7c0.6,0.4,0.8,1.2,0.8,2.5l-0.2,18.8c-0.2,1.3-0.4,2.2-1.1,2.6c-0.8,0.5-1.7,0.6-2.6,0.4v1.1l2.9-0.2
		c0.6-0.1,1.2-0.3,1.7-0.6c0.5,0.3,1,0.5,1.6,0.6l3,0.2v-1.1c-1.2,0.1-2,0-2.5-0.4c-0.6-0.3-1-1.2-1.1-2.6c-0.3-2.3-0.4-4.6-0.2-6.9
		V72l18.2,24.6h1V79.2c0-2.7,0.1-4.7,0.2-6.2c0.2-1.3,0.6-2.2,1.1-2.7c0.8-0.5,1.7-0.7,2.6-0.7v-0.9l-1.6-0.1l-3,0.6l-2.1-0.4
		l-1.8-0.1L180.1,68.8z"/>
	<path id="Trazado_8" class="st5" d="M170.4,68.5h-0.9l14.3,19.1v-1.1L170.4,68.5z"/>
	<path id="Trazado_9" class="st5" d="M168.1,75.1l-0.8-1.1l0.2,18c0.2,1.1,0.6,1.9,1.1,2.1c0.8,0.4,1.6,0.6,2.5,0.6v1.1h0.9v-1.1
		c-0.9,0.1-1.8-0.1-2.6-0.4c-0.6-0.3-0.9-1.2-1.1-2.6c-0.1-1.5-0.2-3.7-0.2-6.9L168.1,75.1z"/>
	<path id="Trazado_10" class="st5" d="M190.4,68.7v1c-0.9-0.1-1.9,0.2-2.6,0.8c-0.6,0.4-0.9,1.3-1,2.7c-0.3,2-0.4,4-0.3,6.1v17.4
		h0.9V79.2c-0.1-2.1,0-4.1,0.2-6.2c0.2-1.3,0.4-2.2,1-2.7c0.8-0.5,1.7-0.7,2.6-0.7v-1H190.4z"/>
	<path id="Trazado_11" class="st5" d="M137.4,51.6l0.1,0.3l-2.2,5.4l-0.6,0.9l-0.8,0.2v0.2h2.9v-0.2h-0.1c-0.8,0-1.1-0.1-1.1-0.3
		l0.2-0.8l0.8-1.7h2.6l0.9,1.9l0.1,0.6c0,0.2-0.2,0.3-1,0.3h-0.3v0.2h3.6v-0.2l-0.8-0.1l-0.4-0.6l-2.7-6.2L137.4,51.6z M139.1,55.1
		h-2.2l1-2.5L139.1,55.1z"/>
	<path id="Trazado_12" class="st5" d="M125.7,52l-0.8-0.2l-1.6-0.2c-1.3,0-2.5,0.4-3.5,1.2c-0.6,0.7-1,1.6-1,2.6
		c0,0.9,0.4,1.7,1,2.2c0.8,0.8,1.9,1.2,3,1.1l1.5-0.1l1.9-0.6v-1.5c0-0.4,0.3-0.7,0.9-0.8v-0.1h-3.4v0.1h0.4c0.8,0,1,0.2,0.9,0.9
		v1.3l-1.8,0.4c-1.8,0-3.4-1.5-3.4-3.3c0-0.9,0.3-1.7,0.9-2.3c0.6-0.7,1.5-1.1,2.5-1l1.7,0.3c0.5,0.4,0.8,0.9,1,1.5h0.2v-1.8h-0.1
		L125.7,52z"/>
	<path id="Trazado_13" class="st5" d="M118.5,69.9h-0.8v21.5c0,2.1,1,3.3,3.3,3.3v1.1h0.8v-1.1c-2.1,0-3.3-1.1-3.3-3.3V69.9z"/>
	<path id="Trazado_14" d="M116.8,69.7h1.1c4.3,0,6.5,2,6.5,6.1h1.5l-0.2-4c0-0.7-0.3-1.4-0.7-2l0.3-0.7l0.1-0.3h-21.2l0.1,0.3
		l0.3,0.7c-0.3,0.6-0.5,1.3-0.6,2l-0.2,4h1.5c0.1-4,2.1-6.1,6.1-6.1h1.5v21.7c0.1,0.9-0.1,1.8-0.7,2.6c-0.7,0.5-1.6,0.8-2.5,0.7v1.1
		l3.9-0.4l1.2-0.6c0,0.1,0.2,0.2,1,0.6l4,0.4v-1.1c-2.1,0-3.1-1.1-3.1-3.3V69.7z"/>
	<path id="Trazado_15" class="st5" d="M126.4,68.7l-0.1,0.3l-0.3,0.7l0.8,2l0.2,4h0.8l-0.2-4c-0.2-0.9-0.3-1.7-0.8-2l0.5-0.7
		l0.1-0.3H126.4z"/>
	<path id="Trazado_16" class="st5" d="M147.9,68.1l3.8,1.2c1.9,1.1,3.5,2.6,4.7,4.5c1.4,2.1,2.1,4.6,2.1,7.1c0,2.9-0.9,5.8-2.6,8.2
		c-1.5,2.3-3.5,4.2-6,5.5l-2,0.9l-2.2,0.6c1.8-0.2,3.6-0.7,5.2-1.5c2.4-1.3,4.5-3.2,6.1-5.5c1.5-2.5,2.4-5.3,2.4-8.2
		c0.1-2.5-0.6-5-2-7.1c-1.2-1.8-2.8-3.4-4.7-4.5l-3-1L147.9,68.1z"/>
	<path id="Trazado_17" d="M155.4,73.8c-1.1-1.9-2.8-3.4-4.7-4.4c-1.9-1-4-1.5-6.2-1.5c-4,0-7.9,1.7-10.6,4.7
		c-3,2.8-4.7,6.7-4.7,10.8c-0.1,7,5.5,12.7,12.5,12.8c0.1,0,0.1,0,0.2,0c2.5,0,5-0.6,7.2-1.7c2.4-1.3,4.4-3.2,5.8-5.5
		c1.7-2.4,2.6-5.3,2.6-8.2C157.6,78.4,156.9,75.9,155.4,73.8z M132.8,80c0-3,0.8-5.5,2.5-7.3c1.7-1.8,4.1-2.8,6.5-2.7
		c1.8-0.1,3.6,0.6,5.6,1.7c2,1.3,3.7,3.1,4.7,5.3c1.2,2.4,1.8,5,1.8,7.6c0.1,2.6-0.8,5.1-2.6,7.1c-1.6,1.7-3.9,2.7-6.3,2.7
		c-3,0-5.8-1.3-8.4-3.9C134,87.9,132.8,84.4,132.8,80z"/>
	<path id="Trazado_18" class="st5" d="M134.6,80c0-1.3,0.2-2.7,0.6-3.9c1-2.9,3.4-5.1,6.4-5.8l-1.6,0.2c-1.4,0.5-2.7,1.3-3.7,2.4
		c-1.8,2-2.7,4.5-2.6,7.2c0,4.4,1.3,7.9,3.8,10.4c1.3,1.3,2.8,2.4,4.5,3.1l1,0.2l1.5,0.2c-2.3-0.6-4.4-1.8-6-3.6
		C135.8,87.9,134.5,84.3,134.6,80z"/>
	<path id="Trazado_19" class="st5" d="M96.1,52.6c-1.1-0.7-2.3-1-3.6-0.9l-3.9,0.1V52h0.2l0.8,0.1l0.1,0.7v4.8
		c0,0.6-0.2,0.8-0.9,0.8h-0.2v0.2h4c1.3,0.1,2.5-0.3,3.5-1.1c0.7-0.7,1.2-1.6,1.2-2.6C97.3,54,96.8,53.1,96.1,52.6z M93.8,52.1
		c0.4,0.1,0.9,0.3,1.2,0.6l0.8,1.1l0.2,1.2c0,0.5-0.1,1.1-0.3,1.6l-0.7,0.9c-0.4,0.3-0.8,0.5-1.2,0.7l-2,0.2l-0.9-0.1l-0.1-0.6v-5.8
		h1L93.8,52.1z"/>
	<path id="Trazado_20" class="st5" d="M104.6,51.8v0.1h0.2l0.9,0.2l0.1,0.7v4.7l-0.2,0.7l-0.9,0.2h-0.4v0.2h6.7l0.2-1.7H111l-0.6,1
		l-0.9,0.2h-1.9c-0.6,0-0.7-0.1-0.7-0.6v-2.4h2.1l0.6,0.1l0.2,0.8h0.2V54h-0.2c0,0.7-0.2,0.9-0.7,0.8H107v-2.7h2.6l0.7,0.2l0.2,0.9
		h0.3l-0.1-1.5L104.6,51.8z"/>
	<path id="Trazado_21" class="st5" d="M80,52.6c-0.9-0.7-2-1-3.1-1c-1.2,0-2.3,0.4-3.3,1.1c-0.9,0.6-1.4,1.6-1.3,2.7
		c0.1,1,0.5,1.9,1.3,2.5c1,0.6,2.1,0.9,3.3,0.9c1.1,0,2.2-0.3,3.1-1c0.8-0.7,1.3-1.6,1.3-2.7C81.3,54.1,80.8,53.1,80,52.6z
		 M76.6,51.9c0.9,0,1.8,0.3,2.5,0.9c0.7,0.7,1,1.6,1,2.6c0,0.8-0.2,1.5-0.7,2.1c-0.6,0.6-1.5,1-2.4,1c-1,0-1.9-0.3-2.6-1
		c-0.7-0.6-1.1-1.5-1.1-2.5c0-0.8,0.3-1.5,0.8-2C74.7,52.3,75.7,51.8,76.6,51.9L76.6,51.9z"/>
	<path id="Trazado_22" class="st5" d="M67.4,69.3c1.9,1.1,3.6,2.6,4.8,4.5c1.4,2.1,2.1,4.6,1.9,7.1c0.1,2.9-0.8,5.8-2.5,8.2
		c-1.5,2.3-3.5,4.2-6,5.5c-0.6,0.3-1.3,0.6-2,0.9l-2.2,0.6c1.8-0.2,3.6-0.7,5.2-1.5c2.4-1.3,4.5-3.2,6.1-5.5
		c1.6-2.4,2.5-5.3,2.4-8.2c0-2.8-0.6-5.2-2-7.1c-1.2-1.9-2.8-3.4-4.7-4.5l-3-1l-1.1-0.1l-0.6-0.1C64.9,68.3,66.2,68.7,67.4,69.3z"/>
	<path id="Trazado_23" d="M77.5,68.7v1c0.9,0,1.8,0.2,2.6,0.6c0.5,0.8,0.8,1.7,0.7,2.7v18.4c0.1,0.9-0.1,1.8-0.7,2.6
		c-0.4,0.4-1.2,0.7-2.6,0.7v1l4.2-0.4l1-0.3c0.3,0.1,0.7,0.2,1,0.3l4.2,0.4v-1c-0.9,0-1.7-0.2-2.5-0.6c-0.6-0.8-0.9-1.7-0.8-2.7
		V70.2l2.1-0.6h1.9l2.4,0.6c0.9,0.4,1.6,1,2.1,1.8c0.7,1.1,1,2.5,0.9,3.8c0,1.3-0.5,2.6-1.3,3.6C92,80.2,91,80.8,90,81.1l-3.1,0.6
		l7.4,12.1c0.4,0.6,0.9,1,1.5,1.3l1.7,0.4h4.6v-1c-1.8,0-3.7-1.7-5.8-5.1l-4.6-7.8c1-0.2,2-0.6,2.8-1.1c0.9-0.6,1.8-1.3,2.5-2.1
		c0.7-0.9,1.1-2,1.1-3.1c0.1-1.5-0.4-3-1.2-4.3c-0.8-0.9-1.8-1.6-2.9-2l-3-0.4L77.5,68.7z"/>
	<path id="Trazado_24" d="M73.3,80.9c0.1-2.5-0.6-5-2-7.1c-1.2-1.8-2.8-3.3-4.7-4.4c-2-1-4.1-1.5-6.3-1.5c-4,0-7.4,1.6-10.6,4.7
		c-3,2.8-4.7,6.7-4.7,10.8c-0.1,3.4,1.3,6.7,3.7,9.1c2.4,2.4,5.7,3.8,9.1,3.7c2.5,0,4.9-0.6,7.1-1.7c2.4-1.3,4.5-3.2,6-5.5
		C72.4,86.7,73.3,83.8,73.3,80.9z M68,77c1.1,2.4,1.7,5,1.7,7.6c0.1,2.6-0.8,5.1-2.5,7.1c-1.6,1.7-3.9,2.7-6.3,2.7
		c-3,0-5.8-1.3-8.5-3.9c-2.6-2.6-3.8-6.1-3.8-10.4c-0.1-2.7,0.8-5.3,2.6-7.3c1.6-1.8,4-2.8,6.4-2.7c1.8-0.1,3.7,0.6,5.7,1.7
		C65.3,73,66.9,74.8,68,77L68,77z"/>
	<path id="Trazado_25" class="st5" d="M55.8,70.4c-1.4,0.5-2.8,1.3-3.8,2.4c-1.7,1.8-2.5,4.2-2.5,7.2c0,4.4,1.3,7.9,3.8,10.4
		c1.3,1.3,2.8,2.4,4.5,3.1l0.9,0.2l1.5,0.2c-2.3-0.6-4.3-1.9-6-3.6c-2.6-2.6-3.9-6.2-3.9-10.4c0.1-1.3,0.3-2.7,0.8-3.9
		c0.3-1.2,0.9-2.4,1.8-3.3c1.2-1.4,2.8-2.3,4.6-2.6L55.8,70.4z"/>
	<path id="Trazado_26" class="st5" d="M87.5,69.9l-1.9,0.3v21.1c-0.1,1,0.2,2,0.9,2.7c0.7,0.4,1.5,0.6,2.4,0.6v1h0.8v-1
		c-0.8,0.1-1.6-0.1-2.4-0.6c-0.6-0.6-0.8-1.3-0.8-2.7V70.2l0.8-0.2C87.6,69.9,87.6,69.9,87.5,69.9z"/>
	<path id="Trazado_27" class="st5" d="M98.6,71.5c-0.6-0.9-1.5-1.7-2.5-2.1l-2-0.4l-0.8-0.1c0.9,0.1,1.7,0.5,2.5,0.9
		c1,0.5,1.7,1.2,2.2,2.1c0.6,1.1,1,2.4,0.9,3.7c-0.1,1.1-0.5,2.2-1.1,3.1c-0.6,0.9-1.4,1.6-2.4,2.1c-0.9,0.5-1.8,0.9-2.8,1l4.6,7.8
		c0.8,1.4,1.8,2.6,2.9,3.7c0.7,0.8,1.7,1.3,2.8,1.3v1.1h0.9v-1.1c-0.7,0.1-1.3,0-1.9-0.3c-0.7-0.4-1.3-0.9-1.7-1.6l-6.9-10.9
		c1-0.3,2-0.6,2.9-1.1c0.9-0.5,1.7-1.3,2.2-2.1c0.7-0.9,1.1-1.9,1.1-3C99.9,74.1,99.5,72.6,98.6,71.5z"/>
	<path id="Trazado_28" class="st5" d="M111.6,69.9l-1.9,0.3l-0.7,0.2c-1.7,0.9-2.6,2.7-2.6,5.3h0.7
		C107.3,72.5,108.8,70.4,111.6,69.9z"/>
	<path id="Trazado_29" class="st6" d="M102.1,108.6c-0.8-0.7-1.8-1.1-2.9-1.1c-1.2,0-2.3,0.4-3.1,1.1c-0.7,0.7-1.7,1.1-2.7,1.1
		l-1.2-0.1c-1.2-0.1-2.3,0-3.4,0.6c-0.7,0.5-1.3,1.1-1.7,1.8l-0.3,1c-0.4,0.9-1,1.6-1.8,2.1l-1.1,0.6c-1,0.3-1.9,1-2.4,1.9
		c-0.3,0.7-0.5,1.4-0.7,2.1l0.1,1c0.1,0.8,0.1,1.6,0,2.4l-0.8,1.5l-0.3,0.6c-0.7,0.8-1.1,1.8-1.1,2.8c0,0.7,0.2,1.4,0.6,2l0.5,0.9
		c0.6,0.6,1,1.3,1.2,2.1l0.2,1.5l-0.2,0.8c-0.1,1.1,0.2,2.1,0.7,3l1.6,1.5l0.9,0.6c0.7,0.2,1.4,0.6,1.9,1.1l0.9,1.3l0.2,0.6
		c0.7,1.7,2.2,2.8,4,2.9h3c0.5,0.1,1,0.3,1.5,0.6c0.2,0.1,0.4,0.3,0.6,0.4c0.8,0.7,1.8,1.1,2.9,1.1l2.1-0.6l0.8-0.6
		c0.5-0.6,1.2-0.9,1.9-1.1l1.6-0.2l0.7,0.1c1.5,0.1,2.5,0.1,3.1-0.4l1.7-1.7l0.6-0.9c0.2-0.7,0.5-1.3,1-1.8c0.4-0.3,0.9-0.7,1.2-0.9
		l0.7-0.2c1-0.3,1.9-1,2.4-1.9c0.3-0.7,0.6-1.5,0.7-2.2l-0.1-1.1c-0.2-0.7-0.2-1.4,0-2.1l0.6-1.3l0.3-0.4c0.9-1.1,1.3-2.1,1.2-3
		c0-0.8-0.2-1.5-0.6-2.2l-0.6-0.9c-0.6-0.8-1-1.7-1.2-2.7l0.2-1.3c0.1-1.1-0.2-2.2-0.7-3.1c-0.4-0.6-0.9-1.2-1.6-1.6l-0.9-0.3
		c-0.7-0.2-1.3-0.6-1.8-1l-0.9-1.2l-0.2-0.7c-0.4-1-1.1-1.9-2-2.6c-0.7-0.3-1.4-0.5-2.1-0.6h-1c-0.7,0.2-1.4,0.2-2.1,0l-1.5-0.6
		L102.1,108.6z M90,118.4V118h0.3l0.2,0.1l0.1,0.4l0.2-0.2l0.2,0.4l-0.3,0.3v0.4l-0.6,0.2v-0.2h-0.1l-0.2,0.2h-0.3l0.1-0.4l0.2-0.1
		h-0.6l-0.3-0.7l0.4-0.3h0.3L90,118.4z M89.1,120.8l0.2-0.1c0.1,0,0.2,0.1,0.2,0.2l0.1-0.1v-0.3c0.2,0.1,0.3,0.2,0.5,0.3v0.2H90v0.2
		l0,0l0.2,0.1l0.3,0.2h0.8l0.1,0.2l0.2,0.1l0.1-0.1l-0.1-0.4c0.7,0,0.9,0.4,0.7,1h0.1c0.1,0,0.2,0,0.2,0.1c0.2,0.2,0.2,0.4,0.1,0.6
		l-0.2,0.3l-0.1-0.2c-0.1-0.1-0.2-0.1-0.3-0.1l0.1,0.1l0.1,0.4l-0.3,0.2l-0.3,0.1v-0.6l-0.3,0.3l-0.3-0.1c-0.2,0-0.2-0.1-0.4-0.2
		h-0.3v-0.7c0.1-0.3,0.3-0.4,0.6-0.3l0.4,0.1l0.1-0.1l-0.1-0.2l-0.4-0.1l-0.2-0.4l-0.1,0.4l-0.3-0.1c-0.1-0.2-0.1-0.2-0.2-0.1v0.1
		c0.2,0,0.2,0,0.2,0.2l-0.2,0.3h-0.3v-0.6l-0.1,0.2l-0.3,0.1l-0.2-0.2h-0.4l0.2-0.6l0.1-0.1l0.3-0.1l0.3,0.1v-0.1h-0.2l-0.1-0.1
		L89,121v-0.1L89.1,120.8z M88.2,128.8l0.7,0.3c0.3-0.1,0.6-0.2,0.8-0.4l0.8-0.6l0.3-0.2h0.6c0.2,0.1,0.4,0.2,0.7,0.3l0.9,0.3
		l1.7-1.3c0.4,0.1,0.7,0.2,1,0.4l0.8,0.7c0.3,0.2,0.7,0,1-0.3l0.3-0.9l-0.2-1.7l-1.1-3.3l-0.7-0.6l-0.3-0.2l-0.2-0.1l0.8,0.1
		c0.6,0.1,1.2,0.4,1.7,0.9l0.4,0.2l0.4-0.3c0.7-0.5,1.6-0.7,2.5-0.6l0.9,0.3l0.1,0.2l-1.1-0.2l-1.1,0.1l-0.8,0.6
		c-0.3,0.3-0.4,0.7-0.3,1.1l0.6,1l-0.8-0.4l-0.9-0.8l-0.3-0.7l0.4,1.2l1.3,1.2c0.4,0.1,0.7,0.4,0.9,0.8c0.2,0.4,0.4,0.9,0.4,1.3
		l-0.2-0.3l-0.9-0.7l-0.6-0.3l-0.6-0.7l0.2,0.8l0.9,1.2l0.6,0.6l0.4,0.3l0.6,0.2l0.3-0.2c0.2,0,0.4,0.1,0.6,0.2
		c0.1,0.2,0.3,0.3,0.6,0.3l1-0.7c0.4-0.3,0.9-0.6,1.5-0.8l1.2,0.6l1.5,0.8l0.8-0.2c0.2-0.2,0.3-0.3,0.6-0.4l0.8,0.6l1,0.4l0.9,0.4
		l0.7,0.8l0.2,0.6h-12l-0.1-0.1l-0.1-0.4l-1.3-2l-0.7-1.2c0,0.6,0.1,1.2,0.4,1.7l0.9,1.8c0.3,0.6,0.4,1.3,0.3,1.9l-0.2,1.5
		c0.7,0.5,1.3,1.2,1.7,1.9l0.8,1.5c0.3,0.6,0.6,0.9,1,1l1.6,0.3l-1.5,0.2c-0.7-0.1-1.4-0.6-1.7-1.2l-0.1,0.4l-0.3,1.1l-0.6,0.8
		c0.3-0.9,0.4-1.9,0.3-2.9c-0.2-0.9-0.8-1.7-1.6-2.2l-0.6,0.7l-1.3,1.1l-2,0.5l-1.1,0.8l-1.9,0.2l1.5-0.4l0.9-0.7
		c-0.3-0.4-0.8-0.6-1.6-0.4l-1.9,0.6c0.2-0.3,0.5-0.5,0.8-0.7l1.6-0.4c0.6,0,1.3,0.2,1.8,0.6c1.1,0,2.1-0.5,2.7-1.5
		c0.5-0.7,0.8-1.6,0.8-2.5c0.1-0.5,0-0.9-0.1-1.3l-0.7-2.1l-0.2,0.3v1.5H85.4l0.3-0.6l0.8-1l1-0.8C87.9,128.6,88.1,128.6,88.2,128.8
		L88.2,128.8z M89.9,132.8l-2-0.1l2.4-0.1c0.5,0,1,0.2,1.5,0.6l1.9-0.1c-0.4-0.5-1-0.9-1.7-1l-1.7-0.1l1.9-0.3
		c0.8,0.1,1.5,0.4,2,0.9c0.8-0.4,1.6-0.7,2.5-0.8l1.5,0.2l0.1,0.6l-0.1,0.2l-0.7-0.1h-1.8c-0.6,0.2-1.2,0.5-1.6,1l-1.2-0.1
		c-0.5,0.1-1,0.3-1.5,0.6c-0.3,0.3-0.8,0.5-1.2,0.4l-1.3-0.2l1.5-0.2c0.4-0.1,0.7-0.4,1-0.7C90.8,133.1,90.4,132.9,89.9,132.8
		L89.9,132.8z M105.3,117.1V117l0.2,0.7l-0.1,0.2h0.3l-0.1,0.3l-0.2,0.2v0.2l-0.3-0.1l-0.2-0.1l-0.1,0.1l-0.4,0.1l-0.2-0.1v-0.3h0.2
		v-0.1l-0.1-0.3l0.1-0.2l0,0l0.3,0.1v-0.2l0.3-0.3L105.3,117.1z M104.6,119h0.3l0.3,0.1l0.3-0.1l0.1,0.6l-0.2,0.6l-0.2,0.2h0.3
		l-0.4,0.7l-0.2-0.2l-0.2-0.1c0,0.1-0.1,0.1,0,0.2l0.1,0.1v0.2l-0.5,0.1l-0.3-0.2l-0.3-0.2v-0.1l0.3-0.4l0.1-0.1l0.1-0.3v-0.3
		l-0.6-0.2l-0.1-0.1l0.1-0.2l0.3-0.1l0.2,0.3C104.3,119.1,104.4,119,104.6,119L104.6,119z M106.4,119.1h0.1V119l-0.1-0.4
		c0-0.1,0.1-0.3,0.4-0.4l0.2,0.3v0.2L107,119h0.3c0-0.2,0.1-0.3,0.3-0.3c0,0,0.1,0,0.1,0l0.3,0.1c0.1,0.2,0.4,0.4,0.7,0.3l-0.5,0.7
		l-0.6,0.2c-0.1-0.2-0.2-0.2-0.2,0l0.5,0.3l-0.3,0.1l-0.7-0.1l-0.1,0.3l-0.1,0.2l-0.4-0.3l-0.3-0.4c0-0.2,0.1-0.3,0.3-0.3
		c0,0,0.1,0,0.1,0l0,0l-0.1-0.1c-0.2-0.2-0.2-0.5-0.2-0.8l0.2-0.3l0.1,0.2L106.4,119.1z M103.1,117.3c0-0.2,0.2-0.3,0.3-0.3l0.6,0.2
		c-0.1,0.1-0.1,0.2-0.2,0.4l-0.1,0.3l-0.1,0.2h-0.1l0.2,0.3l-0.1,0.2l-0.4,0.3l-0.3-0.3v-0.2l0.1-0.2h-0.3c-0.3-0.1-0.6-0.2-0.6-0.3
		v-0.6l0.3,0.1v-0.4l0.2-0.1l0.3-0.1v0.4L103.1,117.3z M101.9,118.4l-0.2,0.1l-0.3,0.6H101l-0.3-0.2l-0.2-0.2l0.2-0.1
		c-0.2,0-0.3-0.2-0.3-0.6l-0.1-0.4l0.7-0.1l0.3,0.2l0,0l0.1-0.1l0.3-0.1v0.7L101.9,118.4z M102.5,118.6l0.1,0.4v0.3
		c-0.1,0.1-0.1,0.2,0,0.2l0.2-0.1c0.1-0.3,0.2-0.3,0.3-0.2l0.4,0.2l0.4,0.1v0.2l-0.3,0.4l-0.3,0.2l-0.3-0.1c-0.1-0.1-0.1,0-0.2,0.1
		l0.1,0.1l0.3,0.3l-0.2,0.1l-0.2,0.2l-0.2-0.2v-0.3l-0.1-0.1c-0.1,0-0.2,0.1-0.2,0.2l-0.2,0.6l-0.3-0.8l0.3-0.4h-0.2l-0.4-0.3
		l0.1-0.3l0.3-0.3v0.1l0.1,0.3h0.1V119L102.5,118.6z M102.2,121.9l0.3-0.3h0.6v0.2c0.1-0.2,0.2-0.2,0.3,0c0.1-0.2,0.2-0.3,0.3-0.3
		l0.2,0.1l-0.3,0.4v0.8l0.3,0.1v0.1c-0.1,0.2,0,0.4,0.2,0.7l0.2,0.2h0.1v-0.1l0.1,0.2l-0.1,0.2l-0.3,0.2l-0.1,0.3h-0.3l-0.1-0.1
		c0,0.2,0.1,0.4,0.3,0.4l-0.1,0.2l-0.3,0.1c-0.3,0-0.4-0.2-0.4-0.6l-0.2-0.1v-0.1h0.1l0.1-0.3h-0.6l-0.1-0.3l0.1-0.3l0.3-0.3
		l-0.6,0.2l-0.4-0.6l0.1-0.4l0.2-0.1L102.2,121.9z M104.2,122.5c0-0.3,0-0.6,0.1-0.7l0.6-0.2h0.3l0.1-0.2l0.7-0.7l0.1,0.2l-0.2,0.4
		v0.2h0.1l0.3-0.2l0.4,0.1l0.2,0.4l-0.4,0.1H106l0.2,0.2l0.3,0.1l0.3,0.7l-0.1,1l-0.4-0.3l-0.7-0.1l-0.2-0.3V123l-0.1-0.3
		c-0.1,0-0.1,0-0.1,0.2l-0.2,0.4l-0.1,0.2l-0.1-0.1l-0.3-0.4c-0.1-0.1,0-0.1,0.1-0.2l0.2-0.1l0.1-0.2L104.2,122.5L104.2,122.5z
		 M107.1,121.5V121l0.3-0.1l0.2,0.3c0.1-0.3,0.2-0.3,0.3-0.3l0.4,0.3l-0.4,0.1l-0.2,0.2h0.7l0.3,0.3l0.1,0.6h-0.8l-0.2-0.4
		c-0.1,0-0.2,0-0.2,0.1v0.8l-0.2-0.2l-0.3-0.2l-0.1-0.3l0.4-0.1l-0.2-0.2L107.1,121.5z M110.3,117.1c-1.6-1.2-3.3-2.2-5.2-2.8
		c-2-0.6-4-0.9-6.1-0.9c-2.1,0-4.1,0.3-6.1,0.9c-1.9,0.6-3.7,1.6-5.3,2.8c1.5-1.5,3.2-2.7,5.2-3.6c1.9-0.9,4.1-1.3,6.2-1.2
		c2.1,0,4.2,0.4,6.2,1.2C107.1,114.4,108.9,115.6,110.3,117.1L110.3,117.1z M93.4,118c0.1,0,0.1,0,0.1,0.1h0.1V118l-0.1-0.6
		c-0.1-0.1,0.1-0.4,0.6-0.8l0.4,0.3c0.3,0.2,0.4,0.4,0.2,0.7v0.2l0.2-0.1l0.2-0.2l0.1-0.1v0.4l-0.2,0.2l-0.3,0.1l0.2,0.1l0.1-0.1
		h0.2v0.3l-0.6,0.1h-0.3l-0.2-0.1v0.3l-0.2,0.2l-0.3-0.1v-0.4C93.5,118.6,93.4,118.5,93.4,118L93.4,118z M93,117.6v0.8l-0.1,0.1
		h-0.1l0.1,0.2v0.2l-0.2,0.1l-0.8,0.1h-0.2l-0.3-0.3l0.3-0.1l0.2-0.2h-0.4l-0.3-0.3l-0.3-0.6l0.8-0.2c0.1,0,0.2,0,0.2,0.1l0.1,0.1
		l0.2-0.1l-0.2-0.4l0.6,0.1l0.2,0.2v0.4l0.2-0.1L93,117.6z M95.8,117.7l-0.2-0.2v-0.7l0.2,0.1l0.5,0.3c0.1,0.1,0.1,0.1,0.2,0.1
		c0.1-0.1,0.1-0.2,0-0.3c0,0,0,0,0,0l-0.1-0.3l0.2-0.3l0.4-0.2l0.2-0.4c0.4,0.2,0.6,0.6,0.7,1c0.1,0.2,0,0.3-0.2,0.6v0.3l0.6-0.2
		v0.4l-0.2,0.2l-0.3,0.1l0.2,0.6h-0.5c-0.2,0-0.3,0-0.4-0.2l-0.1-0.1v-0.2l-0.4,0.4h-0.3l-0.4-0.3l-0.1-0.2l0.6-0.1l0.1-0.1
		l-0.1-0.2L95.8,117.7z M94.4,119h0.4c0.1,0,0.2,0,0.3,0.1l-0.1,0.6c0.2,0,0.2,0,0.2-0.1l0.3-0.3c0.2,0.3,0.2,0.4,0.1,0.6l-0.3,0.2
		l0.2,0.3v0.4l-0.3,0.1h-0.2v-0.1c0-0.1,0-0.1-0.1-0.2c-0.2-0.1-0.2,0.1-0.2,0.2l-0.2,0.1h-0.3v-0.2l0.2-0.2l0.1-0.1h-0.3
		c-0.2,0.2-0.4,0.1-0.7-0.2l-0.3-0.4l0.7-0.3h0.3l0.2,0.3c0.2,0,0.2-0.1,0.1-0.3L94.4,119z M92.7,119.3c0.2-0.1,0.2,0,0.1,0.3
		l0.2,0.1l0.3,0.4l0.3,0.4l-0.1,0.2l-0.3-0.2c-0.2,0-0.2,0-0.1,0.1c0.2,0,0.2,0.2,0,0.4l-0.4,0.3l-0.1-0.6c-0.1,0.2-0.2,0.3-0.4,0.2
		l-0.8-0.3l0.3-0.7c0.2-0.3,0.3-0.3,0.6-0.3l0.2,0.1c0.1-0.1,0-0.2-0.1-0.1l-0.2-0.1l-0.1-0.1l0.2-0.2L92.7,119.3z M91.7,119.7v0.1
		l-0.4,0.7l-0.1,0.7l-0.2,0.1h-0.3l0.2-0.3v-0.2h-0.1l-0.2,0.1c-0.1,0.1-0.2,0.1-0.2,0c0,0,0,0,0,0c0-0.2-0.1-0.5-0.3-0.6l0.6-0.3
		H91l0.1-0.3c0.1,0.1,0.1,0.1,0.2,0.1H91.7z M92.9,122.4v-0.6l0.6-0.4h0.3c0.1,0,0.2-0.1,0.4-0.1c0.3,0,0.4,0.1,0.4,0.3h0.3
		c0.1,0,0.2,0.1,0.2,0.3c0.4,0,0.6,0.1,0.6,0.4l-0.3,0.4c0.1,0.1,0.2,0.3,0.2,0.4l-0.1,0.3l-0.3,0.2v0.2h-0.1l-0.3-0.2h-0.1l0.5,0.3
		h0.1v0.1c0,0.3-0.1,0.4-0.4,0.6l0.1,0.1c-0.1,0.3-0.3,0.5-0.6,0.6l-0.6-0.6l0.1-0.1l0.4-0.2v-0.2l-0.1,0.2h-0.3
		c-0.3,0-0.4-0.2-0.6-0.6l0.1-0.2v-0.1l-0.2-0.2l-0.1-0.2l0.1-0.2h0.2c0.1,0,0.3,0,0.3-0.1l0.1-0.2l-0.1,0.1h-0.2l-0.4-0.2l0,0
		L92.9,122.4z M95.7,120.2l0.1-0.3l0.1-0.2l0.2,0.2h0.2c0-0.1,0-0.2-0.1-0.2l-0.2-0.1l0.2-0.4c0.2,0,0.4-0.2,0.6-0.3v0.9l0.2-0.2
		l0.1-0.2l0.3-0.1h0.7l0.3,0.2l-0.2,0.2v0.2l-0.4,0.6h-0.2l-0.2-0.1l-0.2,0.1l0.2,0.1c0.1,0,0.2,0,0.3,0.2l0.1,0.2l-0.7,0.1v-0.1
		l-0.1-0.1H97l-0.1,0.1l0.1,0.3v0.1h-0.4l-0.3-0.4l0.1-0.2h-0.3L95.7,120.2z M98.3,120.4l0.1,0.3l0.2-0.3l0.5-0.1h0.2v0.2l-0.1,0.3
		v0.4l-0.2,0.1l-0.3,0.1l-0.2,0.3h-0.6l-0.2-0.4l0.3-0.1h0.1l-0.1-0.1l0.1-0.4L98.3,120.4z M101.2,120.3c0.1,0,0.1,0,0.1,0.1
		c0,0,0,0,0,0l0.1,0.7l-0.2-0.1l-0.2-0.2l-0.3,0.4l-0.6,0.1l0.1-0.4h0.1v-0.1h-0.6l-0.1-0.1v-0.6l0.4,0.1l-0.3-0.7l0.4-0.7l0.4,0.3
		L101.2,120.3z M101.3,123c-0.2,0-0.2,0.1-0.2,0.2l0.2,0.1l0.1-0.1l0.3,0.1v0.4l-0.1,0.3l-0.6-0.4h-0.2v0.3l0.3,0.3
		c0,0.3-0.2,0.6-0.9,0.9c0-0.3,0-0.4-0.3-0.6c-0.2-0.1-0.2-0.4-0.1-0.6c0,0,0.1-0.1,0.1-0.1c0.2-0.2,0.2-0.3,0.1-0.4
		c-0.1,0-0.2,0.1-0.3,0.1l-0.3,0.2c-0.2-0.2-0.2-0.5,0-0.7c0,0,0,0,0.1,0l0.2,0.1h0.2c0.1-0.1,0.1-0.2-0.1-0.2h-0.3l0.1-0.3l0.4-0.2
		c0.1,0,0.2,0,0.3,0.1l0.2,0.2l0.1-0.3l0.8,0.1l-0.1,0.3L101.3,123z M92.8,135.2c-0.6,0.1-1,0.2-1.5,0.3l-0.9,0.8l0.7-1
		c0.2-0.3,0.8-0.4,1.3-0.8l3.1,0.3c0.6-0.1,1.1-0.4,1.3-0.9l-0.9-0.2l-0.9,0.2c0.4-0.4,0.9-0.6,1.5-0.6l1.3,0.3l-0.5,0.7l-1.3,1
		h-1.7L92.8,135.2z M100.3,132.6v-0.7h0.7l1.3,0.1c0.6,0.2,1.1,0.4,1.6,0.8c0.6-0.3,1.2-0.6,1.9-0.7h2.4c0.7,0.1,1.3,0.2,1.9,0.6
		l-3-0.1l-1.8,0.3l-0.4,0.2l0.6,0.1l1.3,0.4l1.2-0.2c0.5,0.1,0.9,0.4,1.2,0.8c-0.4-0.3-0.9-0.4-1.3-0.3l-0.8,0.2l0.6,0.3l0.6,1.1
		c-0.6-0.6-1.3-1-2-1.3c-0.7-0.4-1.6-0.6-2.5-0.4c-0.6-0.6-1.4-1.1-2.2-1.2L100.3,132.6z M100.2,133.6l1.2,0.1
		c0.7,0.3,1.2,0.9,1.5,1.6h2.1c0.9,0.3,1.6,0.9,2,1.8c-0.5-0.5-1.2-0.9-1.9-1.1l-2-0.1c0.2,0.5,0.5,1,1,1.2l1.3,0.6l-2-0.3
		c-0.5-0.4-0.9-1-1.1-1.7c-0.3-0.6-0.8-1.2-1.3-1.6L100.2,133.6z M105.2,141.5c1.9-0.6,3.6-1.5,5.2-2.8c-1.4,1.5-3.2,2.7-5.1,3.6
		c-1.9,0.9-4,1.3-6.2,1.3c-2.1,0-4.2-0.4-6.2-1.3c-1.9-0.9-3.7-2.1-5.2-3.6c1.6,1.3,3.4,2.2,5.3,2.8c2,0.6,4,0.9,6.1,0.9
		C101.2,142.4,103.2,142.1,105.2,141.5L105.2,141.5z M97.6,138.3c-0.2,0.4-0.6,0.8-1,0.9l-3-0.3l2.1-0.1c0.8-0.1,1.5-0.5,2-1
		L97.6,138.3z M99,138.4c0.1-0.5,0-1-0.3-1.3l0.6-0.7c0.5,0.6,0.6,1.3,0.5,2c-0.2,0.7-0.9,1.1-1.9,1.6
		C98.4,139.7,98.8,139.1,99,138.4L99,138.4z"/>
	<path id="Trazado_30" class="st7" d="M90,118v0.4l-0.2-0.2h-0.3l-0.4,0.3l0.3,0.7h0.6l-0.2,0.1l-0.1,0.4h0.3l0.2-0.2h0.1v0.2
		l0.6-0.2v-0.4l0.3-0.3l-0.2-0.4l-0.2,0.2l-0.1-0.4l-0.2-0.1L90,118z"/>
	<path id="Trazado_31" class="st7" d="M89.3,120.7l-0.2,0.1l-0.1,0.1v0.1l0.1,0.1l0.1,0.1h0.2v0.1l-0.3-0.1l-0.3,0.1l-0.1,0.1
		l-0.2,0.6h0.4l0.2,0.2l0.3-0.1l0.1-0.2v0.6h0.3l0.2-0.3c0-0.2,0-0.2-0.2-0.2v-0.1c0.1-0.1,0.1-0.1,0.2,0.1l0.3,0.1l0.1-0.4
		l-0.3-0.2l-0.2-0.1l0,0V121h0.1v-0.2c-0.1-0.1-0.3-0.3-0.5-0.3v0.3l-0.1,0.1C89.5,120.8,89.4,120.7,89.3,120.7z"/>
	<path id="Trazado_32" class="st7" d="M91.5,121.8l-0.1-0.2h-0.8l0.2,0.4l0.4,0.1l0.1,0.2l-0.1,0.1l-0.4-0.1c-0.2-0.1-0.5,0-0.6,0.3
		v0.7h0.3c0.2,0.1,0.2,0.2,0.4,0.2l0.3,0.1l0.3-0.3v0.6l0.3-0.1l0.3-0.2l-0.1-0.4l-0.1-0.1c0.1,0,0.2,0,0.3,0.1l0.1,0.2l0.2-0.3
		c0.1-0.1,0.1-0.3-0.1-0.6c0-0.1-0.1-0.1-0.2-0.1h-0.1c0.2-0.6,0-1-0.7-1l0.1,0.4l-0.1,0.1L91.5,121.8z"/>
	<path id="Trazado_33" class="st7" d="M88.9,129.1l-0.7-0.3c-0.1-0.1-0.3-0.1-0.7-0.2l-1,0.8l-0.8,1l-0.3,0.6h12.4v-1.5l0.2-0.3
		l0.7,2.1c0.2,0.4,0.2,0.9,0.1,1.3c0,0.9-0.3,1.8-0.8,2.5c-0.6,0.9-1.6,1.5-2.7,1.5c-0.5-0.4-1.2-0.6-1.8-0.6l-1.6,0.4
		c-0.3,0.2-0.6,0.4-0.8,0.7l1.9-0.6c0.8-0.1,1.2,0,1.6,0.4l-0.9,0.7l-1.5,0.4l1.9-0.2l1.1-0.8l2-0.5l1.3-1.1l0.6-0.7
		c0.8,0.5,1.3,1.3,1.6,2.2c0.1,1,0,2-0.3,2.9l0.6-0.8l0.3-1.1l0.1-0.4c0.3,0.7,1,1.1,1.7,1.2l1.5-0.2l-1.6-0.3c-0.4-0.1-0.7-0.4-1-1
		l-0.8-1.5c-0.4-0.7-1-1.4-1.7-1.9l0.2-1.5c0-0.7-0.1-1.3-0.3-1.9l-0.9-1.8c-0.3-0.5-0.5-1.1-0.4-1.7l0.7,1.2l1.3,2l0.1,0.4l0.1,0.1
		h12l-0.2-0.6l-0.7-0.8l-0.9-0.4l-1-0.4l-0.8-0.6c-0.2,0.1-0.4,0.3-0.6,0.4l-0.8,0.2l-1.5-0.8l-1.2-0.6c-0.5,0.2-1,0.4-1.5,0.8
		l-1,0.7c-0.2,0-0.5-0.1-0.6-0.3c-0.1-0.2-0.3-0.3-0.6-0.2l-0.3,0.2l-0.6-0.2l-0.4-0.3l-0.6-0.6l-0.9-1.2l-0.2-0.8l0.6,0.7l0.6,0.3
		l0.9,0.7l0.2,0.3c-0.1-0.5-0.2-0.9-0.4-1.3c-0.2-0.4-0.5-0.7-0.9-0.8l-1.3-1.2l-0.4-1.2l0.3,0.7l0.9,0.8l0.8,0.4l-0.6-1
		c-0.1-0.4,0.1-0.8,0.3-1.1l0.8-0.6l1.1-0.1l1.1,0.2l-0.1-0.2l-0.9-0.3c-0.9-0.2-1.8,0-2.5,0.6l-0.4,0.3l-0.4-0.2
		c-0.5-0.5-1-0.8-1.7-0.9l-0.8-0.1l0.2,0.1l0.3,0.2l0.7,0.6l1.1,3.3l0.2,1.7l-0.3,0.9c-0.3,0.3-0.7,0.6-1,0.3l-0.8-0.7
		c-0.3-0.2-0.6-0.4-1-0.4l-1.7,1.3l-0.9-0.3c-0.2-0.1-0.4-0.2-0.7-0.3h-0.6l-0.3,0.2l-0.8,0.6C89.5,128.9,89.2,129,88.9,129.1z"/>
	<path id="Trazado_34" class="st7" d="M87.9,132.7l2,0.1c0.5,0.1,0.9,0.3,1.3,0.6c-0.3,0.3-0.6,0.5-1,0.7l-1.5,0.2l1.3,0.2
		c0.5,0,0.9-0.1,1.2-0.4c0.4-0.3,0.9-0.5,1.5-0.6l1.2,0.1c0.4-0.5,1-0.8,1.6-1h1.8l0.7,0.1l0.1-0.2l-0.1-0.6l-1.5-0.2
		c-0.9,0.1-1.7,0.4-2.5,0.8c-0.5-0.5-1.3-0.8-2-0.9l-1.9,0.3l1.7,0.1c0.7,0.2,1.2,0.5,1.7,1l-1.9,0.1c-0.4-0.3-0.9-0.5-1.5-0.6
		L87.9,132.7z"/>
	<path id="Trazado_35" class="st7" d="M105.3,117v0.1h-0.3l-0.3,0.3v0.2l-0.3-0.1l0,0l-0.1,0.2l0.1,0.3v0.1H104v0.3l0.2,0.1l0.4-0.1
		l0.1-0.1l0.2,0.1l0.3,0.1v-0.2l0.2-0.2l0.1-0.3h-0.3l0.1-0.2L105.3,117z"/>
	<path id="Trazado_36" class="st7" d="M104.9,119h-0.3c-0.2,0-0.3,0.1-0.3,0.2l-0.2-0.3l-0.3,0.1l-0.1,0.2l0.1,0.1l0.6,0.2v0.3
		l-0.1,0.3l-0.1,0.1l-0.3,0.4v0.1l0.3,0.2l0.3,0.2l0.5-0.1V121l-0.1-0.1c-0.1-0.1,0-0.1,0-0.2l0.2,0.1l0.2,0.2l0.4-0.7h-0.3l0.2-0.2
		l0.2-0.6l-0.1-0.6l-0.3,0.1L104.9,119z"/>
	<path id="Trazado_37" class="st7" d="M106.5,119.1h-0.1l-0.2-0.3l-0.1-0.2l-0.2,0.3c0,0.3,0.1,0.6,0.2,0.8l0.1,0.1l0,0
		c-0.2,0-0.3,0.1-0.3,0.3c0,0,0,0.1,0,0.1l0.3,0.4l0.4,0.3l0.1-0.2l0.1-0.3l0.7,0.1l0.3-0.1l-0.5-0.3c0-0.2,0.1-0.2,0.2,0l0.6-0.2
		l0.5-0.7c-0.3,0-0.5-0.1-0.7-0.3l-0.3-0.1c-0.2,0-0.3,0.1-0.3,0.3c0,0,0,0.1,0,0.1H107l0.1-0.3v-0.2l-0.2-0.3
		c-0.3,0.1-0.4,0.3-0.4,0.4l0.1,0.4L106.5,119.1z"/>
	<path id="Trazado_38" class="st7" d="M103.5,117c-0.2,0-0.3,0.2-0.3,0.3h-0.2v-0.4l-0.3,0.1l-0.2,0.1v0.4l-0.3-0.1v0.6
		c0,0.1,0.2,0.2,0.6,0.3h0.3l-0.1,0.2v0.2l0.3,0.3l0.4-0.3l0.1-0.2l-0.2-0.3h0.1l0.1-0.2l0.1-0.3c0.1-0.2,0.1-0.3,0.2-0.4L103.5,117
		z"/>
	<path id="Trazado_39" class="st7" d="M101.7,118.5l0.2-0.1l-0.2-0.3v-0.7l-0.3,0.1l-0.1,0.1l0,0l-0.3-0.2l-0.7,0.1l0.1,0.4
		c0,0.3,0.1,0.6,0.3,0.6l-0.2,0.1l0.2,0.2l0.3,0.2h0.3L101.7,118.5z"/>
	<path id="Trazado_40" class="st7" d="M102.6,119.1l-0.1-0.4L102,119v0.7h-0.1l-0.1-0.3v-0.1l-0.3,0.3l-0.1,0.3l0.4,0.3h0.2
		l-0.3,0.4l0.3,0.8l0.2-0.6c0-0.1,0.1-0.2,0.2-0.2l0.1,0.1v0.3l0.2,0.2l0.2-0.2l0.2-0.1l-0.3-0.3l-0.1-0.1c0.1-0.1,0.1-0.2,0.2-0.1
		l0.3,0.1l0.3-0.2l0.3-0.4v-0.2l-0.4-0.1l-0.4-0.2c-0.1-0.1-0.2-0.1-0.3,0.2l-0.2,0.1c-0.1,0-0.1-0.1,0-0.2L102.6,119.1z"/>
	<path id="Trazado_41" class="st7" d="M102.6,121.6l-0.3,0.3v0.6l-0.2,0.1l-0.1,0.4l0.4,0.6l0.6-0.2l-0.3,0.3l-0.1,0.3l0.1,0.3h0.6
		l-0.1,0.3h-0.1v0.1l0.2,0.1c0,0.3,0.1,0.6,0.4,0.6l0.3-0.1l0.1-0.2c-0.2,0-0.3-0.2-0.3-0.4l0.1,0.1h0.3l0.1-0.3l0.3-0.2l0.1-0.2
		l-0.1-0.2v0.1h-0.1l-0.2-0.2c-0.2-0.2-0.3-0.4-0.2-0.7v-0.1l-0.3-0.1V122l0.3-0.4l-0.2-0.1c-0.1,0-0.2,0.1-0.3,0.3
		c-0.1-0.2-0.2-0.2-0.3,0v-0.2L102.6,121.6z"/>
	<path id="Trazado_42" class="st7" d="M104.3,121.8c-0.1,0.1-0.1,0.3-0.1,0.7h0.7l-0.1,0.2l-0.2,0.1c-0.1,0.1-0.2,0.1-0.1,0.2
		l0.3,0.4l0.1,0.1l0.1-0.2l0.2-0.4c0-0.2,0-0.2,0.1-0.2l0.1,0.3v0.2l0.2,0.3l0.7,0.1l0.4,0.3l0.1-1l-0.3-0.7l-0.3-0.1l-0.2-0.2h0.6
		l0.4-0.1l-0.2-0.4l-0.4-0.1l-0.3,0.2h-0.1v-0.2l0.2-0.4l-0.1-0.2l-0.7,0.7l-0.1,0.2h-0.3L104.3,121.8z"/>
	<path id="Trazado_43" class="st7" d="M107.1,121v0.4l0.1,0.3l0.2,0.2l-0.4,0.1l0.1,0.3l0.3,0.2l0.2,0.2v-0.8c0-0.1,0.1-0.1,0.2-0.1
		l0.2,0.4h0.8l-0.1-0.6l-0.3-0.3h-0.7l0.2-0.2l0.4-0.1l-0.4-0.3c-0.1,0-0.2,0-0.3,0.3l-0.2-0.3L107.1,121z"/>
	<path id="Trazado_44" class="st7" d="M105.2,114.3c1.9,0.6,3.6,1.6,5.2,2.8c-1.5-1.5-3.2-2.7-5.1-3.6c-1.9-0.9-4.1-1.3-6.2-1.2
		c-2.1-0.1-4.2,0.4-6.2,1.2c-1.9,0.9-3.7,2.1-5.2,3.6c1.6-1.2,3.4-2.2,5.3-2.8c2-0.6,4-0.9,6.1-0.9
		C101.2,113.4,103.2,113.7,105.2,114.3z"/>
	<path id="Trazado_45" class="st7" d="M93.5,118.1c0-0.1,0-0.1-0.1-0.1c0,0.6,0.1,0.7,0.2,0.6v0.4l0.3,0.1l0.2-0.2v-0.3l0.2,0.1h0.3
		l0.6-0.1v-0.3h-0.2l-0.1,0.1l-0.2-0.1l0.3-0.1l0.2-0.2v-0.4l-0.1,0.1l-0.2,0.2l-0.2,0.1v-0.2c0.2-0.2,0.1-0.4-0.2-0.7l-0.4-0.3
		c-0.4,0.3-0.7,0.7-0.6,0.8l0.1,0.6v0.1L93.5,118.1z"/>
	<path id="Trazado_46" class="st7" d="M93,118v-0.3l-0.1,0.1l-0.2,0.1v-0.4l-0.2-0.2l-0.6-0.1l0.2,0.4l-0.2,0.1l-0.1-0.1
		c0-0.1-0.1-0.1-0.2-0.1l-0.8,0.2l0.3,0.6l0.3,0.3h0.4l-0.2,0.2l-0.3,0.1l0.3,0.3h0.2l0.8-0.1l0.2-0.1v-0.2l-0.1-0.2h0.1l0.1-0.1
		L93,118z"/>
	<path id="Trazado_47" class="st7" d="M95.6,117.5l0.2,0.2l0.3-0.1l0.1,0.2l-0.1,0.1l-0.6,0.1l0.1,0.2l0.4,0.3h0.3l0.4-0.4v0.2
		l0.1,0.1c0.1,0.2,0.2,0.2,0.4,0.2H98l-0.2-0.6l0.3-0.1l0.2-0.2v-0.4l-0.6,0.2v-0.3c0.2-0.2,0.3-0.3,0.2-0.6c-0.1-0.4-0.3-0.8-0.7-1
		l-0.2,0.4l-0.4,0.2l-0.2,0.3l0.1,0.3c0.1,0.1,0.1,0.2,0,0.3c0,0,0,0,0,0c-0.1,0-0.1,0-0.2-0.1l-0.5-0.3l-0.2-0.1L95.6,117.5z"/>
	<path id="Trazado_48" class="st7" d="M94.8,119h-0.4l0.1,0.3c0.1,0.2,0.1,0.3-0.1,0.3l-0.2-0.3h-0.3l-0.7,0.3l0.3,0.4
		c0.2,0.3,0.4,0.4,0.7,0.2h0.3l-0.1,0.1l-0.2,0.2v0.2h0.3l0.2-0.1c0-0.1,0-0.3,0.2-0.2c0.1,0.1,0.1,0.1,0.1,0.2v0.1h0.2l0.3-0.1
		v-0.4l-0.2-0.3l0.3-0.2c0.1-0.1,0.1-0.2-0.1-0.6l-0.3,0.3c0,0.1,0,0.1-0.2,0.1l0.1-0.6C95.1,119,95,119,94.8,119z"/>
	<path id="Trazado_49" class="st7" d="M92.8,119.7c0.1-0.3,0.1-0.4-0.1-0.3l-0.4,0.1l-0.2,0.2l0.1,0.1l0.2,0.1
		c0.1-0.1,0.2,0,0.1,0.1l-0.2-0.1c-0.2,0-0.3,0-0.6,0.3l-0.3,0.7l0.8,0.3c0.2,0.1,0.3,0,0.4-0.2l0.1,0.6l0.4-0.3
		c0.2-0.2,0.2-0.4,0-0.4c-0.1-0.1-0.1-0.1,0.1-0.1l0.3,0.2l0.1-0.2l-0.3-0.4l-0.3-0.4L92.8,119.7z"/>
	<path id="Trazado_50" class="st7" d="M91.7,119.8v-0.1h-0.3c-0.1,0-0.2,0-0.2-0.1l-0.1,0.3h-0.6l-0.6,0.3c0.2,0.1,0.4,0.3,0.3,0.6
		c0.1,0.1,0.2,0.1,0.2,0c0,0,0,0,0,0l0.2-0.1h0.1v0.2l-0.2,0.3h0.3l0.2-0.1l0.1-0.7L91.7,119.8z"/>
	<path id="Trazado_51" class="st7" d="M92.9,121.8v0.6l0.2,0.2l0,0l0.4,0.2h0.2l0.1-0.1l-0.1,0.2c0,0.1-0.2,0.1-0.3,0.1h-0.2
		l-0.1,0.2l0.1,0.2l0.2,0.2v0.1l-0.1,0.2c0.1,0.3,0.2,0.6,0.6,0.6h0.3l0.1-0.2v0.2l-0.4,0.2l-0.1,0.1l0.6,0.6
		c0.3-0.1,0.5-0.3,0.6-0.6l-0.1-0.1c0.3-0.1,0.4-0.2,0.4-0.6v-0.1h-0.1l-0.5-0.3h0.1l0.3,0.2h0.1v-0.2l0.3-0.2l0.1-0.3
		c0-0.2-0.1-0.3-0.2-0.4l0.3-0.4c0-0.3-0.1-0.4-0.6-0.4c0-0.2-0.1-0.3-0.2-0.3h-0.3c0-0.2-0.1-0.3-0.4-0.3c-0.2,0-0.3,0.1-0.4,0.1
		h-0.3L92.9,121.8z"/>
	<path id="Trazado_52" class="st7" d="M95.8,119.9l-0.1,0.3l0.2,0.4h0.3l-0.1,0.2l0.3,0.4H97v-0.1l-0.1-0.3l0.1-0.1h0.1l0.1,0.1v0.1
		l0.7-0.1l-0.1-0.2c-0.1-0.2-0.2-0.2-0.3-0.2l-0.2-0.1l0.2-0.1l0.2,0.1h0.2l0.4-0.6v-0.2l0.2-0.2l-0.3-0.2h-0.7l-0.3,0.1l-0.1,0.2
		l-0.2,0.2v-0.9c-0.1,0.2-0.3,0.3-0.6,0.3l-0.2,0.4l0.2,0.1c0.1,0,0.1,0.1,0.1,0.2h-0.2l-0.2-0.2L95.8,119.9z"/>
	<path id="Trazado_53" class="st7" d="M98.4,120.8l-0.1-0.3l-0.2,0.3l-0.1,0.4l0.1,0.1H98l-0.3,0.1l0.2,0.4h0.6l0.2-0.3l0.3-0.1
		l0.2-0.1v-0.4l0.1-0.3v-0.2h-0.2l-0.5,0.1L98.4,120.8z"/>
	<path id="Trazado_54" class="st7" d="M101.3,120.4c0-0.1,0-0.1-0.1-0.1c0,0,0,0,0,0l-0.6-1.1l-0.4-0.3l-0.4,0.7l0.3,0.7l-0.4-0.1
		v0.6l0.1,0.1h0.6v0.1h-0.1l-0.1,0.4l0.6-0.1l0.3-0.4l0.2,0.2l0.2,0.1L101.3,120.4z"/>
	<path id="Trazado_55" class="st7" d="M101.1,123.3c0-0.1,0-0.2,0.2-0.2l0.1-0.1l0.1-0.3l-0.8-0.1l-0.1,0.3l-0.2-0.2
		c-0.1-0.1-0.2-0.1-0.3-0.1l-0.4,0.2l-0.1,0.3h0.3c0.2,0,0.2,0.1,0.1,0.2h-0.2l-0.2-0.1c-0.2,0.2-0.3,0.5-0.2,0.7c0,0,0,0,0,0.1
		l0.3-0.2c0.1-0.1,0.2-0.1,0.3-0.1c0.1,0.1,0.1,0.2-0.1,0.4c-0.2,0.1-0.2,0.4-0.1,0.6c0,0,0.1,0.1,0.1,0.1c0.3,0.1,0.3,0.2,0.3,0.6
		c0.7-0.3,0.9-0.6,0.9-0.9l-0.3-0.3v-0.3h0.2l0.6,0.4l0.1-0.3v-0.4l-0.3-0.1l-0.1,0.1L101.1,123.3z"/>
	<path id="Trazado_56" class="st7" d="M91.3,135.5c0.4-0.1,0.9-0.2,1.5-0.3l1.7,0.2h1.7l1.3-1l0.5-0.7l-1.3-0.3
		c-0.5,0-1.1,0.2-1.5,0.6l0.9-0.2l0.9,0.2c-0.3,0.5-0.8,0.8-1.3,0.9l-3.1-0.3c-0.6,0.3-1.1,0.4-1.3,0.8l-0.7,1L91.3,135.5z"/>
	<path id="Trazado_57" class="st7" d="M100.3,131.9v0.7h1.1c0.9,0.2,1.6,0.6,2.2,1.2c0.9-0.1,1.7,0,2.5,0.4c0.8,0.3,1.4,0.8,2,1.3
		l-0.6-1.1l-0.6-0.3l0.8-0.2c0.5-0.1,1,0,1.3,0.3c-0.3-0.4-0.7-0.7-1.2-0.8l-1.2,0.2l-1.3-0.4l-0.6-0.1l0.4-0.2l1.8-0.3l3,0.1
		c-0.6-0.3-1.2-0.5-1.9-0.6h-2.4c-0.7,0.1-1.3,0.3-1.9,0.7c-0.5-0.4-1-0.6-1.6-0.8l-1.3-0.1L100.3,131.9z"/>
	<path id="Trazado_58" class="st7" d="M101.5,133.7l-1.2-0.1l0.8,0.4c0.6,0.4,1.1,0.9,1.3,1.6c0.2,0.7,0.6,1.2,1.1,1.7l2,0.3
		l-1.3-0.6c-0.5-0.3-0.8-0.7-1-1.2l2,0.1c0.7,0.2,1.4,0.6,1.9,1.1c-0.4-0.9-1.1-1.5-2-1.8h-2.1C102.6,134.6,102.1,134,101.5,133.7z"
		/>
	<path id="Trazado_59" class="st7" d="M110.3,138.6c-1.5,1.3-3.3,2.2-5.2,2.8c-2,0.6-4,0.9-6.1,0.9c-2.1,0-4.1-0.3-6.1-0.9
		c-1.9-0.6-3.7-1.5-5.3-2.8c1.5,1.5,3.2,2.7,5.2,3.6c1.9,0.9,4,1.4,6.2,1.3c2.1,0,4.2-0.5,6.2-1.3
		C107.2,141.4,108.9,140.2,110.3,138.6z"/>
	<path id="Trazado_60" class="st7" d="M96.6,139.2c0.5-0.1,0.8-0.5,1-0.9l0.1-0.6c-0.5,0.6-1.3,0.9-2,1l-2.1,0.1L96.6,139.2z"/>
	<path id="Trazado_61" class="st7" d="M98.6,137.1c0.3,0.4,0.5,0.9,0.3,1.3c-0.2,0.7-0.6,1.3-1.2,1.6c1-0.4,1.7-0.9,1.9-1.6
		c0.2-0.7,0-1.5-0.5-2L98.6,137.1z"/>
	<path id="Trazado_62" class="st5" d="M69,129.1h1c0.2-0.1,0.2,0,0.3,0.3h0.2v-1h-0.2c0,0.2-0.1,0.3-0.3,0.3c0,0-0.1,0-0.1,0h-1
		v-1.2h1.2c0.2-0.1,0.3,0.1,0.4,0.6h0.1v-0.8h-3v0.1H68c0.3,0,0.6,0.1,0.4,0.3v2.4c0.1,0.3-0.1,0.5-0.4,0.5h-0.2v0.1h3.1l0.1-0.8
		h-0.2c0,0.4-0.2,0.6-0.6,0.6h-0.9l-0.3-0.2L69,129.1z"/>
	<path id="Trazado_63" class="st5" d="M130.3,126.8h-0.2l-0.6,0.3l-0.6,0.4v0.1l0.9-0.4v3l-0.3,0.2h-0.2v0.1h1.7v-0.1h-0.4l-0.2-0.2
		L130.3,126.8z"/>
	<path id="Trazado_64" class="st5" d="M134.9,127.1c-0.3,0.1-0.5,0.4-0.4,0.7c0,0.4,0.2,0.8,0.9,1c-0.7,0.3-0.9,0.6-0.9,1
		c0,0.3,0.1,0.5,0.3,0.7l0.9,0.3l1-0.3l0.2-0.8c0-0.5-0.4-1-0.9-1.1c0.6-0.2,0.8-0.4,0.8-0.9l-0.2-0.7l-0.9-0.1
		C135.4,126.8,135.2,126.9,134.9,127.1z M135.2,128.1l-0.2-0.4c0-0.4,0.2-0.7,0.8-0.7c0.3,0,0.6,0.2,0.7,0.5c0,0.1,0,0.1,0,0.2
		l-0.4,0.9L135.2,128.1z M134.9,129.8c0-0.4,0.2-0.7,0.6-1c0.8,0.3,1.2,0.7,1.1,1c0,0.6-0.3,0.8-0.9,0.9
		C135.2,130.6,134.9,130.3,134.9,129.8z"/>
	<path id="Trazado_65" class="st5" d="M142.5,127.2c-0.3-0.2-0.6-0.4-1-0.3c-0.3,0-0.7,0.1-0.9,0.3c-0.3,0.2-0.3,0.4-0.3,0.9
		c0,0.2,0,0.6,0.3,0.7c0.2,0.3,0.5,0.5,0.8,0.4l0.9-0.4c-0.1,0.9-0.8,1.7-1.7,1.9l0.1,0.1c1.3-0.4,2.1-1.2,2.1-2.5
		C142.8,127.9,142.7,127.5,142.5,127.2z M142,127.2l0.3,1v0.4l-0.9,0.3c-0.6,0-0.8-0.3-0.8-1s0.2-1,0.8-1
		C141.7,127,141.9,127,142,127.2z"/>
	<path id="Trazado_66" class="st5" d="M146.3,128.8L146.3,128.8l0.7-0.1c0.5,0,1,0.4,1,0.9c0,0,0,0.1,0,0.1l-0.3,0.7l-0.6,0.3l1-0.3
		c0.3-0.2,0.4-0.5,0.4-0.9c0-0.3-0.1-0.7-0.4-0.8c-0.2-0.3-0.6-0.5-1-0.4l-0.7,0.1v-1h1.7l0.1-0.4h-0.1l-0.2,0.1h-1.5L146.3,128.8z"
		/>
	<path id="Trazado_67" class="st5" d="M146.3,130.7l0.7,0.1l0.1-0.1l-0.9-0.4l-0.2,0.1L146.3,130.7z"/>
	<path id="Trazado_68" class="st5" d="M58.5,52.2l0.2,0.8v4.5c0,0.3-0.1,0.5-0.3,0.7l-0.9,0.2h-0.3v0.2h4.6c0.8,0,1.6-0.2,2.1-0.8
		c0.4-0.3,0.7-0.8,0.7-1.3c-0.1-0.9-0.8-1.5-1.9-1.8l0,0l1-0.6c0.3-0.2,0.4-0.6,0.3-0.9c0-0.5-0.2-0.8-0.8-1.2l-0.9-0.2l-4.3-0.1
		l-0.8,0.1V52h0.4L58.5,52.2z M59.8,51.9h1.1c0.6,0,1.2,0.1,1.7,0.4c0.2,0.3,0.3,0.6,0.3,1c0,0.8-0.6,1.3-1.8,1.3h-1.3L59.8,51.9z
		 M62.8,55.4c0.4,0.2,0.6,0.7,0.6,1.1c0,0.5-0.1,0.9-0.5,1.2c-0.5,0.4-1.1,0.6-1.7,0.6c-1.1,0.1-1.5-0.2-1.5-1.1v-2.4h1.3
		C61.7,54.8,62.3,55,62.8,55.4z"/>
	<path id="Trazado_69" class="st5" d="M43.9,62.9V64c-1.1,0-2.2,0.3-3,0.9c-0.6,0.5-1,1.6-1.2,3.3c-0.3,2.5-0.4,4.9-0.3,7.4v21h0.8
		l0.3-28.5c0.2-1.6,0.7-2.7,1.3-3.3c0.9-0.6,2-0.9,3-0.8v-1.1H43.9z"/>
	<path id="Trazado_70" d="M37.6,63.5c-0.8-0.3-1.6-0.5-2.4-0.6l-3.4-0.1V64c1-0.1,2,0.1,2.9,0.6c0.7,0.6,1.1,1.6,1.5,3.1
		c0.3,2.6,0.4,5.2,0.3,7.8v12.4L17.9,62.8H9.4V64c1.5,0,2.5,0.2,3,0.8c0.6,0.6,0.9,1.5,0.9,3L13.3,89c-0.1,1.2-0.3,2.4-0.6,3.6
		c-0.3,0.7-0.8,1.2-1.5,1.5l-2.5,0.1v1.3h1l2.2-0.2c0.8,0,1.5-0.2,2.1-0.7c0.7,0.4,1.4,0.6,2.1,0.7l3.4,0.2v-1.3L17.2,94
		c-0.6-0.3-1.2-0.8-1.5-1.5c-0.4-1.2-0.5-2.4-0.6-3.6l-0.1-22.1l22.1,29.8h1.1v-21c0-2.6,0.1-5.1,0.3-7.6c0.2-1.7,0.7-2.8,1.3-3.4
		c0.9-0.5,2-0.7,3-0.6v-1.2l-3.1,0.1L37.6,63.5z"/>
	<path id="Trazado_71" class="st5" d="M16.9,69.9l-0.8-1.1L16,82.2l0.4,9.3c0.2,0.7,0.5,1.3,1,1.8c1,0.6,2.1,0.9,3.3,0.8v1.3h0.8V94
		c-1.3,0.1-2.4,0-3-0.6c-0.7-0.4-1.1-1.6-1.5-3.3L16.9,69.9z"/>
	<path id="Trazado_72" class="st5" d="M19.9,62.9h-1l17.4,23v-1.2L19.9,62.9z"/>
	<path id="Trazado_73" class="st5" d="M54.2,127.4c0.3,0,0.6,0.1,0.5,0.3v2.4c0.1,0.3-0.1,0.5-0.5,0.5h-0.2v0.1h3.1l0.1-0.8h-0.1
		c-0.1,0.4-0.3,0.6-0.7,0.6h-1l-0.3-0.2v-1.1h1.1c0.2-0.1,0.3,0,0.3,0.3h0.1v-1h-0.1c0,0.2-0.1,0.3-0.3,0.3c0,0-0.1,0-0.1,0h-1.1
		v-1.2h1.3c0.1-0.1,0.3,0.1,0.4,0.6H57v-0.8H54v0.1L54.2,127.4z"/>
	<path id="Trazado_74" class="st5" d="M52.5,128.6c0-0.5-0.2-1-0.7-1.2c-0.5-0.5-1.1-0.7-1.8-0.6l-2.1,0.1h0.2
		c0.2,0,0.4,0.1,0.4,0.6v2.6c0,0.3-0.2,0.5-0.6,0.5h-0.1v0.1H50c0.7,0.1,1.4-0.2,1.9-0.7C52.3,129.6,52.5,129.2,52.5,128.6z
		 M51.8,128.8c0,0.3-0.1,0.6-0.1,0.8l-0.3,0.4l-0.8,0.4l-0.9,0.1l-0.4-0.1l-0.1-0.2V127h0.6c0.6,0,1.2,0.2,1.7,0.6
		C51.7,127.8,51.9,128.3,51.8,128.8z"/>
	<path id="Trazado_75" class="st5" d="M62.4,127.3v0.1l0,0c0.3-0.1,0.6,0.1,0.6,0.4v2.4c0,0.2-0.2,0.3-0.6,0.3l0,0v0.1h1.9
		c0.6,0,1.2-0.2,1.7-0.7c0.3-0.3,0.5-0.7,0.6-1.1c0-0.5-0.2-0.9-0.6-1.2c-0.6-0.3-1.2-0.4-1.8-0.4L62.4,127.3z M63.4,127.4l0.4-0.1
		c0.6,0,1.1,0.2,1.6,0.4c0.3,0.3,0.5,0.7,0.6,1.1c-0.1,0.7-0.2,1-0.6,1.2l-0.6,0.3l-1,0.1l-0.3-0.1l-0.1-0.1L63.4,127.4z"/>
	<path id="Trazado_76" class="st5" d="M60.7,127.3h-0.2l-0.7-0.1c-0.8,0-1,0.3-1,0.8c0,0.3,0.1,0.7,0.4,0.8l0.9,0.6
		c0.3,0.1,0.3,0.4,0.4,0.7l-0.2,0.4l-0.6,0.1c-0.5,0-0.9-0.3-1-0.8h-0.1l0.1,0.9h0.1l0.1-0.1l0.9,0.2l0.8-0.3
		c0.2-0.1,0.4-0.4,0.3-0.7c0-0.3-0.1-0.6-0.6-0.7l-0.9-0.6l-0.4-0.7c0.1-0.3,0.2-0.6,0.7-0.6c0.4,0,0.8,0.3,0.9,0.7h0.2L60.7,127.3z
		"/>
</g>
</svg>
