<?xml version="1.0" encoding="utf-8"?>
<!-- Generator: Adobe Illustrator 26.1.0, SVG Export Plug-In . SVG Version: 6.00 Build 0)  -->
<svg version="1.1" id="Capa_1" xmlns="http://www.w3.org/2000/svg" xmlns:xlink="http://www.w3.org/1999/xlink" x="0px" y="0px"
	 viewBox="0 0 200 200" style="enable-background:new 0 0 200 200;" xml:space="preserve">
<style type="text/css">
	.st0{fill:#222222;}
</style>
<g>
	<g>
		<g>
			<g>
				<path class="st0" d="M81.7,78.4l-8.9-12.8c-0.4,0-0.9,0.1-1.7,0.1h-9.8v12.7h-8.1V34.8h17.9c3.8,0,7.1,0.6,9.9,1.9
					c2.8,1.2,4.9,3,6.4,5.4c1.5,2.3,2.2,5.1,2.2,8.3c0,3.3-0.8,6.1-2.4,8.5c-1.6,2.4-3.9,4.1-6.9,5.3l10,14.3H81.7z M78.8,43.9
					c-1.8-1.5-4.5-2.2-8-2.2h-9.5v17.4h9.5c3.5,0,6.2-0.8,8-2.3c1.8-1.5,2.7-3.7,2.7-6.4C81.6,47.6,80.6,45.4,78.8,43.9z"/>
			</g>
			<g>
				<path class="st0" d="M113.2,74c-3.4-3.4-5-8.2-5-14.5V34.8h8.1v24.3c0,8.5,3.7,12.8,11.1,12.8c7.3,0,11-4.3,11-12.8V34.8h8v24.6
					c0,6.3-1.7,11.1-5,14.5c-3.3,3.4-8,5.1-14,5.1C121.3,79,116.6,77.3,113.2,74z"/>
			</g>
			<g>
				<path class="st0" d="M61.5,133.1c-3.5-1.9-6.3-4.6-8.3-8c-2-3.4-3-7.2-3-11.5c0-4.3,1-8.1,3-11.5c2-3.4,4.8-6.1,8.4-8
					c3.5-1.9,7.5-2.9,11.9-2.9c3.6,0,6.8,0.6,9.8,1.9c2.9,1.2,5.4,3,7.5,5.4l-5.2,4.9c-3.2-3.4-7-5.1-11.6-5.1c-3,0-5.7,0.7-8,2
					c-2.4,1.3-4.2,3.1-5.5,5.4c-1.3,2.3-2,5-2,7.9c0,2.9,0.7,5.6,2,7.9c1.3,2.3,3.2,4.1,5.5,5.4c2.4,1.3,5,2,8,2
					c4.6,0,8.5-1.7,11.6-5.2l5.2,5c-2,2.4-4.5,4.2-7.5,5.4c-3,1.2-6.2,1.9-9.8,1.9C69,136,65,135,61.5,133.1z"/>
			</g>
			<g>
				<path class="st0" d="M136.8,125.3H115l-4.3,10.1h-8.3L122,91.8h8l19.7,43.6h-8.5L136.8,125.3z M134.1,118.9l-8.2-19l-8.2,19
					H134.1z"/>
			</g>
		</g>
		<g>
			<path class="st0" d="M59.4,168.6l0-9.8l-4.8,8.1h-1.7l-4.8-7.9v9.6h-3.6v-16.4h3.1l6.1,10.2l6-10.2h3.1l0,16.4H59.4z"/>
			<path class="st0" d="M84.5,165h-7.6l-1.5,3.5h-3.9l7.3-16.4h3.7l7.3,16.4h-4L84.5,165z M83.3,162.2l-2.6-6.3l-2.6,6.3H83.3z"/>
			<path class="st0" d="M98.5,152.2h3.8v13.3h8.2v3.1h-12V152.2z"/>
			<path class="st0" d="M132.2,165.5v3h-12.7v-16.4h12.4v3h-8.6v3.6h7.6v3h-7.6v3.8H132.2z"/>
			<path class="st0" d="M157.2,152.2v16.4H154l-8.2-10v10h-3.7v-16.4h3.1l8.2,10v-10H157.2z"/>
		</g>
	</g>
	<g>
		<path class="st0" d="M182.7,186.6H17.3V13.4h165.4V186.6z M24,179.9H176V20.1H24V179.9z"/>
	</g>
</g>
</svg>
