<?xml version="1.0" encoding="utf-8"?>
<!-- Generator: Adobe Illustrator 26.0.2, SVG Export Plug-In . SVG Version: 6.00 Build 0)  -->
<svg version="1.1" id="Capa_1" xmlns="http://www.w3.org/2000/svg" xmlns:xlink="http://www.w3.org/1999/xlink" x="0px" y="0px"
	 viewBox="0 0 200 200" style="enable-background:new 0 0 200 200;" xml:space="preserve">
<style type="text/css">
	.st0{fill:#1D1D1B;}
	.st1{clip-path:url(#SVGID_00000115479075186305838050000011664997989714005124_);}
	.st2{opacity:0.5;enable-background:new    ;}
	.st3{clip-path:url(#SVGID_00000116949853679443931620000005350748041223185549_);}
	.st4{fill:url(#path5348_00000183251385522372876550000016805826311435201438_);}
	.st5{fill:#676767;}
	.st6{fill:#3C3C3C;}
	.st7{fill:#F6F6F6;}
	.st8{fill:#444444;}
</style>
<g id="Grupo_13">
	<g id="Grupo_12">
		<path id="Trazado_77" d="M84.6,67.9c-0.4,1.4-0.6,2.7-0.7,4.1c-0.2,0.9-0.3,1.7-0.3,2.6c0.1,0.2,0.1,0.4,0,0.6
			c-0.2,0.5-0.3,1-0.3,1.5c-0.1,0.2,0.1,0.5,0,0.7c-0.2,0.6-0.4,1.3-0.6,1.9c-0.1,0.2-0.3,0.3-0.4,0.5c-0.1,0.1-0.3,0.1-0.3,0.3
			c-0.1,0.1-0.1,0.3-0.2,0.3c-0.2-0.1,0-0.2,0-0.4c0-0.1,0-0.2,0-0.3c0-0.2-0.2-0.3-0.2-0.5c0.1-0.3-0.1-0.4-0.2-0.5
			c0.1-0.1,0.1-0.4,0.3-0.5l-0.2-0.9c0.2-0.2,0.1-0.5,0.3-0.7l0-0.3c0-0.1-0.1-0.2,0-0.3c0-0.1,0-0.2,0.1-0.2c0.3-0.2,0-0.5,0.1-0.8
			c0-0.2,0.1-0.3,0.1-0.4l0.3-1.7c0-0.2-0.1-0.4,0.1-0.6c0,0,0,0,0-0.1c0,0,0,0,0,0c0.1-0.2,0-0.4,0-0.7c0-0.1,0-0.2,0-0.2
			c0-0.2,0-0.3,0-0.5c0-0.1,0-0.2,0.1-0.2l0,0c0.1-0.3,0.1-0.6,0-0.8c0.2-1.6,0.5-3.1,0.9-4.7c0-0.2,0.1-0.4,0-0.6
			c0.1-1,0.3-2.1,0.7-3c0.1-0.2,0.2-0.5-0.2-0.4c-0.2,0-0.3,0-0.5,0c-0.2,0.2-0.5,0.2-0.8,0.2c-0.1,0-0.2,0-0.2,0l-0.3,0
			c-0.2,0.2-0.6,0.1-0.8,0.3c-0.8,0-1.6,0.1-2.4,0.3c-1.4,0.2-2.7,0.4-4.1,0.5c-2.2,0.2-4.3,0.5-6.5,0.7c-0.2,0.1-0.4,0.1-0.6,0.1
			h-0.2c-0.3,0-0.4,0.3-0.5,0.6c-0.8,1.9-1.4,3.9-2.3,5.7c-0.5,1.1-0.9,2.1-1.4,3.2c-0.2,0.5-0.5,1-0.9,1.4c-0.2,0.2-0.2,0-0.3-0.1
			c0-0.1,0-0.1,0-0.2c0-0.1,0.1-0.3,0.2-0.4c0.1-0.5,0.2-1,0.4-1.5c0-0.3,0.1-0.5,0.2-0.8l0.3-1c0-0.1,0-0.3,0.1-0.4
			c0.3-1,0.6-2,0.7-3c0.3-0.5,0.4-1.1,0.7-1.6c0.5-1,0.8-2,1.2-3.1c0.1-0.2,0.3-0.3,0.5-0.3c2.7-0.5,5.4-0.8,8.1-1.1
			c0.1,0,0.1-0.1,0.2-0.1c0.1,0,0.2,0,0.1-0.1l0.3,0c0.2-0.1,0.4,0.1,0.6,0l1.8-0.3c0.3-0.1,0.6,0,0.8-0.1c1.5-0.2,3-0.4,4.5-0.6
			c0.6-0.1,1.2-0.2,1.8-0.3c0.6,0,1.2,0.1,1.8,0.3c2.7,0.5,5.4,1,8.2,1.5c0.7,0.1,1.4,0.2,2.1,0.2c0.1,0.1,0.3,0.1,0.4,0.2
			c0.7,0.2,1.4,0.3,2.2,0.4c0.4,0,0.7,0.4,0.6,0.8c0.1,0.6,0.2,1.2,0.3,1.9c0,0.2,0.1,0.3,0.2,0.4c0,0.3,0.1,0.5,0.2,0.8
			c0,0.2,0,0.3,0,0.5c0,0.1,0,0.2,0,0.4l0.4,1.8c0.1,0.2,0,0.4,0.1,0.6c-0.3,0.3,0,0.6,0,0.8c0.1,0.1,0.1,0.3,0,0.5
			c0.1-0.1-0.1-0.3,0.1-0.4c0.1,0.9,0.1,1.8,0.1,2.6c0,0.2,0,0.4,0,0.6c0,0.2-0.1,0.4-0.1,0.6c0,0.1,0,0.2-0.2,0.2
			c-0.2-0.4-0.4-0.9-0.5-1.3c-0.3-0.2-0.1-0.7-0.4-0.9c0-0.2,0-0.4-0.2-0.6c-0.4-0.2-0.5-0.7-0.3-1.1c-0.1-0.1-0.2-0.2-0.1-0.4
			c0-0.1,0.1-0.3,0.1-0.4c-0.3-0.6-0.3-1.3-0.7-1.8c-0.2-0.4-0.2-0.8,0-1.1c-0.1-0.1-0.2-0.2-0.2-0.3c0-0.2-0.1-0.4-0.1-0.7
			c0-0.4,0-0.8-0.1-1.2c-0.2-0.1-0.1-0.4-0.2-0.5c-0.3-0.1-0.6-0.2-0.9-0.2c0-0.2-0.2,0-0.3-0.1l-0.9,0c0-0.2-0.2-0.1-0.2-0.2
			l-0.1,0c-0.3,0-0.7-0.1-1-0.2l-4.7-0.9c-0.3-0.1-0.6-0.1-0.9-0.1c-0.2-0.1-0.4,0-0.6-0.1c-0.1-0.1-0.2-0.2-0.4-0.2
			c-0.5,0-0.9-0.1-1.4-0.3c-0.1,0-0.2,0-0.4,0c-0.1,0-0.3,0-0.4,0c-0.2-0.1-0.5,0.1-0.7-0.1c0,0-0.1-0.1-0.1-0.1
			c-0.1,0-0.2-0.1-0.3,0c-0.1,0.1-0.1,0.2,0,0.3c-0.2,0.3,0.1,0.6,0.1,0.8c0.1,0.8-0.3,1.4-0.2,2.2c-0.1,0.2,0,0.4-0.1,0.6
			c0,0.8-0.4,1.6-0.4,2.4C84.6,67.5,84.7,67.7,84.6,67.9z"/>
		<path id="Trazado_78" d="M120.6,80.6l-0.3-0.7c-0.2-0.3-0.2-0.6-0.4-0.8c0-0.1,0-0.3-0.1-0.3c-0.3-0.1-0.3-0.4-0.3-0.6
			c-0.1-0.2,0-0.4-0.1-0.6c-0.4-0.6-0.6-1.3-0.7-2c0-0.1,0.1-0.2,0-0.4l-0.2-0.4c0-0.1-0.1-0.3-0.2-0.4c0.1-0.8,0-1-0.8-1
			c-0.2,0-0.4-0.1-0.6-0.1c-0.5-0.2-1-0.3-1.5-0.3c-0.2-0.2-0.6,0.1-0.8-0.1c0-0.1-0.1-0.1-0.1,0c-0.1,0.1-0.4,0.1-0.2,0.4
			c0,0.3,0.1,0.7,0.2,1c0.2,0.3,0.4,0.7,0.3,1c0.4,0.9,0.4,2,0.8,2.9c0.1,0.2,0,0.5,0.1,0.7c0,0.2,0,0.3-0.1,0.5
			c0.1,0.2,0.1,0.5,0,0.7v0.2c0,0.2-0.1,0.2-0.2,0.1c0-0.2-0.1-0.4-0.3-0.6c-0.1-0.2-0.1-0.4-0.3-0.6c0-0.3-0.1-0.5-0.4-0.7
			c-0.2-0.1-0.1-0.5-0.2-0.7c-0.1-0.2,0.1-0.5-0.1-0.7c-0.4-0.7-0.7-1.5-0.9-2.3c-0.1-0.1,0-0.2,0-0.3c-0.4-1-0.7-2.1-1-3.2
			c-0.4-1.1-0.7-2.2-0.9-3.3c-0.1-0.6-0.6-1-1.2-1.1c-0.2,0-0.3-0.1-0.5-0.1c-0.3,0-0.5,0-0.8-0.1l-0.4-0.1
			c-0.2-0.2-0.5-0.1-0.8-0.2c-0.1-0.1-0.2-0.3-0.4-0.2c-0.3,0-0.5-0.1-0.8-0.1c-0.9-0.3-1.8-0.5-2.7-0.7c-0.2,0-0.2,0-0.2,0.2
			c0.2,1.3,0.4,2.6,0.8,3.9c0.2,0.2,0,0.4,0.1,0.6c0.4,1.5,0.7,3.1,1,4.7c0.3,1.3,0.5,2.7,0.5,4.1c-0.1,0.1,0,0.3-0.2,0.3
			c-0.2-0.1-0.1-0.3-0.2-0.4c-0.3-1.1-0.7-2.1-1-3.2c-0.3-0.9-0.6-1.9-0.7-2.8c-0.3-1.9-1-3.8-1.2-5.7c-0.1-0.8-0.3-1.6-0.6-2.4
			c-0.1-0.4-0.2-0.8-0.1-1.2c0.3,0.1,0.6,0.2,0.9,0.3c2.8,0.9,5.6,1.6,8.4,2.4c0.2,0.1,0.4,0.2,0.6,0.2c0.6,0,0.8,0.4,0.9,0.8
			c0.3,1.2,0.7,2.4,1.2,3.6c0.2,0.4,0.1,0.9,0.4,1.2c0.5-0.7,1-0.1,1.5-0.1c0.2,0.1,0.4,0,0.6,0.1c0.4,0.2,0.9,0,1.3,0.3
			c0.3,0.2,0.6,0,0.5-0.4c-0.1-0.6-0.3-1.2-0.5-1.8c-0.2-0.5,0-0.6,0.4-0.5c0.7,0.1,1.5,0.2,2.2,0.2c0,0,0.1,0,0.1,0
			c0.1,0.1,0.2,0.1,0.4,0.2l0.7,0c0.2,0,0.4,0,0.6,0l0.2,0c0,0.2,0.1,0.2,0.2,0.1c0.2,0,0.4,0,0.6,0c0.1,0,0.3,0,0.4,0.1
			c0.2,0,0.5,0,0.7,0c0.5,0.2,1,0.2,1.5,0.2c1.6,0.1,3.2,0.4,4.8,0.6c1,0.2,2.1,0.3,3.1,0.3c0.1,0,0.1,0,0.2,0
			c0.4,0.2,1-0.1,1.3,0.3c0.2,0.3,0.1,0.8,0.2,1.3c0,0.6,0.2,1.2,0.3,1.8c-0.1,0.2-0.1,0.5,0,0.7c0,0.6,0,1.2,0.1,1.8
			c0,0.3,0,0.6-0.1,0.8c0,0.1-0.1,0.2-0.2,0.1c-0.1-0.1-0.2-0.1-0.1-0.3c-0.3-1.1-0.6-2.2-1-3.3c0-0.2-0.1-0.4-0.1-0.5
			c-0.1-0.2,0-0.4-0.1-0.6l0-0.4c-0.1-0.2,0-0.4-0.1-0.5l-0.7,0c-0.3-0.1-0.6,0.1-0.9-0.1c-1.2,0-2.3-0.4-3.5-0.4
			c-1.2,0-2.2-0.3-3.4-0.5c-1.3-0.1-2.5-0.2-3.8-0.4c-0.9-0.2-1.9-0.3-2.8-0.3c0.1,0.6,0.3,1.1,0.5,1.7c0.1,0.2,0,0.4,0.1,0.6
			c0.2,0.9,0.4,1.8,0.7,2.7c0.2,0.6,0.3,1.1,0.3,1.7c0.2,0.7,0.3,1.4,0.3,2.2c-0.1,0.3-0.1,0.5-0.1,0.8v0.3
			C120.7,80.5,120.8,80.6,120.6,80.6z"/>
		<path id="Trazado_79" d="M138.8,73.7l0.3,0c0.1-0.1,0.2-0.1,0.3-0.1c1.4-0.3,2.8,0.3,4.2,0c0.1,0.1,0.2,0.1,0.3,0.1
			c0.6,0.1,1.3,0.2,1.9,0.2c0.8,0,1.6,0.1,2.4,0.2c1.5,0.1,3,0.3,4.5,0.4c0.5,0,0.9,0.1,1.5,0.1c-0.4-1.3-0.9-2.7-1.5-4
			c-0.5-1.1-1.4-2-2.4-2.7c-0.9-0.5-1.9-0.7-3-0.6c-1.5,0.1-2.9,0.6-4,1.6c-0.6,0.6-1.2,1.2-1.7,1.9c-0.3,0.4-0.6,0.8-1,1.1
			c-0.1-0.6,0.1-1.1,0.4-1.6c0.6-1,1.3-1.8,2.3-2.5c0.7-0.4,1.4-0.8,2.2-1c0.2-0.1,0.4-0.1,0.6-0.2c0.2-0.1,0.5,0,0.7-0.1
			c2.4-0.4,4.8,0.7,6.1,2.8c0.8,1.3,1.3,2.7,1.5,4.3c0,0.1,0.1,0.3,0.1,0.4c0,0.6,0.5,0.4,0.8,0.5c1,0.1,2,0.1,3,0
			c0.1,0.2,0.3,0,0.4,0.2c0.1,0.3,0.2,0.7,0.3,1c0.1,0.1,0.2,0.3,0.1,0.5c-0.1,0.2-0.1,0.4,0.1,0.6c0,0.1,0.1,0.3,0.2,0.3
			c0.6,0.2,1.2,0.2,1.8,0c0.3,0.1,0.6,0,0.8,0.1c1.1,0.1,2.1,0.2,3.2,0.2c0.3,0.1,0.6,0,0.8,0.1c1.2,0.2,2.4,0.3,3.6,0.3
			c0.3,0.1,0.7,0,1.1,0.1l1.1-0.1c0.3,0.1,0.6,0,0.8,0.1c0.9,0.1,1.8,0.2,2.8,0.2c0.2,0.1,0.4,0,0.6,0.1c1.1,0,2.2,0.4,3.3,0.3
			c0.3,0.1,0.6,0,0.9,0.1l0.9,0.2c0.1,0.1,0.4,0.1,0.4,0.3c-0.1,0.1-0.4,0.1-0.5,0.2c-0.3-0.3-0.7-0.1-1.1-0.1
			c-0.4,0.1-0.8,0.1-1.1,0l-2.3,0.1c-0.3,0-0.5,0-0.8,0l-1.1,0c-0.3-0.1-0.6,0-0.8-0.1c-0.2-0.1-0.5-0.1-0.7,0
			c-0.4-0.1-0.8,0-1.2-0.1c-3.1,0-6.3-0.3-9.4-0.4c-0.2-0.1-0.4,0-0.6-0.1c-0.2-0.1-0.3-0.1-0.5,0c-0.4-0.1-0.8,0-1.2-0.1
			c-0.5-0.1-1-0.1-1.5-0.1c-0.5,0.1-0.5-0.2-0.6-0.6c-0.1-0.5-0.2-1.1-0.3-1.6c0-0.2-0.2-0.4-0.4-0.4c0,0,0,0-0.1,0
			c-1.3,0-2.6-0.2-3.9-0.2c-0.5-0.1-1-0.1-1.5-0.1c-0.2-0.1-0.4,0-0.6-0.1c-0.9-0.2-1.9,0-2.8-0.1c-1.1-0.2-2.2-0.1-3.3-0.3
			c-0.1,0-0.2,0-0.3,0c-0.2,0.1-0.3,0.2-0.6,0.1c-0.5,0-1-0.4-1.5-0.3c-0.2-0.1-0.5,0-0.7-0.1c-0.8-0.3-1.6-0.1-2.4-0.4
			c-0.5-0.2-1-0.4-1.5-0.5C138.3,73.6,138.7,73.9,138.8,73.7z"/>
		<path id="Trazado_80" d="M64.1,66.7c0,0,0.1,0.1,0.1,0.1c-0.1,1-0.4,2-0.8,2.9l0,0l0,0c0.1-0.3,0.2-0.7,0.3-1
			c0-0.2,0.3-0.3,0.1-0.5c-0.2-0.2-0.5-0.2-0.7,0c-0.1,0.2-0.2,0.1-0.3,0.1c-0.1,0-0.2,0.1-0.2,0.2c-0.1,0-0.3,0-0.4-0.1
			c-0.2-0.1-0.3,0.1-0.5,0.1c-0.3,0.1-0.5,0.1-0.8,0h-0.2c-0.8,0.1-1.6,0-2.4,0c-0.2,0-0.4,0-0.6,0c-0.2,0.1-0.4-0.1-0.6,0
			c-0.4,0.1-0.9,0.1-1.3,0c-0.3,0.1-0.5,0.1-0.8,0.1c-1,0.1-2,0.1-3,0c-0.6,0-1.2,0.1-1.9,0.1c-0.5,0-0.5,0.1-0.3,0.6
			c0,0.1,0.1,0.2,0.1,0.4c-0.1,0.5,0,1.1-0.1,1.6c-0.2,0.8-0.1,1.8-0.6,2.5c-0.1-0.1,0-0.3-0.1-0.4c-0.1-0.1-0.1-0.2-0.1-0.2
			c-0.1-0.8-0.2-1.6-0.4-2.4c-0.1-0.2-0.4,0-0.6,0.1c-0.1,0.2-0.4,0.1-0.6,0.2c-1.1,0.2-2.1,0.5-3.2,0.7c-2.2,0.4-4.4,1.1-6.6,1.6
			c-0.8,0.2-1.7,0.4-2.6,0.6c-0.1,0-0.5-0.1-0.4,0.3c-0.2,0.1-0.4,0.1-0.6,0l-0.6,0.2c-0.3,0.1-0.5,0-0.8,0.1l0,0
			c-0.2,0.1-0.4,0.1-0.6,0l-0.3,0c-0.2-0.1-0.4,0.1-0.5-0.2c0-0.1,0-0.2,0.1-0.3l0.1-0.1c0.1-0.1,0.2-0.2,0.3-0.2
			c0.3,0,0.3-0.3,0.5-0.4c0.2,0,0.4-0.1,0.6,0c0.6-0.3,1.2-0.5,1.9-0.5c0.2,0,0.3-0.2,0.6-0.1c1.1-0.3,2.3-0.4,3.4-0.8
			c0.2-0.1,0.4-0.1,0.7-0.1c0.4,0.1,0.6-0.3,0.9-0.3c0.2,0,0.4,0.1,0.5-0.1c0.5,0,0.9-0.1,1.3-0.4c0.2,0,0.4,0,0.6-0.1
			c1.2-0.3,2.5-0.6,3.7-0.8c0.8-0.2,1.6-0.5,2.5-0.7c0.2,0,0.2-0.1,0.1-0.3c-0.1-0.4-0.2-0.8-0.2-1.1c-0.1-0.5,0.1-0.6,0.6-0.6
			c0.3,0.1,0.6,0.1,0.9,0c0.5,0.3,0.9-0.1,1.4,0c0.3,0,0.6,0,0.9,0c0.4,0.1,0.7,0,1.1-0.1c0.3,0.1,0.6,0,0.8,0.1l0.9,0
			c0.3-0.1,0.5,0.1,0.8-0.1l2.1,0c0.2-0.1,0.4,0,0.6-0.1l2.1,0c0.1-0.1,0.2-0.2,0.4-0.1c0,0,0.1,0,0.1,0.1c0.7,0.1,1.5-0.1,2,0.6
			c0.1,0.1,0.3,0.1,0.5,0c0-0.1,0.1-0.1,0.1-0.2C63.9,67.4,64,67.1,64.1,66.7z"/>
	</g>
	<path id="Trazado_81" d="M22.8,115.9c3,0.3,5.8-1.4,7-4.1c0.1-0.3,0.1-0.7,0.6-0.7c0.6-0.1,1.2,0.1,1.7,0.4
		c0.3,0.2,0.2,0.6,0.1,0.9c-0.3,1-0.6,2-1,3c-0.3,0.8-0.5,1.7-0.7,2.6c0,0.4-0.3,0.3-0.5,0.3c-1.4,0-2.7,0-4.1,0c-0.3,0-0.6,0-1,0
		c-0.4-0.1-0.8,0-1.2-0.1c-1.2,0-2.4-0.1-3.7,0c-0.8-0.1-1.6-0.1-2.5,0c-1.1-0.1-2.3,0-3.4,0c-0.4,0.1-0.8,0-1.2,0.1
		c-1.8,0-3.6,0-5.4,0c-0.6,0-1-0.4-0.8-0.8c0.1-0.4,0.3-0.8,0.5-1.1c1.4-1.8,2.7-3.8,4-5.7c1.9-2.8,3.8-5.5,5.7-8.3
		c2.1-3,4.1-6.1,6.2-9.1c0.4-0.6,0.8-1.2,1.2-1.9c0.2-0.3,0.2-0.5-0.3-0.5c-2.6,0-5.3,0-7.9,0c-0.2,0.1-0.4,0-0.6,0.1
		c-1.6-0.1-3.2,0.8-4.1,2.1c-0.4,0.6-0.9,1.3-1.2,1.9c-0.2,0.4-0.5,0.4-0.9,0.3c0,0,0,0,0,0c-1.4-0.8-1.2-0.4-0.8-1.9
		c0.5-1.7,0.9-3.4,1.3-5.1c0.1-0.3,0.2-0.6,0.3-1c0-0.1,0.1-0.2,0.1-0.2c0.6-0.4,1.4-0.3,2,0.1c0.2,0.2,0.3,0.4,0.5,0.6
		c0.7,0.9,1.7,0.8,2.7,0.8c0.2,0.1,0.4,0,0.6,0.1l1.3,0c0.3,0.1,0.6,0,0.8,0.1c1.7,0.1,3.4,0.1,5.1,0c0.3-0.1,0.6,0,0.8-0.1l2,0
		c0.4-0.1,0.8,0,1.2-0.1c0.6,0,1.2,0,1.8,0c0.4,0,0.9,0,1.1,0.3c0.3,0.4-0.1,0.9-0.3,1.2c-1.1,1.8-2.3,3.6-3.5,5.3
		c-2.1,3.3-4.3,6.5-6.6,9.8c-2.3,3.4-4.7,6.8-7.2,10.1c-0.1,0.2-0.2,0.3-0.4,0.6H14c0.1,0,0.2,0.1,0.3,0h8.1
		C22.5,116,22.6,116,22.8,115.9z"/>
	<path id="Trazado_82" d="M53.8,111c0-1.9,0-3.8,0-5.7c0-1.4,0-2.8,0-4.1c-0.1-0.2,0-0.4-0.1-0.6c-0.1-0.8-0.3-1-1.2-1.2
		c-0.2-0.1-0.4,0-0.6-0.1c-0.3-0.1-0.8,0.1-0.8-0.5c0-0.7,0-0.7,0.7-0.7c0.3,0,0.7,0,1,0c0.2,0.1,0.4,0,0.6,0.1c0.8,0,1.5,0,2.3,0
		c0.2-0.1,0.4,0,0.6-0.1c0.5,0,1,0,1.4,0c0.2,0,0.4,0,0.5,0.1c0.1,0.3,0.1,0.6,0,0.9c-0.3,0.5-0.8,0.2-1.2,0.3
		c-1,0.1-1.4,0.5-1.4,1.6c0,3.4,0,6.7,0,10.1c0.1,1.6-0.4,3.1-1.3,4.4c-1,1.3-2.4,2.2-4,2.7c-1.3,0.4-2.7,0.6-4.1,0.5
		c-0.2-0.1-0.4,0-0.6-0.1c-1.6,0-3.2-0.4-4.6-1.2c-1.2-0.7-2-1.8-2.3-3.1c-0.2-0.9-0.3-1.8-0.3-2.7c0-3.5,0-7.1,0-10.6
		c0-0.3,0-0.5-0.1-0.8c-0.1-0.6-0.6-1-1.2-1c-0.3-0.1-0.6,0-0.9-0.1c-0.1-0.1-0.3,0-0.4-0.1c-0.1-0.3-0.1-0.6,0-0.9
		c0-0.3,0.3-0.2,0.5-0.2c0.9,0,1.8,0,2.7,0c0.3,0.1,0.6,0,0.8,0.1c0.8,0,1.7,0,2.5,0c0.2-0.1,0.4,0,0.6-0.1c0.6,0,1.1,0,1.7,0
		c0.2,0,0.4,0,0.5,0.2c0,0.3,0,0.5,0,0.8c-0.1,0.1-0.2,0.2-0.4,0.3c-0.3,0.1-0.6,0-0.8,0.1c-0.9,0-1.4,0.4-1.4,1.4
		c-0.1,4-0.1,8.1,0,12.1c0,1.5,1,2.8,2.4,3.2c2,0.7,4.2,0.6,6.2-0.3c1.6-0.7,2.6-2.3,2.6-4.1C53.8,111.4,53.7,111.2,53.8,111z"/>
	<path id="Trazado_83" d="M81.4,103.4l-0.7,0.3c-0.2,0.1-0.5,0-0.6-0.2c0,0,0-0.1,0-0.1c-0.6-1.2-1.3-2.2-2.3-3
		c-0.9-0.8-2.1-1.2-3.3-1.2c-1.2-0.1-2.3,0.2-3.4,0.6c-2.1,1-3.6,3-4.1,5.3c-0.9,3.1-0.3,6.5,1.7,9c1.1,1.5,2.8,2.5,4.6,2.8
		c1.4,0.3,2.9,0.1,4.3-0.4c1.4-0.7,2.5-2,3-3.5c0.2-0.5,0.5-0.6,1-0.4c0.5,0.2,0.7,0.3,0.5,1c-0.3,1-0.6,2-0.8,3.1
		c-0.1,0.3-0.3,0.6-0.6,0.7c-1.6,0.7-3.3,1.1-5,1.2c-0.2,0.1-0.4,0-0.6,0.1c-0.5-0.1-1.1-0.1-1.6,0c-0.2-0.1-0.4,0-0.6-0.1
		c-1.8-0.1-3.5-0.5-5.1-1.3c-1.9-0.9-3.4-2.3-4.4-4.1c-1.1-2-1.5-4.3-1.2-6.6c0.2-1.6,0.8-3.2,1.8-4.4c2.9-3.6,6.8-4.8,11.2-4.6
		c1.8,0.1,3.6,0.6,5.2,1.5c0.4,0.1,0.7,0.5,0.7,0.9c0.1,1,0.2,1.9,0.3,2.9C81.4,103.1,81.4,103.3,81.4,103.4z"/>
	<path id="Trazado_84" d="M96.6,118.7c-2.3-0.1-4.6-0.9-6.5-2.2c-1.6-1.2-2.9-2.8-3.6-4.7c-0.6-1.6-0.8-3.4-0.6-5.1
		c0.2-1.6,0.8-3.2,1.8-4.4c1-1.4,2.4-2.4,3.9-3.2c1.6-0.8,3.4-1.3,5.3-1.4c2.4-0.2,4.9,0.3,7.1,1.4c0.5,0.2,0.9,0.5,0.9,1.2
		c0,1,0.2,2,0.3,2.9c0,0.3,0,0.5-0.4,0.6c-0.3,0-0.7,0.4-1-0.2c-0.3-0.6-0.7-1.2-1.1-1.8c-1-1.6-2.8-2.5-4.7-2.4
		c-2-0.1-3.9,0.7-5.3,2.2c-1.2,1.3-1.9,2.9-2.2,4.7c-0.4,2.3,0,4.7,1.1,6.7c1.1,2.3,3.3,3.9,5.9,4.2c1.7,0.3,3.5-0.1,4.9-1.1
		c0.9-0.7,1.5-1.7,1.9-2.8c0.3-0.7,0.3-0.7,1-0.5c0.6,0.2,0.7,0.4,0.5,1c-0.3,1.1-0.6,2.1-0.8,3.2c0,0.2-0.2,0.4-0.4,0.5
		c-1.4,0.6-2.8,1-4.3,1.2c-0.3,0-0.6,0.1-0.9,0.1c-0.2,0.1-0.4,0-0.6,0.1c-0.5-0.1-1.1-0.1-1.6,0C97,118.6,96.8,118.7,96.6,118.7z"
		/>
	<path id="Trazado_85" d="M142.6,106.8c1.5,0,2.9-0.8,3.5-2.2c0.2-0.3,0.3-0.7,0.3-1.1c0.1-0.3,0.1-0.5,0-0.8c0-1.7-1.2-3.1-2.9-3.2
		c-0.4-0.1-0.8-0.1-1.2-0.1c-0.8,0.1-1.4,0.9-1.3,1.7c0,4.5,0,9,0,13.5c0,1.2,0.4,2,1.5,2.4c0.3,0.1,0.7-0.1,1,0.2
		c0.1,0.3,0.1,0.6,0,0.9h0c-0.4,0.1-0.7,0.1-1.1,0l-1.4,0c-0.2-0.1-0.5,0-0.7-0.1l-1.1,0c-0.3,0.1-0.7,0-1.1,0.1l-2.2,0
		c-0.4,0-0.8,0-1.2,0c-0.1-0.2-0.1-0.5-0.1-0.8c0-0.3,0.3-0.2,0.4-0.3c0.7,0,1.4-0.2,1.9-0.7c0.4-0.5,0.5-1.1,0.4-1.8
		c0-4.3,0-8.5,0-12.8c0-0.5-0.1-1-0.2-1.5c-0.1-0.6-0.6-1-1.2-1.1c-0.2,0-0.4,0-0.6,0c-0.7,0-0.8-0.1-0.8-0.8c0-0.3,0.2-0.3,0.4-0.3
		c0.3,0,0.6,0,1,0c0.3,0.1,0.7,0,1.1,0.1c0.9,0.1,1.8,0.1,2.7,0c0.4,0.1,0.7,0.1,1.1,0l2,0c0.4-0.1,0.9,0,1.3-0.1
		c1.1,0,2.2,0.1,3.2,0.4c1.5,0.4,2.8,1.6,3.2,3.1c0.7,2-0.4,4.1-2.4,4.8c-0.6,0.2-1.2,0.4-1.8,0.6c2.3,2.2,3.6,5,5.3,7.6
		c0.7,1,1.4,2,2.7,2.3c0.1,0,0.2,0.1,0.4,0.1c0.5,0,0.7,0.3,0.6,0.9c-0.1,0.2-0.2,0.1-0.4,0.1c-0.6,0-1.2,0-1.7,0
		c-0.3-0.1-0.6,0-0.8-0.1c-0.7,0-1.4,0-2,0.1c-0.3,0.1-0.5,0.1-0.8,0c-0.3-0.2-0.6-0.4-0.8-0.8c-1.5-2.5-2.9-5.1-4.4-7.6
		c-0.4-0.6-0.7-1.3-1.6-1.4c-0.2,0-0.3-0.2-0.3-0.4c0-0.2,0-0.5-0.1-0.7C142.1,106.8,142.4,106.9,142.6,106.8z"/>
	<path id="Trazado_86" d="M188,118.2c-0.6,0-1.2,0-1.9,0c-0.3,0.1-0.6,0-0.8,0.1c-0.2,0-0.4,0-0.6,0c-0.3,0-0.7,0.2-0.7-0.5
		c0-0.7,0-0.8,0.7-0.8c0.9,0.1,1.7-0.5,1.8-1.4c0-0.2,0-0.3,0-0.5c0-4.6,0-9.2,0-13.8c0-2-0.7-1.9-2-2.1c-0.2,0-0.5,0.1-0.5-0.1
		c0-0.3,0-0.7,0-1.1c0,0,0.2-0.1,0.3-0.1c0.5,0,1,0,1.5,0c0.3,0.1,0.6,0,0.8,0.1c1.1,0,2.2,0.1,3.3,0c0.3-0.1,0.6,0,0.8-0.1
		c0.6,0,1.2,0,1.8,0c0.4,0,0.5,0.1,0.5,0.5c0,0.4,0,0.7-0.5,0.7c-0.3,0-0.6,0-0.9,0.1c-0.7,0-1.3,0.7-1.2,1.4c0,0,0,0,0,0
		c0,4.9,0,9.8,0,14.7c0,0.8,0.6,1.4,1.3,1.5c0.2,0,0.4,0,0.7,0c0.4,0,0.7,0.2,0.7,0.6c0,0.5-0.2,0.7-0.7,0.6c-0.2,0-0.4,0-0.7,0
		c-0.2-0.1-0.5,0-0.7-0.1c-0.5-0.1-1.1-0.1-1.6,0C189,118.1,188.5,118.1,188,118.2z"/>
	<path id="Trazado_87" d="M179.5,103.4c-1.2-2.4-3.3-4.2-5.9-4.9c-2-0.6-4.1-0.9-6.2-0.9c-0.2-0.1-0.4-0.1-0.7,0c-0.6,0-1.2,0-1.9,0
		c-0.2,0.1-0.4,0-0.6,0.1c-1.7,0.1-3.4,0.3-5.1,0.6c-0.4,0-0.7,0.4-0.7,0.8c0,0,0,0.1,0,0.1c0,0.5,0.5,0.4,0.7,0.4
		c0.2,0,0.5,0,0.7,0c0.4,0,0.8,0.3,0.9,0.8c0.1,0.5,0.1,1,0.1,1.5c0,2.6,0,5.2,0,7.8c0,1.8,0,3.6,0,5.3c0,1.2-0.5,1.7-1.3,1.9
		c-0.3,0.1-0.6,0.1-0.8,0.1c-0.3,0-0.5,0.1-0.5,0.5c0,0.5,0.1,0.9,0.7,0.7c0.1,0,0.3,0,0.4,0c0.2-0.1,0.4,0,0.6-0.1
		c0.5-0.1,1-0.1,1.5,0c0.5-0.1,1-0.1,1.5,0c0.8,0,1.7,0,2.5,0c0.4,0.1,0.9,0,1.3,0.1c0.7-0.1,1.4-0.1,2.2,0c0.2-0.1,0.4,0,0.6-0.1
		c1.1-0.1,2.1-0.3,3.1-0.6c1.7-0.5,3.3-1.3,4.6-2.5c1.6-1.5,2.6-3.5,2.9-5.7C180.7,107.4,180.4,105.3,179.5,103.4z M173.8,114.5
		c-1.8,2-4.5,2.7-7.1,2c-1.1-0.2-1.8-1.1-1.7-2.2c0-4.4,0-8.9,0-13.3c0-1,0.4-1.6,1.4-1.8c2.3-0.6,4.8,0,6.7,1.5
		c1.6,1.4,2.6,3.3,2.8,5.4c0.1,0.7,0.2,1.3,0.2,2C176.2,110.5,175.4,112.8,173.8,114.5z"/>
	<path id="Trazado_88" d="M130.5,117.3c-0.2-0.1-0.5-0.2-0.7-0.2c-0.7-0.1-1.3-0.5-1.6-1.1c-0.4-0.8-0.7-1.6-1-2.4
		c-1.6-3.9-3.1-7.8-4.7-11.6c-0.6-1.4-1.2-2.9-1.8-4.3c-0.2-0.4-0.4-0.5-0.8-0.2c-0.4,0.3-0.9,0.6-1.3,0.9c-0.4,0.3-0.7,0.7-0.9,1.1
		c-0.2,0.5-0.3,1-0.5,1.5c-1,2.9-1.9,5.7-2.9,8.6c-0.7,2-1.4,3.9-2.1,5.8c-0.3,1-1.1,1.6-2.1,1.6c-0.3,0-0.5,0.1-0.6,0.4
		c0,0.2,0,0.4,0,0.6c0.1,0.4,0.4,0.3,0.6,0.3c0.6-0.1,1.3-0.1,1.9-0.1c0.5-0.1,1-0.1,1.6,0c0.4,0,0.8,0,1.2,0c0.2,0.1,0.4,0,0.6,0.1
		c0.4-0.1,0.8,0.1,1.2-0.2c0.1-0.3,0.1-0.5,0-0.8c-0.2-0.5-0.7-0.3-1-0.3c-1.2-0.1-1.6-0.6-1.3-1.8c0.4-1.5,1-2.9,1.4-4.3
		c0-0.3,0.3-0.4,0.5-0.4c1.7,0,3.5,0,5.2,0c0.2,0,0.3,0,0.4,0.2c0.6,1.7,1.5,3.2,1.9,5c0.1,0.4,0,0.8-0.4,1
		c-0.4,0.2-0.8,0.3-1.2,0.3c-0.3,0-0.5,0.1-0.5,0.5c0,0.8,0,0.8,0.8,0.8c0.2,0,0.3,0,0.4,0c0.2-0.1,0.5,0,0.7-0.1
		c0.7-0.1,1.3-0.1,2,0c0.5-0.1,1-0.1,1.4,0c0.6,0,1.2,0,1.8,0c0.2,0.1,0.5,0,0.7,0.1c0.3-0.1,0.7,0.1,1-0.2
		C130.6,117.8,130.6,117.5,130.5,117.3z M116.5,108.8c0.7-2,1.3-4,2-6.1c0.9,2.1,1.7,4,2.5,6.1H116.5z"/>
	<path id="Trazado_89" d="M108.2,137.1c-0.2-1.5-1.3-2.6-2.8-2.7c-1.6-0.2-3.1,0-4.7-0.1c-0.3,0-0.3,0.1-0.3,0.4c0,0.9,0,1.9,0,2.8
		c0,0.9,0,1.8,0,2.7c0,0.4,0.1,0.5,0.5,0.5c1,0,1.9,0,2.9,0c0.7,0,1.3,0,2-0.1C107.3,140.1,108.3,138.7,108.2,137.1z M105,139.5
		c-1,0.1-2,0-3,0c-0.3,0-0.3-0.1-0.3-0.4c0-0.6,0-1.1,0-1.7s0-1.1,0-1.7c0-0.2,0-0.4,0.3-0.3c1,0,2.1,0,3.1,0.1
		c1.1,0.1,1.8,1.1,1.7,2.1C106.8,138.6,106,139.5,105,139.5L105,139.5z"/>
	<path id="Trazado_90" d="M80,138C80,138,80,138.1,80,138c-0.2,1.5-0.2,1.5,1.3,1.5c1.3,0,2.5,0,3.8,0c0.5,0,0.5,0.3,0.5,0.6
		c0,0.4,0,0.6-0.5,0.6c-2,0-4,0-6,0c-0.3,0-0.4-0.1-0.4-0.4c0-1.8,0-3.6,0-5.5c0-0.4,0.1-0.5,0.5-0.5c1.8,0,3.6,0,5.5,0
		c0.5,0,0.8,0.1,0.7,0.7c0,0.1,0,0.3,0,0.5c-0.2,0.1-0.4,0.1-0.5,0.1c-1.4,0-2.8,0-4.2,0c-0.2,0-0.4,0-0.5,0.1c0,0,0,0.1,0,0.1
		c-0.1,1.1-0.1,1.1,1,1.1c0.7,0,1.4,0,2.1,0c0.5,0,0.7,0.2,0.6,0.6c0,0.1,0,0.3,0,0.4c-0.1,0.2-0.3,0.1-0.5,0.1
		C82.2,138,81.1,137.9,80,138z"/>
	<path id="Trazado_91" d="M116.3,138C116.3,138,116.3,138.1,116.3,138c-0.2,1.5-0.2,1.5,1.3,1.5c1.3,0,2.5,0,3.8,0
		c0.4,0,0.5,0.2,0.4,0.5c0,0.3,0.1,0.7-0.4,0.7c-2,0-4,0-6.1,0c-0.3,0-0.4-0.1-0.4-0.4c0-1.9,0-3.7,0-5.6c0-0.3,0.1-0.4,0.4-0.4
		c1.9,0,3.9,0,5.8,0c0.3,0,0.4,0.1,0.4,0.4c0,0.2,0,0.5,0,0.7c-0.2,0.1-0.4,0.1-0.5,0.1c-1.4,0-2.8,0-4.2,0c-0.2,0-0.4,0-0.5,0.1
		c-0.1,0.3-0.1,0.6-0.1,0.9c0,0.3,0.1,0.4,0.4,0.4c1.1,0,2.2,0,3.3,0c0.1,0.3,0.1,0.6,0.1,0.9c0,0.3-0.2,0.2-0.4,0.2
		c-0.9,0-1.8,0-2.7,0C116.7,137.9,116.5,137.9,116.3,138z"/>
	<path id="Trazado_92" d="M172.3,135.2c-0.7-0.7-1.7-1-2.7-1.1c-1.7-0.1-3.2,0.2-4.2,1.8c-0.8,1.3-0.5,2.9,0.5,3.9
		c0.8,0.8,1.9,1.1,3,1c0.7,0.1,1.5,0,2.2-0.3c1.6-0.5,2.6-2.2,2.1-3.8C173,136.1,172.7,135.6,172.3,135.2z M170.2,139.6
		c-0.3,0.1-0.7,0.1-1,0.1c-0.5,0-1.1-0.1-1.6-0.3c-0.8-0.3-1.3-1-1.3-1.8c-0.1-0.8,0.4-1.6,1.1-1.9c0.9-0.5,2-0.6,3-0.2
		c0.9,0.3,1.6,1.1,1.5,2.1C171.9,138.6,171.2,139.4,170.2,139.6L170.2,139.6z"/>
	<path id="Trazado_93" d="M47.5,140.1c-0.9-1.6-1.8-3.2-2.6-4.9c-0.2-0.7-1-1.2-1.7-1c-0.3,0-0.5,0.1-0.6,0.4
		c-0.7,1.3-1.4,2.6-2.1,3.9l-1.1,2c1,0.3,1.6,0,1.9-0.9c0.1-0.3,0.3-0.4,0.6-0.4c1.1,0,2.2,0,3.3,0c0.3-0.1,0.6,0.1,0.7,0.4
		c0.2,0.6,0.6,1.1,1.4,1C47.8,140.6,47.7,140.5,47.5,140.1z M42.5,138.2c-0.2,0-0.4,0-0.2-0.3c0.4-0.8,0.9-1.6,1.3-2.5
		c0.5,0.9,1,1.8,1.5,2.7C44.1,138.2,43.3,138.2,42.5,138.2z"/>
	<path id="Trazado_94" d="M155.7,139.6c0.6-0.1,1.2-0.3,1.6-0.7c0.2-0.2,1.3,0.1,1.3,0.3c0,0.2-0.1,0.2-0.2,0.3
		c-0.8,0.8-1.9,1.2-3,1.3c-1,0.1-2-0.1-2.9-0.5c-1-0.4-1.6-1.3-1.8-2.4c-0.3-2.2,1.3-3.5,3.1-3.8c1.6-0.3,3.2,0.1,4.4,1.2
		c0.2,0.1,0.4,0.3,0.3,0.5c0,0.2-0.3,0.2-0.5,0.3c-0.4,0.1-0.8,0.1-1.1-0.2c-1.3-0.9-3-0.9-4.3,0c-0.8,0.8-0.9,2.1-0.1,2.9
		c0.1,0.2,0.3,0.3,0.5,0.4c0.4,0.3,0.8,0.4,1.3,0.3C154.8,139.7,155.2,139.7,155.7,139.6z"/>
	<path id="Trazado_95" d="M136.6,136.7c0-0.7,0-1.3,0-2c0-0.3,0.1-0.5,0.4-0.4c0.1,0,0.2,0,0.3,0c0.4-0.1,0.6,0.1,0.5,0.5
		c0,1,0,2,0,3c-0.1,1.2,0.2,1.7,1.6,1.9c0.7,0.1,1.4,0.1,2.1-0.1c0.7-0.1,1.2-0.8,1.1-1.5c0-1.1,0-2.2,0-3.3c0-0.6,0.4-0.4,0.7-0.5
		c0.3,0,0.6,0,0.6,0.5c0,1.2,0,2.4,0,3.5c0.1,0.9-0.4,1.7-1.2,2c-1.6,0.7-3.4,0.7-4.9,0c-0.8-0.3-1.3-1.1-1.2-2
		C136.6,137.8,136.6,137.3,136.6,136.7z"/>
	<path id="Trazado_96" d="M34.6,134.3c-1,1.7-1.9,3.4-2.8,5c-0.1,0.2-0.2,0.3-0.3,0.5c-0.2,0.6-0.8,1-1.4,0.9
		c-0.3,0-0.6-0.2-0.8-0.5c-0.9-1.8-1.9-3.5-2.9-5.2c-0.1-0.2-0.2-0.4-0.4-0.6c0.5,0,0.9,0,1.3,0c0.3,0,0.3,0.2,0.4,0.4
		c0.8,1.5,1.6,2.9,2.4,4.4c0.1,0.1,0.1,0.3,0.2,0.3c0.1,0,0.2-0.2,0.2-0.3c0.7-1.4,1.5-2.8,2.2-4.2c0.2-0.4,0.4-0.7,0.9-0.6
		C34,134.3,34.3,134.3,34.6,134.3z"/>
	<path id="Trazado_97" d="M54,134.3c1.2,0,1.2,0,1.2,1.3c0,1.2,0,2.4,0,3.6c0,0.2,0,0.4,0.3,0.4c1.5,0,3,0,4.5,0
		c0.2,0.4,0.2,0.8,0,1.2c-2-0.1-4-0.1-6,0c-0.2-0.1-0.1-0.2-0.1-0.3c0-1.9,0-3.8,0-5.7C54,134.5,53.9,134.4,54,134.3z"/>
	<path id="Trazado_98" d="M72.3,140.7c-2-0.1-4-0.1-6,0c-0.2-0.1-0.1-0.2-0.1-0.3c0-1.9,0-3.8,0-5.7c0-0.1,0-0.2,0.1-0.3
		c1.2,0,1.2,0,1.2,1.3c0,1.2,0,2.4,0,3.6c0,0.2,0,0.4,0.3,0.4c1.5,0,3,0,4.5,0C72.5,139.9,72.5,140.3,72.3,140.7z"/>
</g>
</svg>
